<?xml version="1.0" standalone="no"?>
<!DOCTYPE svg PUBLIC "-//W3C//DTD SVG 1.1//EN" "http://www.w3.org/Graphics/SVG/1.1/DTD/svg11.dtd" >
<svg>
<metadata>
Created by FontForge 20090622 at Thu Mar 17 13:46:06 2016
 By deploy user
Copyright 1999 International Typeface Corporation. All rights reserved.
</metadata>
<defs>
<font id="JohnstonITCStd-Light" horiz-adv-x="566" >
  <font-face 
    font-family="Johnston ITC Std Light"
    font-weight="300"
    font-stretch="normal"
    units-per-em="1000"
    panose-1="2 0 5 4 4 0 0 2 0 3"
    ascent="800"
    descent="-200"
    x-height="453"
    cap-height="672"
    bbox="-141 -257 1103 923"
    underline-thickness="55"
    underline-position="-55"
    unicode-range="U+0020-U+FB02"
  />
<missing-glyph horiz-adv-x="500" 
d="M12 0v665h475v-665h-475zM88 618l162 -243l161 243h-323zM60 575v-484l40 61l80 120l41 61zM440 575l-162 -242l162 -243v485zM411 48l-161 242l-162 -242h323z" />
    <glyph glyph-name="f_i" unicode="fi" horiz-adv-x="525" 
d="M464 566l-52 -52l-52 52l52 52zM441 0h-58v453h58v-453zM329 611q-42 20 -79 20q-43 0 -67 -21.5t-24 -81.5v-75h139v-50h-139v-403h-58v403h-69v50h69v70q0 83 39.5 121.5t107.5 38.5q41 0 81 -16v-56z" />
    <glyph glyph-name="f_l" unicode="fl" horiz-adv-x="652" 
d="M627 13q-44 -24 -87 -24q-58 0 -97.5 35.5t-39.5 124.5v523h58v-528q0 -103 86 -103q46 0 80 28v-56zM329 611q-42 20 -79 20q-43 0 -67 -21.5t-24 -81.5v-75h139v-50h-139v-403h-58v403h-69v50h69v70q0 83 39.5 121.5t107.5 38.5q41 0 81 -16v-56z" />
    <glyph glyph-name=".notdef" horiz-adv-x="500" 
d="M12 0v665h475v-665h-475zM88 618l162 -243l161 243h-323zM60 575v-484l40 61l80 120l41 61zM440 575l-162 -242l162 -243v485zM411 48l-161 242l-162 -242h323z" />
    <glyph glyph-name=".null" horiz-adv-x="0" 
 />
    <glyph glyph-name="nonmarkingreturn" horiz-adv-x="333" 
 />
    <glyph glyph-name="space" unicode=" " horiz-adv-x="210" 
 />
    <glyph glyph-name="exclam" unicode="!" horiz-adv-x="242" 
d="M162 535l-17 -376h-41l-17 376v137h75v-137zM174 41l-53 -53l-53 53l53 53z" />
    <glyph glyph-name="quotedbl" unicode="&#x22;" horiz-adv-x="337" 
d="M263 566l-15 -148h-38l-16 148v106h69v-106zM142 566l-14 -148h-38l-16 148v106h68v-106z" />
    <glyph glyph-name="numbersign" unicode="#" horiz-adv-x="625" 
d="M597 479l-10 -49h-105l-39 -186h105l-10 -49h-106l-49 -234h-55l49 234h-191l-49 -234h-55l49 234h-103l10 49h104l39 186h-104l10 49h104l49 232h55l-49 -232h191l49 232h55l-49 -232h105zM427 430h-191l-39 -186h191z" />
    <glyph glyph-name="dollar" unicode="$" 
d="M478 186q0 -74 -44.5 -126.5t-127.5 -61.5v-93h-57v92q-120 10 -193 128l53 33q50 -92 140 -104v277q-78 39 -121 80.5t-43 109.5q0 58 43 104t121 52v96h57v-97q83 -11 148 -78l-38 -42q-47 51 -110 62v-244q41 -21 64.5 -35t52 -37.5t42 -52t13.5 -63.5zM249 403v217
q-51 -5 -76.5 -32.5t-25.5 -64.5q0 -38 26.5 -65.5t75.5 -54.5zM416 181q0 39 -28.5 66.5t-81.5 54.5v-247q58 9 84 45t26 81z" />
    <glyph glyph-name="percent" unicode="%" horiz-adv-x="667" 
d="M339 538q0 -58 -41 -99t-99 -41t-99 41t-41 99t41 99t99 41t99 -41t41 -99zM584 672l-441 -672h-64l441 672h64zM608 134q0 -58 -41 -99t-99 -41t-99 41t-41 99t41 99t99 41t99 -41t41 -99zM287 538q0 37 -25.5 62.5t-62.5 25.5t-62.5 -25.5t-25.5 -62.5t25.5 -62.5
t62.5 -25.5t62.5 25.5t25.5 62.5zM556 134q0 37 -25.5 62.5t-62.5 25.5t-62.5 -25.5t-25.5 -62.5t25.5 -62.5t62.5 -25.5t62.5 25.5t25.5 62.5z" />
    <glyph glyph-name="ampersand" unicode="&#x26;" horiz-adv-x="643" 
d="M621 0h-80l-84 86q-90 -97 -207 -97q-89 0 -144 51.5t-55 128.5q0 103 145 183q-53 54 -74 92.5t-21 76.5q0 63 45 107t120 44q68 0 115 -40.5t47 -109.5q0 -53 -37 -94t-109 -83l174 -177q53 68 85 167h56q-40 -121 -104 -205zM371 527q0 38 -28.5 65t-75.5 27
q-52 0 -79 -27.5t-27 -67.5q0 -57 87 -143q70 40 96.5 72.5t26.5 73.5zM420 124l-190 193q-60 -36 -88.5 -71t-28.5 -77q0 -54 35 -90.5t106 -36.5q97 0 166 82z" />
    <glyph glyph-name="quotesingle" unicode="'" horiz-adv-x="193" 
d="M131 566l-15 -148h-38l-16 148v106h69v-106z" />
    <glyph glyph-name="parenleft" unicode="(" horiz-adv-x="306" 
d="M274 -148h-67q-123 227 -123 478t123 478h67q-64 -118 -96 -230.5t-32 -247.5t32 -247.5t96 -230.5z" />
    <glyph glyph-name="parenright" unicode=")" horiz-adv-x="306" 
d="M222 330q0 -251 -123 -478h-67q64 118 96 230.5t32 247.5t-32 247.5t-96 230.5h67q123 -227 123 -478z" />
    <glyph glyph-name="asterisk" unicode="*" horiz-adv-x="423" 
d="M377 441l-36 -63l-113 88l20 -149h-73l21 148l-114 -87l-36 63l132 54l-132 53l36 63l114 -87l-21 148h73l-20 -149l113 88l36 -63l-131 -53z" />
    <glyph glyph-name="plus" unicode="+" 
d="M487 310h-176v-186h-55v186h-177v55h176v186h55v-186h177v-55z" />
    <glyph glyph-name="comma" unicode="," horiz-adv-x="210" 
d="M145 4q0 -62 -34.5 -93.5t-110.5 -34.5q43 20 60.5 47t17.5 74v79h67v-72z" />
    <glyph glyph-name="hyphen" unicode="-" horiz-adv-x="433" 
d="M381 223h-329v55h329v-55z" />
    <glyph glyph-name="period" unicode="." horiz-adv-x="210" 
d="M143 0h-76v77h76v-77z" />
    <glyph glyph-name="slash" unicode="/" horiz-adv-x="380" 
d="M342 800l-246 -929h-58l246 929h58z" />
    <glyph glyph-name="zero" unicode="0" 
d="M491 337q0 -150 -57 -245.5t-151 -95.5t-151 95.5t-57 245.5t57 245.5t151 95.5t151 -95.5t57 -245.5zM426 337q0 132 -40.5 207.5t-102.5 75.5t-102.5 -75.5t-40.5 -207.5t40.5 -207.5t102.5 -75.5t102.5 75.5t40.5 207.5z" />
    <glyph glyph-name="one" unicode="1" 
d="M314 0h-62v646l62 42v-688z" />
    <glyph glyph-name="two" unicode="2" 
d="M454 0h-372q84 117 176 272q60 100 82.5 150t22.5 85q0 55 -34.5 85t-77.5 30q-47 0 -83 -21t-76 -61v69q81 69 168 69q72 0 120 -48t48 -124q0 -67 -67 -182q-56 -97 -170 -267h263v-57z" />
    <glyph glyph-name="three" unicode="3" 
d="M475 204q0 -82 -62.5 -146t-153.5 -64q-109 0 -188 92l40 45q66 -79 148 -79q69 0 110 47.5t41 104.5q0 75 -49 118t-112 43q-19 0 -29 -1l137 251h-273v57h373l-143 -264q63 -9 112 -63.5t49 -140.5z" />
    <glyph glyph-name="four" unicode="4" 
d="M541 205h-107v-205h-62v205h-352l414 476v-419h107v-57zM372 262v261l-228 -261h228z" />
    <glyph glyph-name="five" unicode="5" 
d="M474 204q0 -82 -62 -146t-154 -64q-108 0 -188 92l40 45q66 -79 148 -79q69 0 110 47.5t41 104.5q0 77 -50 119t-114 42q-63 0 -121 -28l22 335h322l-29 -57h-237l-12 -207q37 10 80 10q80 0 142 -60t62 -154z" />
    <glyph glyph-name="six" unicode="6" 
d="M497 202q0 -80 -52.5 -144t-148.5 -64q-92 0 -155.5 71t-63.5 199q0 48 15.5 105t67.5 142t134 161h86q-92 -79 -151 -164.5t-82 -165.5q63 62 152 62q83 0 140.5 -61t57.5 -141zM432 202q0 53 -37 100t-111 47q-67 0 -145 -72v-19q0 -105 49.5 -157t107.5 -52
q60 0 98 39t38 114z" />
    <glyph glyph-name="seven" unicode="7" 
d="M477 672l-301 -672h-66l274 615h-323v57h416z" />
    <glyph glyph-name="eight" unicode="8" 
d="M485 190q0 -84 -57.5 -140t-144.5 -56q-85 0 -143.5 55t-58.5 141q0 123 139 180q-104 49 -104 143q0 71 46 118t121 47t121 -47.5t46 -111.5q0 -97 -105 -148q140 -56 140 -181zM388 516q0 48 -29.5 78t-75.5 30q-45 0 -75 -31t-30 -77q0 -48 26.5 -75.5t78.5 -44.5
q61 23 83 52.5t22 67.5zM419 185q0 60 -33 96.5t-102 61.5q-137 -51 -137 -158q0 -57 38 -95.5t98 -38.5q62 0 99 38t37 96z" />
    <glyph glyph-name="nine" unicode="9" 
d="M489 408q0 -48 -15.5 -105t-67.5 -142t-134 -161h-86q92 79 151 164.5t82 165.5q-63 -62 -152 -62q-83 0 -140.5 61t-57.5 141t52.5 144t148.5 64q92 0 155.5 -71t63.5 -199zM427 395v19q0 105 -49.5 157t-107.5 52q-60 0 -98 -39t-38 -114q0 -53 37 -100t111 -47
q67 0 145 72z" />
    <glyph glyph-name="colon" unicode=":" horiz-adv-x="210" 
d="M143 272h-77v76h77v-76zM144 0h-77v76h77v-76z" />
    <glyph glyph-name="semicolon" unicode=";" horiz-adv-x="210" 
d="M150 272h-76v76h76v-76zM145 4q0 -62 -34.5 -93.5t-110.5 -34.5q43 20 60.5 47t17.5 74v79h67v-72z" />
    <glyph glyph-name="less" unicode="&#x3c;" 
d="M487 124l-408 186v55l408 186v-55l-347 -158l347 -159v-55z" />
    <glyph glyph-name="equal" unicode="=" 
d="M487 381h-408v55h408v-55zM487 239h-408v55h408v-55z" />
    <glyph glyph-name="greater" unicode="&#x3e;" 
d="M487 310l-408 -186v55l347 158l-347 159v55l408 -186v-55z" />
    <glyph glyph-name="question" unicode="?" horiz-adv-x="446" 
d="M390 520q0 -79 -89 -163q-69 -66 -86 -85.5t-17 -35.5q0 -27 44 -67l-44 -44q-40 42 -53.5 65t-13.5 44q0 27 24 58.5t83 84.5q87 78 87 144q0 51 -33.5 77t-78.5 26q-40 0 -74.5 -23.5t-56.5 -68.5l-50 29q65 118 188 118q78 0 124 -48t46 -111zM249 41l-53 -53l-53 53
l53 53z" />
    <glyph glyph-name="at" unicode="@" horiz-adv-x="978" 
d="M913 306q0 -64 -19 -113.5t-48 -76.5t-58 -40t-56 -13q-96 0 -129 79q-81 -73 -159 -73q-65 0 -106.5 35.5t-41.5 92.5q0 83 77 126q60 33 215 33v30q0 107 -103 107q-79 0 -157 -40l12 57q78 33 154 33q71 0 110.5 -38.5t39.5 -115.5v-167q0 -55 23 -82.5t63 -27.5
q46 0 86.5 46t40.5 148q0 149 -106 256.5t-263 107.5q-68 0 -128 -23t-103 -61t-74 -86t-46.5 -98t-15.5 -96q0 -174 111 -284.5t298 -110.5q129 0 229 52l20 -49q-113 -50 -249 -50q-212 0 -338.5 125t-126.5 317q0 68 28.5 139.5t79.5 132.5t133.5 100t179.5 39
q124 0 223 -57.5t151.5 -151t52.5 -202.5zM592 184q-4 28 -4 47v76q-135 0 -183 -26q-50 -27 -50 -81q0 -39 27 -60t68 -21q71 0 142 65z" />
    <glyph glyph-name="A" unicode="A" horiz-adv-x="660" 
d="M638 0h-63l-87 205h-316l-87 -205h-63l284 672h48zM464 263l-134 317l-134 -317h268z" />
    <glyph glyph-name="B" unicode="B" horiz-adv-x="588" 
d="M530 193q0 -77 -53.5 -135t-158.5 -58h-235v672h184q98 0 147 -52.5t49 -119.5q0 -43 -24 -81t-63 -57q76 -15 115 -59t39 -110zM398 501q0 47 -32.5 80t-95.5 33h-123v-236h110q75 0 108 35t33 88zM464 196q0 59 -43 91.5t-128 32.5h-146v-262h169q76 0 112 41t36 97z
" />
    <glyph glyph-name="C" unicode="C" horiz-adv-x="714" 
d="M666 56q-124 -67 -249 -67q-150 0 -252 97.5t-102 249.5q0 147 105 247t256 100q117 0 242 -61v-66q-115 67 -242 67q-89 0 -159 -45t-104 -109.5t-34 -132.5q0 -119 82 -203t208 -84q131 0 249 74v-67z" />
    <glyph glyph-name="D" unicode="D" horiz-adv-x="700" 
d="M637 336q0 -146 -103.5 -241t-254.5 -95h-196v672h196q150 0 254 -96t104 -240zM573 336q0 116 -86 197t-218 81h-122v-556h112q136 0 225 76t89 202z" />
    <glyph glyph-name="E" unicode="E" horiz-adv-x="543" 
d="M493 0h-410v672h400v-58h-336v-230h267v-58h-267v-268h346v-58z" />
    <glyph glyph-name="F" unicode="F" horiz-adv-x="509" 
d="M467 614h-320v-230h253v-58h-253v-326h-64v672h384v-58z" />
    <glyph glyph-name="G" unicode="G" horiz-adv-x="745" 
d="M666 56q-124 -67 -249 -67q-150 0 -252 97.5t-102 249.5q0 147 105 247t256 100q117 0 242 -61v-66q-115 67 -242 67q-89 0 -159 -45t-104 -109.5t-34 -132.5q0 -119 82 -203t208 -84q93 0 185 41v200h-165v58h229v-292z" />
    <glyph glyph-name="H" unicode="H" horiz-adv-x="701" 
d="M618 0h-64v326h-407v-326h-64v672h64v-288h407v288h64v-672z" />
    <glyph glyph-name="I" unicode="I" horiz-adv-x="230" 
d="M147 0h-64v672h64v-672z" />
    <glyph glyph-name="J" unicode="J" horiz-adv-x="430" 
d="M360 186q0 -93 -44.5 -145t-126.5 -52q-115 0 -159 117l57 21q8 -33 37.5 -57t65.5 -24q47 0 76.5 32t29.5 104v490h64v-486z" />
    <glyph glyph-name="K" unicode="K" horiz-adv-x="577" 
d="M552 0h-81l-324 355v-355h-64v672h64v-270l289 270h85l-315 -294z" />
    <glyph glyph-name="L" unicode="L" horiz-adv-x="493" 
d="M467 0h-384v672h64v-614h320v-58z" />
    <glyph glyph-name="M" unicode="M" horiz-adv-x="818" 
d="M735 0h-64v570l-262 -323l-262 323v-570h-64v672h64l262 -324l262 324h64v-672z" />
    <glyph glyph-name="N" unicode="N" horiz-adv-x="742" 
d="M659 0h-64l-448 569v-569h-64v672h64l448 -569v569h64v-672z" />
    <glyph glyph-name="O" unicode="O" horiz-adv-x="820" 
d="M757 336q0 -144 -101.5 -245.5t-245.5 -101.5t-245.5 101.5t-101.5 245.5t101.5 245.5t245.5 101.5t245.5 -101.5t101.5 -245.5zM693 336q0 117 -83 201t-200 84t-200 -84t-83 -201t83 -201t200 -84t200 84t83 201z" />
    <glyph glyph-name="P" unicode="P" horiz-adv-x="537" 
d="M505 472q0 -84 -56.5 -145t-159.5 -61h-142v-266h-64v672h201q111 0 166 -59t55 -141zM441 470q0 25 -6.5 48t-22 46t-47 36.5t-75.5 13.5h-143v-290h144q73 0 111.5 44t38.5 102z" />
    <glyph glyph-name="Q" unicode="Q" horiz-adv-x="820" 
d="M757 336q0 -135 -92 -235l86 -78l-39 -43l-89 82q-94 -73 -213 -73q-144 0 -245.5 101.5t-101.5 245.5t101.5 245.5t245.5 101.5t245.5 -101.5t101.5 -245.5zM693 336q0 117 -83 201t-200 84t-200 -84t-83 -201t83 -201t200 -84q90 0 165 54l-76 70l39 43l81 -74
q74 82 74 192z" />
    <glyph glyph-name="R" unicode="R" horiz-adv-x="597" 
d="M564 0h-79l-228 316h-110v-316h-64v672h173q108 0 161 -54.5t53 -116.5q0 -66 -35 -114.5t-104 -64.5zM406 499q0 47 -36 81t-109 34h-114v-240h129q65 0 97.5 33.5t32.5 91.5z" />
    <glyph glyph-name="S" unicode="S" horiz-adv-x="507" 
d="M453 184q0 -84 -58.5 -139.5t-142.5 -55.5q-135 0 -197 131l52 28q48 -102 147 -102q63 0 98 40.5t35 93.5q0 40 -30.5 75.5t-74.5 63.5l-87.5 57.5t-74 69.5t-30.5 87q0 62 46 106t123 44q93 0 152 -84l-46 -37q-17 29 -46 46.5t-63 17.5q-44 0 -72 -26.5t-28 -64.5
q0 -29 22 -57t55 -50l71.5 -49t71.5 -53t55 -63.5t22 -78.5z" />
    <glyph glyph-name="T" unicode="T" horiz-adv-x="570" 
d="M536 614h-219v-614h-64v614h-219v58h502v-58z" />
    <glyph glyph-name="U" unicode="U" horiz-adv-x="722" 
d="M644 255q0 -111 -80 -188.5t-203 -77.5t-203 77.5t-80 188.5v417h64v-420q0 -86 64.5 -145t154.5 -59t154.5 59t64.5 145v420h64v-417z" />
    <glyph glyph-name="V" unicode="V" horiz-adv-x="647" 
d="M624 672l-273 -672h-55l-273 672h69l232 -570l231 570h69z" />
    <glyph glyph-name="W" unicode="W" horiz-adv-x="955" 
d="M922 672l-218 -672h-55l-171 551l-172 -551h-55l-218 672h67l179 -549l171 549h57l171 -549l179 549h65z" />
    <glyph glyph-name="X" unicode="X" horiz-adv-x="693" 
d="M648 0h-77l-231 316l-232 -316h-77l270 368l-223 304h77l185 -251l184 251h77l-223 -304z" />
    <glyph glyph-name="Y" unicode="Y" horiz-adv-x="563" 
d="M540 672l-227 -343v-329h-64v329l-226 343h75l183 -279l184 279h75z" />
    <glyph glyph-name="Z" unicode="Z" horiz-adv-x="629" 
d="M581 672l-427 -614h422v-58h-539l427 614h-391v58h508z" />
    <glyph glyph-name="bracketleft" unicode="[" horiz-adv-x="296" 
d="M271 -148h-179v956h179v-55h-117v-846h117v-55z" />
    <glyph glyph-name="backslash" unicode="\" horiz-adv-x="380" 
d="M342 -129h-58l-246 929h58z" />
    <glyph glyph-name="bracketright" unicode="]" horiz-adv-x="296" 
d="M204 -148h-179v55h117v846h-117v55h179v-956z" />
    <glyph glyph-name="asciicircum" unicode="^" 
d="M497 352h-55l-159 278l-158 -278h-56l186 326h55z" />
    <glyph glyph-name="underscore" unicode="_" horiz-adv-x="413" 
d="M410 -164h-407v55h407v-55z" />
    <glyph glyph-name="grave" unicode="`" horiz-adv-x="500" 
d="M284 508h-72l-134 122h72z" />
    <glyph glyph-name="a" unicode="a" horiz-adv-x="466" 
d="M391 0h-58v48q-69 -59 -144 -59q-65 0 -106.5 35.5t-41.5 92.5q0 83 77 126q59 33 215 33v30q0 107 -103 107q-79 0 -157 -40l12 57q78 33 154 33q71 0 111.5 -38.5t40.5 -115.5v-309zM333 101v126q-135 0 -183 -26q-50 -27 -50 -81q0 -39 27 -60t68 -21q68 0 138 62z
" />
    <glyph glyph-name="b" unicode="b" horiz-adv-x="554" 
d="M501 226q0 -94 -67 -165.5t-169 -71.5q-28 0 -66 14t-67 43v-46h-54v672h58v-253q63 44 129 44q100 0 168 -71t68 -166zM442 226q0 77 -48.5 131t-128.5 54q-60 0 -129 -47v-267q54 -56 129 -56q82 0 129.5 54.5t47.5 130.5z" />
    <glyph glyph-name="c" unicode="c" horiz-adv-x="467" 
d="M440 27q-75 -38 -148 -38q-103 0 -171 71.5t-68 165.5q0 96 70.5 166.5t168.5 70.5q73 0 148 -34v-57q-74 39 -148 39q-79 0 -129.5 -55t-50.5 -130t49 -130t131 -55q40 0 82.5 15t65.5 30v-59z" />
    <glyph glyph-name="d" unicode="d" horiz-adv-x="554" 
d="M476 0h-54v46q-29 -29 -67 -43t-66 -14q-102 0 -169 71.5t-67 165.5q0 95 68 166t168 71q66 0 129 -44v253h58v-672zM418 97v267q-69 47 -129 47q-80 0 -128.5 -54t-48.5 -131q0 -76 47.5 -130.5t129.5 -54.5q75 0 129 56z" />
    <glyph glyph-name="e" unicode="e" horiz-adv-x="520" 
d="M473 219h-362q5 -80 50.5 -129.5t130.5 -49.5q87 0 173 58v-57q-78 -53 -180 -53q-100 0 -166 63.5t-66 177.5q0 92 61 163t160 71q77 0 138 -61.5t61 -177.5v-5zM410 271q-4 57 -41 98.5t-98 41.5q-62 0 -105 -42t-51 -98h295z" />
    <glyph glyph-name="f" unicode="f" horiz-adv-x="347" 
d="M329 611q-42 20 -79 20q-43 0 -67 -21.5t-24 -81.5v-75h149v-50h-149v-403h-58v403h-69v50h69v70q0 83 39.5 121.5t107.5 38.5q41 0 81 -16v-56z" />
    <glyph glyph-name="g" unicode="g" horiz-adv-x="503" 
d="M478 403h-98q18 -18 32 -46.5t14 -54.5q0 -63 -50.5 -110t-125.5 -47q-40 0 -70 11q-46 -32 -46 -52q0 -17 23.5 -26t130.5 -32q99 -21 140.5 -51t41.5 -90q0 -64 -63 -109.5t-166 -45.5q-66 0 -113.5 14.5t-71 37.5t-33.5 44.5t-10 41.5q0 40 30 79t87 67q-55 20 -55 62
q0 37 62 77q-79 47 -79 129q0 68 51 115.5t127 47.5q36 0 72 -12h170v-50zM370 302q0 53 -38 83t-98 30q-58 0 -89 -36t-31 -77q0 -49 37.5 -79t91.5 -30q62 0 94.5 35t32.5 74zM414 -93q0 21 -11 35.5t-35.5 24.5t-47.5 16.5t-65 16t-69 17.5q-61 -35 -89 -62.5t-28 -66.5
q0 -37 41 -62.5t129 -25.5q81 0 128 28t47 79z" />
    <glyph glyph-name="h" unicode="h" horiz-adv-x="545" 
d="M472 0h-58v282q0 61 -40.5 95t-95.5 34q-72 0 -142 -62v-349h-58v672h58v-268q75 59 150 59q78 0 132 -49t54 -137v-277z" />
    <glyph glyph-name="i" unicode="i" horiz-adv-x="226" 
d="M165 596l-52 -52l-52 52l52 52zM142 0h-58v453h58v-453z" />
    <glyph glyph-name="j" unicode="j" horiz-adv-x="229" 
d="M168 606l-52 -52l-52 52l52 52zM147 -95q0 -139 -120 -139q-32 0 -61 11v56q21 -15 60 -15q63 0 63 84v551h58v-548z" />
    <glyph glyph-name="k" unicode="k" horiz-adv-x="470" 
d="M455 0h-85l-234 230v-230h-58v672h58v-403l202 184h86l-227 -205z" />
    <glyph glyph-name="l" unicode="l" horiz-adv-x="322" 
d="M297 13q-44 -24 -87 -24q-58 0 -97.5 35.5t-39.5 124.5v523h58v-528q0 -103 86 -103q46 0 80 28v-56z" />
    <glyph glyph-name="m" unicode="m" horiz-adv-x="850" 
d="M777 0h-58v282q0 58 -38 93.5t-87 35.5q-69 0 -146 -72q9 -29 9 -62v-277h-58v282q0 58 -38 93.5t-87 35.5q-62 0 -138 -64v-347h-58v453h58v-52q74 62 153 62q43 0 80 -22t60 -60q91 82 180 82q69 0 118.5 -52.5t49.5 -133.5v-277z" />
    <glyph glyph-name="n" unicode="n" horiz-adv-x="545" 
d="M472 0h-58v282q0 61 -40.5 95t-95.5 34q-72 0 -142 -62v-349h-58v453h58v-49q75 59 150 59q78 0 132 -49t54 -137v-277z" />
    <glyph glyph-name="o" unicode="o" horiz-adv-x="584" 
d="M531 226q0 -94 -68 -165.5t-171 -71.5t-171 71.5t-68 165.5t68 165.5t171 71.5t171 -71.5t68 -165.5zM472 226q0 75 -49 130t-131 55t-131 -55t-49 -130t49 -130t131 -55t131 55t49 130z" />
    <glyph glyph-name="p" unicode="p" horiz-adv-x="554" 
d="M501 227q0 -95 -68 -166t-168 -71q-66 0 -129 44v-253h-58v672h54v-46q29 29 67 43t66 14q102 0 169 -71.5t67 -165.5zM442 227q0 76 -47.5 130.5t-129.5 54.5q-75 0 -129 -56v-267q69 -47 129 -47q80 0 128.5 54t48.5 131z" />
    <glyph glyph-name="q" unicode="q" horiz-adv-x="554" 
d="M476 -219h-58v253q-63 -44 -129 -44q-100 0 -168 71t-68 166q0 94 67 165.5t169 71.5q28 0 66 -14t67 -43v46h54v-672zM418 89v267q-54 56 -129 56q-82 0 -129.5 -54.5t-47.5 -130.5q0 -77 48.5 -131t128.5 -54q60 0 129 47z" />
    <glyph glyph-name="r" unicode="r" horiz-adv-x="348" 
d="M325 382q-27 26 -70 26q-62 0 -119 -69v-339h-58v453h58v-58q61 66 130 66q32 0 59 -15v-64z" />
    <glyph glyph-name="s" unicode="s" horiz-adv-x="420" 
d="M378 119q0 -62 -49.5 -96.5t-115.5 -34.5q-80 0 -159 35v58q73 -40 164 -40q50 0 76.5 21t26.5 55q0 20 -15.5 36t-58.5 34q-141 59 -161 79q-32 32 -32 72q0 54 43 89.5t120 35.5q52 0 132 -29v-57q-81 35 -138 35q-46 0 -73.5 -19.5t-27.5 -48.5q0 -21 15.5 -37
t61.5 -34q83 -34 107.5 -45.5t44.5 -28.5q39 -31 39 -80z" />
    <glyph glyph-name="t" unicode="t" horiz-adv-x="370" 
d="M347 16q-52 -27 -108 -27q-54 0 -95.5 35t-41.5 117v262h-70v50h70v112h58v-112h166v-50h-166v-259q0 -56 26.5 -80t64.5 -24q54 0 96 32v-56z" />
    <glyph glyph-name="u" unicode="u" horiz-adv-x="547" 
d="M469 0h-58v49q-75 -59 -150 -59q-78 0 -132 49t-54 137v277h58v-282q0 -61 40.5 -95t95.5 -34q72 0 142 62v349h58v-453z" />
    <glyph glyph-name="v" unicode="v" horiz-adv-x="482" 
d="M467 453l-201 -453h-50l-201 453h66l160 -374l160 374h66z" />
    <glyph glyph-name="w" unicode="w" horiz-adv-x="716" 
d="M699 453l-175 -453h-47l-119 349l-119 -349h-47l-175 453h65l132 -355l120 355h48l120 -355l132 355h65z" />
    <glyph glyph-name="x" unicode="x" horiz-adv-x="479" 
d="M456 0h-70l-146 198l-147 -198h-70l181 239l-161 214h70l127 -173l126 173h70l-162 -213z" />
    <glyph glyph-name="y" unicode="y" horiz-adv-x="490" 
d="M471 453l-276 -560q-34 -69 -68 -96.5t-86 -27.5q-29 0 -50 7v53q21 -9 51 -9q31 0 54 21t50 77l69 141l-195 394h66l160 -334l158 334h67z" />
    <glyph glyph-name="z" unicode="z" horiz-adv-x="489" 
d="M444 0h-405l291 397h-259v56h371l-290 -397h292v-56z" />
    <glyph glyph-name="braceleft" unicode="{" horiz-adv-x="293" 
d="M268 -148h-8q-83 0 -118.5 33.5t-35.5 120.5v234q0 39 -53 75v30q53 36 53 75v234q0 87 35.5 120.5t118.5 33.5h8v-55q-58 0 -80 -16t-22 -74v-192q0 -61 -7.5 -88.5t-35.5 -52.5q28 -25 35.5 -52.5t7.5 -88.5v-192q0 -58 22 -74t80 -16v-55z" />
    <glyph glyph-name="bar" unicode="|" horiz-adv-x="239" 
d="M147 -236h-55v914h55v-914z" />
    <glyph glyph-name="braceright" unicode="}" horiz-adv-x="293" 
d="M240 315q-53 -36 -53 -75v-234q0 -87 -35.5 -120.5t-118.5 -33.5h-8v55q58 0 80 16t22 74v192q0 61 7.5 88.5t35.5 52.5q-28 25 -35.5 52.5t-7.5 88.5v192q0 58 -22 74t-80 16v55h8q83 0 118.5 -33.5t35.5 -120.5v-234q0 -39 53 -75v-30z" />
    <glyph glyph-name="asciitilde" unicode="~" 
d="M501 344q-66 -69 -127 -69q-33 0 -92 31.5t-91 31.5q-46 0 -126 -80v74q70 70 127 70q23 0 45.5 -8t52 -24.5t41.5 -21.5q23 -10 44 -10q47 0 126 79v-73z" />
    <glyph glyph-name="uni00A0" unicode="&#xa0;" 
 />
    <glyph glyph-name="exclamdown" unicode="&#xa1;" horiz-adv-x="242" 
d="M174 419l-53 -53l-53 53l53 53zM155 -212h-75v137l17 376h41l17 -376v-137z" />
    <glyph glyph-name="cent" unicode="&#xa2;" 
d="M475 27q-62 -32 -129 -37v-85h-51v86q-91 12 -149 80.5t-58 154.5q0 88 59.5 155.5t147.5 79.5v86h51v-85q66 -4 129 -33v-57q-63 34 -129 38v-368q73 7 129 44v-59zM295 43v365q-66 -11 -107 -63t-41 -119t40 -119.5t108 -63.5z" />
    <glyph glyph-name="sterling" unicode="&#xa3;" 
d="M478 57l-24 -57h-390q31 35 49 91t22 94.5t7 105.5h-73l24 54h52q9 157 17 192q15 72 60 106.5t99 34.5q80 0 150 -68l-30 -52q-51 64 -119 64q-59 0 -87 -51q-19 -35 -28 -226h189l-24 -54h-167q-8 -160 -47 -234h320z" />
    <glyph glyph-name="currency" unicode="&#xa4;" horiz-adv-x="639" 
d="M537 173l-35 -36l-67 67q-49 -41 -117 -41t-117 41l-67 -67l-35 36l67 65q-40 56 -40 116q0 68 40 116l-30.5 30l-36.5 36l35 36l67 -67q53 40 117 40q70 0 117 -40l67 67l35 -36l-36.5 -36l-30.5 -30q40 -52 40 -116q0 -63 -40 -116zM460 355q0 61 -43 100.5t-98 39.5
q-61 0 -102 -41.5t-41 -98.5q0 -58 42 -100t100 -42t100 42t42 100z" />
    <glyph glyph-name="yen" unicode="&#xa5;" 
d="M535 672l-213 -322h121v-54h-135v-85h135v-54h-135v-157h-64v157h-135v54h135v85h-135v54h121l-212 322h75l183 -279l184 279h75z" />
    <glyph glyph-name="brokenbar" unicode="&#xa6;" horiz-adv-x="239" 
d="M147 426h-55v382h55v-382zM147 -148h-55v382h55v-382z" />
    <glyph glyph-name="section" unicode="&#xa7;" horiz-adv-x="523" 
d="M470 208q0 -53 -42 -90.5t-95 -56.5q58 -33 90 -66.5t32 -76.5q0 -65 -53 -111.5t-137 -46.5q-71 0 -120.5 25.5t-91.5 78.5l49 36q63 -84 161 -84q62 0 94.5 29t32.5 65q0 32 -33.5 61.5t-81 53.5l-94.5 50t-80.5 62.5t-33.5 79.5q0 95 145 156q-108 75 -108 152
q0 72 51.5 115t118.5 43q45 0 87.5 -23.5t68.5 -65.5l-48 -34q-15 30 -47.5 48.5t-62.5 18.5q-49 0 -77.5 -29.5t-28.5 -63.5q0 -36 31.5 -69.5t76 -60l89 -54.5t76 -64.5t31.5 -77.5zM407 204q0 8 -2.5 16.5t-8 17t-11 15t-16 15l-17.5 14t-21.5 15l-22 14.5t-24.5 15.5
t-24 14.5q-130 -60 -130 -122q0 -13 5 -24.5t18.5 -24.5t22.5 -20.5t33 -21.5t33.5 -19l39.5 -21q125 51 125 116z" />
    <glyph glyph-name="dieresis" unicode="&#xa8;" horiz-adv-x="500" 
d="M362 537h-75v75h75v-75zM213 537h-75v75h75v-75z" />
    <glyph glyph-name="copyright" unicode="&#xa9;" horiz-adv-x="718" 
d="M678 305q0 -132 -93.5 -225.5t-225.5 -93.5t-225.5 93.5t-93.5 225.5t93.5 225.5t225.5 93.5t225.5 -93.5t93.5 -225.5zM633 305q0 113 -80.5 193.5t-193.5 80.5t-193.5 -80.5t-80.5 -193.5t80.5 -193.5t193.5 -80.5t193.5 80.5t80.5 193.5zM492 153q-57 -41 -132 -41
q-86 0 -134.5 58.5t-48.5 135.5q0 82 52 138t136 56q63 0 127 -35v-53q-68 40 -127 40q-66 0 -100.5 -47t-34.5 -99q0 -60 32.5 -103t97.5 -43t132 47v-54z" />
    <glyph glyph-name="ordfeminine" unicode="&#xaa;" horiz-adv-x="321" 
d="M256 377h-50v22q-41 -29 -81 -29q-42 0 -69.5 24t-27.5 62q0 56 51 85q35 19 127 21v11q0 59 -56 59q-46 0 -105 -31l11 54q56 23 100 23q46 0 73 -26.5t27 -76.5v-198zM206 449v68q-79 -2 -101 -15q-27 -16 -27 -44q0 -20 14 -31.5t37 -11.5q38 0 77 34z" />
    <glyph glyph-name="guillemotleft" unicode="&#xab;" horiz-adv-x="459" 
d="M426 35h-70l-148 191l148 191h70l-148 -191zM236 35h-70l-148 191l148 191h70l-148 -191z" />
    <glyph glyph-name="logicalnot" unicode="&#xac;" 
d="M487 193h-56v188h-352v55h408v-243z" />
    <glyph glyph-name="uni00AD" unicode="&#xad;" horiz-adv-x="433" 
d="M381 223h-329v55h329v-55z" />
    <glyph glyph-name="registered" unicode="&#xae;" horiz-adv-x="357" 
d="M315 551q0 -55 -40.5 -94.5t-96.5 -39.5t-96 39.5t-40 94.5t40 94.5t96 39.5t96.5 -39.5t40.5 -94.5zM286 551q0 43 -32 74t-76 31t-75.5 -31t-31.5 -74t31.5 -74t75.5 -31t76 31t32 74zM246 481h-34l-40 63h-12v-63h-30v149h46q27 0 40.5 -12.5t13.5 -28.5
q0 -31 -27 -41zM203 589q0 16 -25 16h-18v-34h22q21 0 21 18z" />
    <glyph glyph-name="macron" unicode="&#xaf;" horiz-adv-x="500" 
d="M379 538h-260v52h260v-52z" />
    <glyph glyph-name="degree" unicode="&#xb0;" horiz-adv-x="326" 
d="M283 566q0 -50 -35.5 -85t-84.5 -35t-84.5 35t-35.5 85t35.5 85t84.5 35t84.5 -35t35.5 -85zM232 566q0 29 -20 49t-49 20t-49 -20t-20 -49t20 -49t49 -20t49 20t20 49z" />
    <glyph glyph-name="plusminus" unicode="&#xb1;" 
d="M487 310h-176v-186h-55v186h-177v55h176v186h55v-186h177v-55zM487 22h-408v55h408v-55z" />
    <glyph glyph-name="twosuperior" unicode="&#xb2;" horiz-adv-x="374" 
d="M300 270h-251q49 62 117 167q67 102 67 135q0 30 -20.5 46t-46.5 16q-30 0 -53 -13t-52 -41v54q55 43 111 43q47 0 79 -29.5t32 -75.5q0 -39 -43 -110q-40 -63 -102 -149h162v-43z" />
    <glyph glyph-name="threesuperior" unicode="&#xb3;" horiz-adv-x="374" 
d="M314 394q0 -50 -41 -89t-102 -39q-71 0 -126 60l32 33q44 -49 94 -49q42 0 67 26.5t25 57.5q0 42 -29.5 66t-68.5 24q-12 0 -28 -3l88 149h-170v43h251l-92 -155q40 -8 70 -41t30 -83z" />
    <glyph glyph-name="acute" unicode="&#xb4;" horiz-adv-x="500" 
d="M421 630l-134 -122h-72l134 122h72z" />
    <glyph glyph-name="mu" unicode="&#xb5;" horiz-adv-x="551" 
d="M513 522l-79 -368q-11 -49 -11 -66q0 -32 35 -32q8 0 17 1l-13 -61q-21 -5 -45 -5q-34 0 -51 17t-20 55q-42 -72 -141 -72q-85 0 -128 67l-55 -266h-76l154 730h77l-62 -291q-7 -31 -7 -67q0 -53 27.5 -82t78.5 -29q121 0 164 200l59 269h76z" />
    <glyph glyph-name="paragraph" unicode="&#xb6;" horiz-adv-x="579" 
d="M506 -150h-57v770h-95v-770h-57v385q-101 0 -146 31q-41 28 -66 76t-25 105q0 130 93 195q43 30 163 30h190v-822z" />
    <glyph glyph-name="periodcentered" unicode="&#xb7;" horiz-adv-x="210" 
d="M143 299h-76v77h76v-77z" />
    <glyph glyph-name="cedilla" unicode="&#xb8;" horiz-adv-x="500" 
d="M320 -126q0 -37 -30 -66.5t-88 -29.5q-18 0 -28 2v47q12 -7 31 -7q31 0 47 16t16 35q0 50 -61 52l17 80h46l-12 -52q23 -3 42.5 -23t19.5 -54z" />
    <glyph glyph-name="onesuperior" unicode="&#xb9;" horiz-adv-x="374" 
d="M215 270h-56v383l56 34v-417z" />
    <glyph glyph-name="ordmasculine" unicode="&#xba;" horiz-adv-x="397" 
d="M354 524q0 -61 -44.5 -107.5t-111.5 -46.5t-111 46.5t-44 107.5t44 107.5t111 46.5t111.5 -46.5t44.5 -107.5zM303 524q0 44 -28.5 75.5t-76.5 31.5t-76 -31.5t-28 -75.5t28 -75.5t76 -31.5t76.5 31.5t28.5 75.5z" />
    <glyph glyph-name="guillemotright" unicode="&#xbb;" horiz-adv-x="459" 
d="M441 226l-148 -191h-70l148 191l-148 191h70zM251 226l-148 -191h-70l148 191l-148 191h70z" />
    <glyph glyph-name="onequarter" unicode="&#xbc;" horiz-adv-x="747" 
d="M706 120h-70v-120h-56v120h-240l296 304v-255h70v-49zM416 684l-184 -695h-48l184 695h48zM138 270h-56v380l56 34v-414zM580 169v126l-123 -126h123z" />
    <glyph glyph-name="onehalf" unicode="&#xbd;" horiz-adv-x="747" 
d="M685 0h-251q55 70 118 167q66 100 66 135q0 30 -20 46t-46 16q-29 0 -52.5 -13t-53.5 -41v54q55 43 112 43q47 0 78.5 -29.5t31.5 -75.5q0 -41 -43 -110q-29 -49 -102 -149h162v-43zM416 684l-184 -695h-48l184 695h48zM138 270h-56v380l56 34v-414z" />
    <glyph glyph-name="threequarters" unicode="&#xbe;" horiz-adv-x="850" 
d="M809 120h-70v-120h-56v120h-240l296 304v-255h70v-49zM519 684l-184 -695h-48l184 695h48zM314 394q0 -50 -41 -89t-102 -39q-71 0 -126 60l32 33q44 -49 94 -49q42 0 67 26.5t25 57.5q0 42 -29.5 66t-68.5 24q-12 0 -28 -3l88 149h-170v43h251l-92 -155q40 -8 70 -41
t30 -83zM683 169v126l-123 -126h123z" />
    <glyph glyph-name="questiondown" unicode="&#xbf;" horiz-adv-x="446" 
d="M280 426l-53 -53l-53 53l53 53zM394 -94q-65 -118 -188 -118q-78 0 -125.5 48t-47.5 111q0 79 89 163q69 66 86 85.5t17 35.5q0 25 -44 67l44 44q41 -44 54 -66.5t13 -42.5q0 -27 -24 -58.5t-83 -84.5q-87 -78 -87 -144q0 -46 35.5 -74.5t79.5 -28.5q40 0 74.5 23.5
t56.5 68.5z" />
    <glyph glyph-name="Agrave" unicode="&#xc0;" horiz-adv-x="660" 
d="M364 728h-72l-134 122h72zM638 0h-63l-87 205h-316l-87 -205h-63l284 672h48zM464 263l-134 317l-134 -317h268z" />
    <glyph glyph-name="Aacute" unicode="&#xc1;" horiz-adv-x="660" 
d="M501 850l-134 -122h-72l134 122h72zM638 0h-63l-87 205h-316l-87 -205h-63l284 672h48zM464 263l-134 317l-134 -317h268z" />
    <glyph glyph-name="Acircumflex" unicode="&#xc2;" horiz-adv-x="660" 
d="M466 728h-67l-70 80l-67 -80h-67l103 122h65zM638 0h-63l-87 205h-316l-87 -205h-63l284 672h48zM464 263l-134 317l-134 -317h268z" />
    <glyph glyph-name="Atilde" unicode="&#xc3;" horiz-adv-x="660" 
d="M492 840q-4 -47 -19 -68.5t-45 -21.5t-97.5 17.5t-83.5 17.5q-24 0 -27 -40h-51q3 46 19.5 68t53.5 22q24 0 89 -17.5t83 -17.5q24 0 27 40h51zM638 0h-63l-87 205h-316l-87 -205h-63l284 672h48zM464 263l-134 317l-134 -317h268z" />
    <glyph glyph-name="Adieresis" unicode="&#xc4;" horiz-adv-x="660" 
d="M442 757h-75v75h75v-75zM293 757h-75v75h75v-75zM638 0h-63l-87 205h-316l-87 -205h-63l284 672h48zM464 263l-134 317l-134 -317h268z" />
    <glyph glyph-name="Aring" unicode="&#xc5;" horiz-adv-x="660" 
d="M427 826q0 -40 -28.5 -68.5t-68.5 -28.5t-68.5 28.5t-28.5 68.5t28.5 68.5t68.5 28.5t68.5 -28.5t28.5 -68.5zM638 0h-63l-87 205h-316l-87 -205h-63l284 672h48zM388 826q0 24 -17 41t-41 17t-41 -17t-17 -41t17 -41t41 -17t41 17t17 41zM464 263l-134 317l-134 -317
h268z" />
    <glyph glyph-name="AE" unicode="&#xc6;" horiz-adv-x="939" 
d="M889 0h-410v209h-254l-131 -209h-72l423 672h434v-58h-336v-230h267v-58h-267v-268h346v-58zM479 267v347l-218 -347h218z" />
    <glyph glyph-name="Ccedilla" unicode="&#xc7;" horiz-adv-x="714" 
d="M666 56q-120 -64 -238 -67l-13 -50q25 -5 46 -28t21 -60q0 -44 -33.5 -76t-80.5 -32q-24 0 -49 7v45q15 -6 43 -6q27 0 46 18t19 46q0 53 -67 56l20 82q-137 12 -227 107.5t-90 237.5q0 147 105 247t256 100q117 0 242 -61v-66q-115 67 -242 67q-89 0 -159 -45
t-104 -109.5t-34 -132.5q0 -119 82 -203t208 -84q131 0 249 74v-67z" />
    <glyph glyph-name="Egrave" unicode="&#xc8;" horiz-adv-x="543" 
d="M342 728h-72l-134 122h72zM493 0h-410v672h400v-58h-336v-230h267v-58h-267v-268h346v-58z" />
    <glyph glyph-name="Eacute" unicode="&#xc9;" horiz-adv-x="543" 
d="M419 850l-134 -122h-72l134 122h72zM493 0h-410v672h400v-58h-336v-230h267v-58h-267v-268h346v-58z" />
    <glyph glyph-name="Ecircumflex" unicode="&#xca;" horiz-adv-x="543" 
d="M414 728h-67l-70 80l-67 -80h-67l103 122h65zM493 0h-410v672h400v-58h-336v-230h267v-58h-267v-268h346v-58z" />
    <glyph glyph-name="Edieresis" unicode="&#xcb;" horiz-adv-x="543" 
d="M390 757h-75v75h75v-75zM241 757h-75v75h75v-75zM493 0h-410v672h400v-58h-336v-230h267v-58h-267v-268h346v-58z" />
    <glyph glyph-name="Igrave" unicode="&#xcc;" horiz-adv-x="230" 
d="M149 728h-72l-134 122h72zM147 0h-64v672h64v-672z" />
    <glyph glyph-name="Iacute" unicode="&#xcd;" horiz-adv-x="230" 
d="M286 850l-134 -122h-72l134 122h72zM147 0h-64v672h64v-672z" />
    <glyph glyph-name="Icircumflex" unicode="&#xce;" horiz-adv-x="230" 
d="M251 728h-67l-70 80l-67 -80h-67l103 122h65zM147 0h-64v672h64v-672z" />
    <glyph glyph-name="Idieresis" unicode="&#xcf;" horiz-adv-x="230" 
d="M227 757h-75v75h75v-75zM78 757h-75v75h75v-75zM147 0h-64v672h64v-672z" />
    <glyph glyph-name="Eth" unicode="&#xd0;" horiz-adv-x="700" 
d="M637 336q0 -146 -103.5 -241t-254.5 -95h-196v326h-88v58h88v288h196q150 0 254 -96t104 -240zM573 336q0 116 -86 197t-218 81h-122v-230h192v-58h-192v-268h112q136 0 225 76t89 202z" />
    <glyph glyph-name="Ntilde" unicode="&#xd1;" horiz-adv-x="742" 
d="M533 840q-4 -47 -19 -68.5t-45 -21.5t-97.5 17.5t-83.5 17.5q-24 0 -27 -40h-51q3 46 19.5 68t53.5 22q25 0 89 -17.5t83 -17.5q24 0 27 40h51zM659 0h-64l-448 569v-569h-64v672h64l448 -569v569h64v-672z" />
    <glyph glyph-name="Ograve" unicode="&#xd2;" horiz-adv-x="820" 
d="M474 728h-72l-134 122h72zM757 336q0 -144 -101.5 -245.5t-245.5 -101.5t-245.5 101.5t-101.5 245.5t101.5 245.5t245.5 101.5t245.5 -101.5t101.5 -245.5zM693 336q0 117 -83 201t-200 84t-200 -84t-83 -201t83 -201t200 -84t200 84t83 201z" />
    <glyph glyph-name="Oacute" unicode="&#xd3;" horiz-adv-x="820" 
d="M551 850l-134 -122h-72l134 122h72zM757 336q0 -144 -101.5 -245.5t-245.5 -101.5t-245.5 101.5t-101.5 245.5t101.5 245.5t245.5 101.5t245.5 -101.5t101.5 -245.5zM693 336q0 117 -83 201t-200 84t-200 -84t-83 -201t83 -201t200 -84t200 84t83 201z" />
    <glyph glyph-name="Ocircumflex" unicode="&#xd4;" horiz-adv-x="820" 
d="M546 728h-67l-70 80l-67 -80h-67l103 122h65zM757 336q0 -144 -101.5 -245.5t-245.5 -101.5t-245.5 101.5t-101.5 245.5t101.5 245.5t245.5 101.5t245.5 -101.5t101.5 -245.5zM693 336q0 117 -83 201t-200 84t-200 -84t-83 -201t83 -201t200 -84t200 84t83 201z" />
    <glyph glyph-name="Otilde" unicode="&#xd5;" horiz-adv-x="820" 
d="M572 840q-4 -47 -19 -68.5t-45 -21.5t-97.5 17.5t-83.5 17.5q-24 0 -27 -40h-51q3 46 19.5 68t53.5 22q24 0 88.5 -17.5t83.5 -17.5q24 0 27 40h51zM757 336q0 -144 -101.5 -245.5t-245.5 -101.5t-245.5 101.5t-101.5 245.5t101.5 245.5t245.5 101.5t245.5 -101.5
t101.5 -245.5zM693 336q0 117 -83 201t-200 84t-200 -84t-83 -201t83 -201t200 -84t200 84t83 201z" />
    <glyph glyph-name="Odieresis" unicode="&#xd6;" horiz-adv-x="820" 
d="M522 757h-75v75h75v-75zM373 757h-75v75h75v-75zM757 336q0 -144 -101.5 -245.5t-245.5 -101.5t-245.5 101.5t-101.5 245.5t101.5 245.5t245.5 101.5t245.5 -101.5t101.5 -245.5zM693 336q0 117 -83 201t-200 84t-200 -84t-83 -201t83 -201t200 -84t200 84t83 201z" />
    <glyph glyph-name="multiply" unicode="&#xd7;" 
d="M454 206l-39 -39l-131 132l-132 -132l-39 39l131 131l-132 132l39 38l131 -131l133 132l38 -38l-131 -132z" />
    <glyph glyph-name="Oslash" unicode="&#xd8;" horiz-adv-x="820" 
d="M757 336q0 -144 -101.5 -245.5t-245.5 -101.5q-103 0 -192 58l-62 -80l-42 33l62 80q-53 48 -83 115t-30 141q0 144 101.5 245.5t245.5 101.5q103 0 192 -58l62 80l42 -33l-62 -80q53 -48 83 -115t30 -141zM693 336q0 121 -88 206l-348 -446q68 -45 153 -45q117 0 200 84
t83 201zM563 576q-68 45 -153 45q-117 0 -200 -84t-83 -201q0 -121 88 -206z" />
    <glyph glyph-name="Ugrave" unicode="&#xd9;" horiz-adv-x="722" 
d="M425 728h-72l-134 122h72zM644 255q0 -111 -80 -188.5t-203 -77.5t-203 77.5t-80 188.5v417h64v-420q0 -86 64.5 -145t154.5 -59t154.5 59t64.5 145v420h64v-417z" />
    <glyph glyph-name="Uacute" unicode="&#xda;" horiz-adv-x="722" 
d="M502 850l-134 -122h-72l134 122h72zM644 255q0 -111 -80 -188.5t-203 -77.5t-203 77.5t-80 188.5v417h64v-420q0 -86 64.5 -145t154.5 -59t154.5 59t64.5 145v420h64v-417z" />
    <glyph glyph-name="Ucircumflex" unicode="&#xdb;" horiz-adv-x="722" 
d="M497 728h-67l-70 80l-67 -80h-67l103 122h65zM644 255q0 -111 -80 -188.5t-203 -77.5t-203 77.5t-80 188.5v417h64v-420q0 -86 64.5 -145t154.5 -59t154.5 59t64.5 145v420h64v-417z" />
    <glyph glyph-name="Udieresis" unicode="&#xdc;" horiz-adv-x="722" 
d="M473 757h-75v75h75v-75zM324 757h-75v75h75v-75zM644 255q0 -111 -80 -188.5t-203 -77.5t-203 77.5t-80 188.5v417h64v-420q0 -86 64.5 -145t154.5 -59t154.5 59t64.5 145v420h64v-417z" />
    <glyph glyph-name="Yacute" unicode="&#xdd;" horiz-adv-x="563" 
d="M453 850l-134 -122h-72l134 122h72zM540 672l-227 -343v-329h-64v329l-226 343h75l183 -279l184 279h75z" />
    <glyph glyph-name="Thorn" unicode="&#xde;" horiz-adv-x="537" 
d="M505 339q0 -84 -56.5 -145t-159.5 -61h-142v-133h-64v672h64v-133h137q111 0 166 -59t55 -141zM441 337q0 25 -6.5 48t-22 46t-47 36.5t-75.5 13.5h-143v-290h144q73 0 111.5 44t38.5 102z" />
    <glyph glyph-name="germandbls" unicode="&#xdf;" horiz-adv-x="528" 
d="M465 196q0 -75 -58 -137.5t-149 -62.5q-41 0 -70 9v56q27 -13 68 -13q60 0 104.5 41.5t44.5 107.5q0 71 -48.5 117.5t-133.5 46.5h-35v50h14q158 0 158 120q0 39 -32.5 70t-82.5 31q-46 0 -80 -31t-34 -99v-502h-58v487q0 55 15.5 95.5t42 61t55.5 30t61 9.5
q80 0 126 -49t46 -110q0 -45 -26 -81t-75 -54q61 -16 104 -65t43 -128z" />
    <glyph glyph-name="agrave" unicode="&#xe0;" horiz-adv-x="466" 
d="M297 508h-72l-134 122h72zM391 0h-58v48q-69 -59 -144 -59q-61 0 -104.5 34.5t-43.5 93.5q0 81 77 126q57 33 215 33v30q0 107 -103 107q-79 0 -157 -40l12 57q77 33 154 33q74 0 113 -40t39 -114v-309zM333 101v126q-136 0 -183 -26q-50 -27 -50 -81q0 -39 27.5 -60
t67.5 -21q69 0 138 62z" />
    <glyph glyph-name="aacute" unicode="&#xe1;" horiz-adv-x="466" 
d="M374 630l-134 -122h-72l134 122h72zM391 0h-58v48q-69 -59 -144 -59q-61 0 -104.5 34.5t-43.5 93.5q0 81 77 126q57 33 215 33v30q0 107 -103 107q-79 0 -157 -40l12 57q77 33 154 33q74 0 113 -40t39 -114v-309zM333 101v126q-136 0 -183 -26q-50 -27 -50 -81
q0 -39 27.5 -60t67.5 -21q69 0 138 62z" />
    <glyph glyph-name="acircumflex" unicode="&#xe2;" horiz-adv-x="466" 
d="M369 508h-67l-70 80l-67 -80h-67l103 122h65zM391 0h-58v48q-69 -59 -144 -59q-61 0 -104.5 34.5t-43.5 93.5q0 81 77 126q57 33 215 33v30q0 107 -103 107q-79 0 -157 -40l12 57q77 33 154 33q74 0 113 -40t39 -114v-309zM333 101v126q-136 0 -183 -26q-50 -27 -50 -81
q0 -39 27.5 -60t67.5 -21q69 0 138 62z" />
    <glyph glyph-name="atilde" unicode="&#xe3;" horiz-adv-x="466" 
d="M395 620q-4 -47 -19 -68.5t-45 -21.5t-97.5 17.5t-83.5 17.5q-24 0 -27 -40h-51q3 46 19.5 68t53.5 22q25 0 89 -17.5t83 -17.5q24 0 27 40h51zM391 0h-58v48q-69 -59 -144 -59q-65 0 -106.5 35.5t-41.5 92.5q0 83 77 126q59 33 215 33v30q0 107 -103 107q-79 0 -157 -40
l12 57q78 33 154 33q71 0 111.5 -38.5t40.5 -115.5v-309zM333 101v126q-135 0 -183 -26q-50 -27 -50 -81q0 -39 27 -60t68 -21q68 0 138 62z" />
    <glyph glyph-name="adieresis" unicode="&#xe4;" horiz-adv-x="466" 
d="M345 537h-75v75h75v-75zM196 537h-75v75h75v-75zM391 0h-58v48q-69 -59 -144 -59q-65 0 -106.5 35.5t-41.5 92.5q0 83 77 126q59 33 215 33v30q0 107 -103 107q-79 0 -157 -40l12 57q78 33 154 33q71 0 111.5 -38.5t40.5 -115.5v-309zM333 101v126q-135 0 -183 -26
q-50 -27 -50 -81q0 -39 27 -60t68 -21q68 0 138 62z" />
    <glyph glyph-name="aring" unicode="&#xe5;" horiz-adv-x="466" 
d="M332 605q0 -41 -28 -69t-69 -28t-69 28t-28 69t28 69t69 28t69 -28t28 -69zM391 0h-58v48q-69 -59 -144 -59q-65 0 -106.5 35.5t-41.5 92.5q0 83 77 126q59 33 215 33v30q0 107 -103 107q-79 0 -157 -40l12 57q78 33 154 33q71 0 111.5 -38.5t40.5 -115.5v-309zM293 605
q0 24 -17 41t-41 17t-41 -17t-17 -41t17 -41t41 -17t41 17t17 41zM333 101v126q-135 0 -183 -26q-50 -27 -50 -81q0 -39 27 -60t68 -21q68 0 138 62z" />
    <glyph glyph-name="ae" unicode="&#xe6;" horiz-adv-x="802" 
d="M755 219h-362q5 -80 50.5 -129.5t130.5 -49.5q87 0 173 58v-57q-78 -53 -180 -53q-122 0 -186 87q-97 -86 -192 -86q-65 0 -106.5 35.5t-41.5 92.5q0 81 78 124q55 30 215 30v35q0 107 -104 107q-79 0 -157 -40l12 57q78 33 154 33q112 0 142 -89q65 89 175 89
q77 0 138 -61.5t61 -177.5v-5zM692 271q-4 57 -41 98.5t-98 41.5q-62 0 -105 -42t-51 -98h295zM356 118q-20 44 -21 102q-146 0 -185 -21q-50 -27 -50 -79q0 -39 27 -60t68 -21q79 0 161 79z" />
    <glyph glyph-name="ccedilla" unicode="&#xe7;" horiz-adv-x="467" 
d="M440 27q-69 -36 -141 -38l-8 -38q23 -3 42.5 -23t19.5 -54q0 -37 -30 -66.5t-88 -29.5q-18 0 -28 2v47q12 -7 31 -7q31 0 47 16t16 35q0 50 -61 52l14 69q-88 14 -144.5 82t-56.5 152q0 96 70.5 166.5t168.5 70.5q73 0 148 -34v-57q-74 39 -148 39q-79 0 -129.5 -55
t-50.5 -130t49 -130t131 -55q40 0 82.5 15t65.5 30v-59z" />
    <glyph glyph-name="egrave" unicode="&#xe8;" horiz-adv-x="520" 
d="M333 508h-72l-134 122h72zM473 219h-362q5 -83 51.5 -131t129.5 -48q86 0 173 58v-57q-77 -53 -180 -53q-107 0 -169.5 67t-62.5 174q0 97 62.5 165.5t158.5 68.5q45 0 87 -22q57 -31 84.5 -89t27.5 -128v-5zM410 271q-5 60 -42.5 100t-96.5 40t-103.5 -40.5t-52.5 -99.5
h295z" />
    <glyph glyph-name="eacute" unicode="&#xe9;" horiz-adv-x="520" 
d="M410 630l-134 -122h-72l134 122h72zM473 219h-362q5 -83 51.5 -131t129.5 -48q86 0 173 58v-57q-77 -53 -180 -53q-107 0 -169.5 67t-62.5 174q0 97 62.5 165.5t158.5 68.5q45 0 87 -22q57 -31 84.5 -89t27.5 -128v-5zM410 271q-5 60 -42.5 100t-96.5 40t-103.5 -40.5
t-52.5 -99.5h295z" />
    <glyph glyph-name="ecircumflex" unicode="&#xea;" horiz-adv-x="520" 
d="M405 508h-67l-70 80l-67 -80h-67l103 122h65zM473 219h-362q5 -83 51.5 -131t129.5 -48q86 0 173 58v-57q-77 -53 -180 -53q-107 0 -169.5 67t-62.5 174q0 97 62.5 165.5t158.5 68.5q45 0 87 -22q57 -31 84.5 -89t27.5 -128v-5zM410 271q-5 60 -42.5 100t-96.5 40
t-103.5 -40.5t-52.5 -99.5h295z" />
    <glyph glyph-name="edieresis" unicode="&#xeb;" horiz-adv-x="520" 
d="M381 537h-75v75h75v-75zM232 537h-75v75h75v-75zM473 219h-362q5 -80 50.5 -129.5t130.5 -49.5q87 0 173 58v-57q-78 -53 -180 -53q-100 0 -166 63.5t-66 177.5q0 92 61 163t160 71q77 0 138 -61.5t61 -177.5v-5zM410 271q-4 57 -41 98.5t-98 41.5q-62 0 -105 -42
t-51 -98h295z" />
    <glyph glyph-name="igrave" unicode="&#xec;" horiz-adv-x="226" 
d="M147 508h-72l-134 122h72zM142 0h-58v453h58v-453z" />
    <glyph glyph-name="iacute" unicode="&#xed;" horiz-adv-x="226" 
d="M284 630l-134 -122h-72l134 122h72zM142 0h-58v453h58v-453z" />
    <glyph glyph-name="icircumflex" unicode="&#xee;" horiz-adv-x="226" 
d="M249 508h-67l-70 80l-67 -80h-67l103 122h65zM142 0h-58v453h58v-453z" />
    <glyph glyph-name="idieresis" unicode="&#xef;" horiz-adv-x="226" 
d="M225 537h-75v75h75v-75zM76 537h-75v75h75v-75zM142 0h-58v453h58v-453z" />
    <glyph glyph-name="eth" unicode="&#xf0;" horiz-adv-x="552" 
d="M499 243q0 -108 -58 -181t-160 -73q-106 0 -167 70t-61 167t66 165t162 68q68 0 126 -46q-30 66 -82 145l-101 -45l-19 43l94 42q-34 48 -56 74h71q12 -16 36 -52l111 50l19 -43l-104 -46q123 -193 123 -338zM442 226q0 63 -15 113q-73 68 -146 68q-78 0 -123.5 -54.5
t-45.5 -126.5q0 -73 44 -129t125 -56q73 0 117 55t44 130z" />
    <glyph glyph-name="ntilde" unicode="&#xf1;" horiz-adv-x="545" 
d="M437 620q-4 -47 -19 -68.5t-45 -21.5t-97.5 17.5t-83.5 17.5q-24 0 -27 -40h-51q3 46 19.5 68t53.5 22q24 0 88.5 -17.5t83.5 -17.5q24 0 27 40h51zM472 0h-58v282q0 61 -40.5 95t-95.5 34q-72 0 -142 -62v-349h-58v453h58v-49q75 59 150 59q78 0 132 -49t54 -137v-277z
" />
    <glyph glyph-name="ograve" unicode="&#xf2;" horiz-adv-x="584" 
d="M356 508h-72l-134 122h72zM531 226q0 -98 -70.5 -167.5t-168.5 -69.5t-168.5 69.5t-70.5 167.5t70.5 167.5t168.5 69.5t168.5 -69.5t70.5 -167.5zM472 226q0 79 -50.5 132t-129.5 53t-129.5 -53t-50.5 -132t50.5 -132t129.5 -53t129.5 53t50.5 132z" />
    <glyph glyph-name="oacute" unicode="&#xf3;" horiz-adv-x="584" 
d="M433 630l-134 -122h-72l134 122h72zM531 226q0 -98 -70.5 -167.5t-168.5 -69.5t-168.5 69.5t-70.5 167.5t70.5 167.5t168.5 69.5t168.5 -69.5t70.5 -167.5zM472 226q0 79 -50.5 132t-129.5 53t-129.5 -53t-50.5 -132t50.5 -132t129.5 -53t129.5 53t50.5 132z" />
    <glyph glyph-name="ocircumflex" unicode="&#xf4;" horiz-adv-x="584" 
d="M428 508h-67l-70 80l-67 -80h-67l103 122h65zM531 226q0 -98 -70.5 -167.5t-168.5 -69.5t-168.5 69.5t-70.5 167.5t70.5 167.5t168.5 69.5t168.5 -69.5t70.5 -167.5zM472 226q0 79 -50.5 132t-129.5 53t-129.5 -53t-50.5 -132t50.5 -132t129.5 -53t129.5 53t50.5 132z
" />
    <glyph glyph-name="otilde" unicode="&#xf5;" horiz-adv-x="584" 
d="M454 620q-4 -47 -19 -68.5t-45 -21.5t-97.5 17.5t-83.5 17.5q-24 0 -27 -40h-51q3 46 19.5 68t53.5 22q24 0 89 -17.5t83 -17.5q24 0 27 40h51zM531 226q0 -94 -68 -165.5t-171 -71.5t-171 71.5t-68 165.5t68 165.5t171 71.5t171 -71.5t68 -165.5zM472 226q0 75 -49 130
t-131 55t-131 -55t-49 -130t49 -130t131 -55t131 55t49 130z" />
    <glyph glyph-name="odieresis" unicode="&#xf6;" horiz-adv-x="584" 
d="M404 537h-75v75h75v-75zM255 537h-75v75h75v-75zM531 226q0 -94 -68 -165.5t-171 -71.5t-171 71.5t-68 165.5t68 165.5t171 71.5t171 -71.5t68 -165.5zM472 226q0 75 -49 130t-131 55t-131 -55t-49 -130t49 -130t131 -55t131 55t49 130z" />
    <glyph glyph-name="divide" unicode="&#xf7;" 
d="M326 437h-86v84h86v-84zM487 310h-408v55h408v-55zM326 154h-86v84h86v-84z" />
    <glyph glyph-name="oslash" unicode="&#xf8;" horiz-adv-x="584" 
d="M531 226q0 -94 -68 -165.5t-171 -71.5q-72 0 -128 36l-49 -63l-36 28l49 64q-75 72 -75 172q0 94 68 165.5t171 71.5q72 0 128 -36l49 63l36 -28l-49 -64q75 -72 75 -172zM472 226q0 76 -49 130l-226 -289q42 -26 95 -26q82 0 131 55t49 130zM387 385q-42 26 -95 26
q-82 0 -131 -55t-49 -130q0 -76 49 -130z" />
    <glyph glyph-name="ugrave" unicode="&#xf9;" horiz-adv-x="547" 
d="M338 508h-72l-134 122h72zM469 0h-58v49q-75 -59 -150 -59q-78 0 -132 49t-54 137v277h58v-282q0 -61 40.5 -95t95.5 -34q72 0 142 62v349h58v-453z" />
    <glyph glyph-name="uacute" unicode="&#xfa;" horiz-adv-x="547" 
d="M415 630l-134 -122h-72l134 122h72zM469 0h-58v49q-75 -59 -150 -59q-78 0 -132 49t-54 137v277h58v-282q0 -61 40.5 -95t95.5 -34q72 0 142 62v349h58v-453z" />
    <glyph glyph-name="ucircumflex" unicode="&#xfb;" horiz-adv-x="547" 
d="M410 508h-67l-70 80l-67 -80h-67l103 122h65zM469 0h-58v49q-75 -59 -150 -59q-78 0 -132 49t-54 137v277h58v-282q0 -61 40.5 -95t95.5 -34q72 0 142 62v349h58v-453z" />
    <glyph glyph-name="udieresis" unicode="&#xfc;" horiz-adv-x="547" 
d="M386 537h-75v75h75v-75zM237 537h-75v75h75v-75zM469 0h-58v49q-75 -59 -150 -59q-78 0 -132 49t-54 137v277h58v-282q0 -61 40.5 -95t95.5 -34q72 0 142 62v349h58v-453z" />
    <glyph glyph-name="yacute" unicode="&#xfd;" horiz-adv-x="490" 
d="M386 630l-134 -122h-72l134 122h72zM471 453l-276 -560q-34 -69 -68 -96.5t-86 -27.5q-29 0 -50 7v53q21 -9 51 -9q31 0 54 21t50 77l69 141l-195 394h66l160 -334l158 334h67z" />
    <glyph glyph-name="thorn" unicode="&#xfe;" horiz-adv-x="554" 
d="M501 227q0 -95 -68 -166t-168 -71q-66 0 -129 44v-253h-58v891h58v-261q29 27 65.5 40t63.5 13q102 0 169 -71.5t67 -165.5zM442 227q0 76 -47.5 130.5t-129.5 54.5q-75 0 -129 -56v-267q69 -47 129 -47q80 0 128.5 54t48.5 131z" />
    <glyph glyph-name="ydieresis" unicode="&#xff;" horiz-adv-x="490" 
d="M357 537h-75v75h75v-75zM208 537h-75v75h75v-75zM471 453l-276 -560q-34 -69 -68 -96.5t-86 -27.5q-29 0 -50 7v53q21 -9 51 -9q31 0 54 21t50 77l69 141l-195 394h66l160 -334l158 334h67z" />
    <glyph glyph-name="dotlessi" unicode="&#x131;" horiz-adv-x="226" 
d="M142 0h-58v453h58v-453z" />
    <glyph glyph-name="Lslash" unicode="&#x141;" horiz-adv-x="493" 
d="M467 0h-384v332l-85 -65v73l85 65v267h64v-218l150 115v-73l-150 -115v-323h320v-58z" />
    <glyph glyph-name="lslash" unicode="&#x142;" horiz-adv-x="322" 
d="M297 13q-44 -24 -87 -24q-58 0 -97.5 35.5t-39.5 124.5v168l-74 -56v70l74 56v285h58v-241l140 107v-70l-140 -107v-217q0 -103 86 -103q46 0 80 28v-56z" />
    <glyph glyph-name="OE" unicode="&#x152;" horiz-adv-x="1153" 
d="M1103 0h-410v135q-48 -67 -122.5 -106.5t-160.5 -39.5q-144 0 -245.5 101.5t-101.5 245.5t101.5 245.5t245.5 101.5q86 0 160.5 -39.5t122.5 -106.5v135h400v-58h-336v-230h267v-58h-267v-268h346v-58zM693 336q0 117 -83 201t-200 84t-200 -84t-83 -201t83 -201t200 -84
t200 84t83 201z" />
    <glyph glyph-name="oe" unicode="&#x153;" horiz-adv-x="939" 
d="M892 219h-362q5 -80 50.5 -129.5t130.5 -49.5q87 0 173 58v-57q-78 -53 -180 -53q-69 0 -124 31.5t-83 89.5q-31 -54 -84.5 -87t-120.5 -33q-103 0 -171 71.5t-68 165.5t68 165.5t171 71.5q68 0 121.5 -33.5t84.5 -88.5q28 55 78 88.5t117 33.5q77 0 138 -61.5t61 -177.5
v-5zM829 271q-4 57 -40.5 98.5t-98.5 41.5t-105 -42t-51 -98h295zM472 226q0 75 -49 130t-131 55t-131 -55t-49 -130t49 -130t131 -55t131 55t49 130z" />
    <glyph glyph-name="Scaron" unicode="&#x160;" horiz-adv-x="507" 
d="M394 850l-103 -122h-65l-103 122h67l70 -80l67 80h67zM453 184q0 -84 -58.5 -139.5t-142.5 -55.5q-135 0 -197 131l52 28q48 -102 147 -102q63 0 98 40.5t35 93.5q0 40 -30.5 75.5t-74.5 63.5l-87.5 57.5t-74 69.5t-30.5 87q0 62 46 106t123 44q93 0 152 -84l-46 -37
q-17 29 -46 46.5t-63 17.5q-44 0 -72 -26.5t-28 -64.5q0 -29 22 -57t55 -50l71.5 -49t71.5 -53t55 -63.5t22 -78.5z" />
    <glyph glyph-name="scaron" unicode="&#x161;" horiz-adv-x="420" 
d="M346 630l-103 -122h-65l-103 122h67l70 -80l67 80h67zM378 119q0 -62 -49.5 -96.5t-115.5 -34.5q-80 0 -159 35v58q73 -40 164 -40q50 0 76.5 21t26.5 55q0 20 -15.5 36t-58.5 34q-141 59 -161 79q-32 32 -32 72q0 54 43 89.5t120 35.5q52 0 132 -29v-57q-81 35 -138 35
q-46 0 -73.5 -19.5t-27.5 -48.5q0 -21 15.5 -37t61.5 -34q83 -34 107.5 -45.5t44.5 -28.5q39 -31 39 -80z" />
    <glyph glyph-name="Ydieresis" unicode="&#x178;" horiz-adv-x="563" 
d="M394 757h-75v75h75v-75zM245 757h-75v75h75v-75zM540 672l-227 -343v-329h-64v329l-226 343h75l183 -279l184 279h75z" />
    <glyph glyph-name="Zcaron" unicode="&#x17d;" horiz-adv-x="629" 
d="M451 850l-103 -122h-65l-103 122h67l70 -80l67 80h67zM581 672l-427 -614h422v-58h-539l427 614h-391v58h508z" />
    <glyph glyph-name="zcaron" unicode="&#x17e;" horiz-adv-x="489" 
d="M381 630l-103 -122h-65l-103 122h67l70 -80l67 80h67zM444 0h-405l291 397h-259v56h371l-290 -397h292v-56z" />
    <glyph glyph-name="florin" unicode="&#x192;" 
d="M499 669l-10 -54q-45 14 -89 14q-41 0 -63 -23t-33 -78l-15 -75h173l-10 -50h-173l-86 -463q-17 -93 -51 -125.5t-96 -32.5q-25 0 -52 3l10 52q28 -4 46 -4q31 0 51 22t32 86l86 462h-69l10 50h69l15 81q28 149 160 149q39 0 95 -14z" />
    <glyph glyph-name="circumflex" unicode="&#x2c6;" horiz-adv-x="500" 
d="M386 508h-67l-70 80l-67 -80h-67l103 122h65z" />
    <glyph glyph-name="caron" unicode="&#x2c7;" horiz-adv-x="500" 
d="M386 630l-103 -122h-65l-103 122h67l70 -80l67 80h67z" />
    <glyph glyph-name="uni02C9" unicode="&#x2c9;" horiz-adv-x="500" 
d="M379 538h-260v52h260v-52z" />
    <glyph glyph-name="breve" unicode="&#x2d8;" horiz-adv-x="500" 
d="M400 659q0 -62 -44.5 -106.5t-106.5 -44.5t-106.5 44.5t-44.5 106.5h52q0 -41 29 -70t70 -29t70 29t29 70h52z" />
    <glyph glyph-name="dotaccent" unicode="&#x2d9;" horiz-adv-x="500" 
d="M287 537h-75v75h75v-75z" />
    <glyph glyph-name="ring" unicode="&#x2da;" horiz-adv-x="500" 
d="M346 605q0 -41 -28 -69t-69 -28t-69 28t-28 69t28 69t69 28t69 -28t28 -69zM307 605q0 24 -17 41t-41 17t-41 -17t-17 -41t17 -41t41 -17t41 17t17 41z" />
    <glyph glyph-name="ogonek" unicode="&#x2db;" horiz-adv-x="500" 
d="M332 -215q-22 -4 -36 -4q-57 0 -86.5 28.5t-29.5 69.5q0 54 44 123h58q-45 -71 -45 -110q0 -60 66 -60q17 0 29 4v-51z" />
    <glyph glyph-name="tilde" unicode="&#x2dc;" horiz-adv-x="500" 
d="M412 620q-4 -47 -19 -68.5t-45 -21.5t-97.5 17.5t-83.5 17.5q-24 0 -27 -40h-51q3 46 19.5 68t53.5 22q24 0 89 -17.5t83 -17.5q24 0 27 40h51z" />
    <glyph glyph-name="hungarumlaut" unicode="&#x2dd;" horiz-adv-x="500" 
d="M454 630l-111 -122h-72l111 122h72zM315 630l-111 -122h-72l111 122h72z" />
    <glyph glyph-name="uni03A9" unicode="&#x3a9;" horiz-adv-x="759" 
d="M707 0h-241v55q173 134 173 322q0 122 -67.5 200t-191.5 78q-115 0 -189.5 -77.5t-74.5 -199.5q0 -189 175 -323v-55h-241v55h169q-170 125 -170 330q0 142 92.5 234.5t238.5 92.5q153 0 240 -90t87 -235q0 -110 -51 -195.5t-121 -136.5h172v-55z" />
    <glyph glyph-name="uni03BC" unicode="&#x3bc;" horiz-adv-x="551" 
d="M513 522l-79 -368q-11 -49 -11 -66q0 -32 35 -32q8 0 17 1l-13 -61q-21 -5 -45 -5q-34 0 -51 17t-20 55q-42 -72 -141 -72q-85 0 -128 67l-55 -266h-76l154 730h77l-62 -291q-7 -31 -7 -67q0 -53 27.5 -82t78.5 -29q121 0 164 200l59 269h76z" />
    <glyph glyph-name="pi" unicode="&#x3c0;" horiz-adv-x="732" 
d="M651 53l14 -47q-24 -13 -63 -13q-59 0 -89 35t-30 94v325h-232v-316q0 -76 -15 -131h-66q16 54 16 133v314q-59 0 -114 -24l-20 48q60 29 147 29h466v-53h-116v-319q0 -82 69 -82q16 0 33 7z" />
    <glyph glyph-name="endash" unicode="&#x2013;" horiz-adv-x="586" 
d="M524 240h-462v55h462v-55z" />
    <glyph glyph-name="emdash" unicode="&#x2014;" horiz-adv-x="748" 
d="M686 240h-624v55h624v-55z" />
    <glyph glyph-name="quoteleft" unicode="&#x2018;" horiz-adv-x="193" 
d="M180 674q-43 -20 -61 -47t-18 -74v-79h-66v72q0 62 34.5 93.5t110.5 34.5z" />
    <glyph glyph-name="quoteright" unicode="&#x2019;" horiz-adv-x="193" 
d="M158 600q0 -62 -34.5 -93.5t-110.5 -34.5q43 20 60.5 47t17.5 74v79h67v-72z" />
    <glyph glyph-name="quotesinglbase" unicode="&#x201a;" horiz-adv-x="193" 
d="M130 4q0 -62 -34.5 -93.5t-110.5 -34.5q43 20 60.5 47t17.5 74v79h67v-72z" />
    <glyph glyph-name="quotedblleft" unicode="&#x201c;" horiz-adv-x="337" 
d="M324 674q-43 -20 -61 -47t-18 -74v-79h-66v72q0 62 34.5 93.5t110.5 34.5zM180 659q-43 -21 -61 -47t-18 -73v-65h-66v57q0 62 34.5 93.5t110.5 34.5z" />
    <glyph glyph-name="quotedblright" unicode="&#x201d;" horiz-adv-x="337" 
d="M299 615q0 -62 -34.5 -93.5t-110.5 -34.5q43 20 60.5 46.5t17.5 73.5v65h67v-57zM158 600q0 -62 -34.5 -93.5t-110.5 -34.5q43 20 60.5 47t17.5 74v79h67v-72z" />
    <glyph glyph-name="quotedblbase" unicode="&#x201e;" horiz-adv-x="337" 
d="M261 19q0 -62 -34.5 -93.5t-110.5 -34.5q43 20 60.5 46.5t17.5 73.5v65h67v-57zM130 4q0 -62 -34.5 -93.5t-110.5 -34.5q43 20 60.5 47t17.5 74v79h67v-72z" />
    <glyph glyph-name="dagger" unicode="&#x2020;" horiz-adv-x="445" 
d="M387 384h-137v-538h-55v538h-137v53h137v235h55v-235h137v-53z" />
    <glyph glyph-name="daggerdbl" unicode="&#x2021;" horiz-adv-x="445" 
d="M387 198h-137v-352h-55v352h-137v53h137v133h-137v53h137v235h55v-235h137v-53h-137v-133h137v-53z" />
    <glyph glyph-name="bullet" unicode="&#x2022;" horiz-adv-x="500" 
d="M370 302q0 -50 -35 -85t-85 -35t-85 35t-35 85t35 85t85 35t85 -35t35 -85z" />
    <glyph glyph-name="ellipsis" unicode="&#x2026;" horiz-adv-x="1000" 
d="M872 0h-76v77h76v-77zM538 0h-76v77h76v-77zM205 0h-76v77h76v-77z" />
    <glyph glyph-name="perthousand" unicode="&#x2030;" horiz-adv-x="993" 
d="M934 134q0 -58 -41 -99t-99 -41t-99 41t-41 99t41 99t99 41t99 -41t41 -99zM339 538q0 -58 -41 -99t-99 -41t-99 41t-41 99t41 99t99 41t99 -41t41 -99zM584 672l-441 -672h-64l441 672h64zM608 134q0 -58 -41 -99t-99 -41t-99 41t-41 99t41 99t99 41t99 -41t41 -99z
M882 134q0 37 -25.5 62.5t-62.5 25.5t-62.5 -25.5t-25.5 -62.5t25.5 -62.5t62.5 -25.5t62.5 25.5t25.5 62.5zM287 538q0 37 -25.5 62.5t-62.5 25.5t-62.5 -25.5t-25.5 -62.5t25.5 -62.5t62.5 -25.5t62.5 25.5t25.5 62.5zM556 134q0 37 -25.5 62.5t-62.5 25.5t-62.5 -25.5
t-25.5 -62.5t25.5 -62.5t62.5 -25.5t62.5 25.5t25.5 62.5z" />
    <glyph glyph-name="guilsinglleft" unicode="&#x2039;" horiz-adv-x="269" 
d="M236 35h-70l-148 191l148 191h70l-148 -191z" />
    <glyph glyph-name="guilsinglright" unicode="&#x203a;" horiz-adv-x="269" 
d="M251 226l-148 -191h-70l148 191l-148 191h70z" />
    <glyph glyph-name="fraction" unicode="&#x2044;" horiz-adv-x="62" 
d="M153 800l-246 -929h-48l246 929h48z" />
    <glyph glyph-name="Euro" unicode="&#x20ac;" 
d="M561 600l-20 -55q-87 75 -178 75q-85 0 -138.5 -54t-74.5 -138h301l-17 -54h-293q-2 -24 -2 -37q0 -24 1 -36h281l-17 -54h-256q14 -80 70 -136.5t145 -56.5q104 0 184 70v-67q-79 -61 -184 -61q-117 0 -187.5 71t-92.5 180h-93l17 54h68q-1 12 -1 36q0 13 2 37h-86
l17 54h77q25 107 98 178.5t181 71.5q109 0 198 -78z" />
    <glyph glyph-name="litre" unicode="&#x2113;" horiz-adv-x="530" 
d="M434 58q-66 -71 -139 -71q-53 0 -84 33q-35 36 -35 114v121l-65 -68q-22 24 -31 35l96 102v233q0 83 31.5 127t87.5 44q49 0 72.5 -32.5t23.5 -70.5q0 -66 -29.5 -128t-85.5 -133q-30 -38 -38 -47v-186q0 -46 18.5 -69t51.5 -23q47 0 98 56q14 -17 28 -37zM338 616
q0 27 -10.5 43.5t-30.5 16.5q-59 0 -59 -119v-167l28 36q72 111 72 190z" />
    <glyph glyph-name="trademark" unicode="&#x2122;" horiz-adv-x="363" 
d="M338 507h-29v119l-54 -66l-55 66v-119h-29v168h26l58 -70l57 70h26v-168zM157 648h-52v-141h-29v141h-51v27h132v-27z" />
    <glyph glyph-name="Omega" unicode="&#x2126;" horiz-adv-x="759" 
d="M707 0h-241v55q173 134 173 322q0 122 -67.5 200t-191.5 78q-115 0 -189.5 -77.5t-74.5 -199.5q0 -189 175 -323v-55h-241v55h169q-170 125 -170 330q0 142 92.5 234.5t238.5 92.5q153 0 240 -90t87 -235q0 -110 -51 -195.5t-121 -136.5h172v-55z" />
    <glyph glyph-name="estimated" unicode="&#x212e;" horiz-adv-x="690" 
d="M653 313h-481v-216q70 -70 170 -70q81 0 135.5 36.5t97.5 105.5l37 -23q-51 -78 -113 -118t-157 -40q-136 0 -220 94t-84 231q0 139 83.5 232t223.5 93q139 0 222.5 -93t85.5 -232zM517 351v178q-74 71 -173 71q-104 0 -172 -70v-179h345z" />
    <glyph glyph-name="partialdiff" unicode="&#x2202;" horiz-adv-x="624" 
d="M563 482q0 -93 -26 -189q-16 -58 -41.5 -110t-61 -96.5t-84.5 -71t-105 -26.5q-82 0 -133.5 53t-51.5 140q0 142 86 229.5t192 87.5q58 0 98 -24t56 -59h2q5 33 5 70q0 88 -41 137.5t-116 49.5q-59 0 -108 -30q-3 8 -9.5 24t-9.5 24q55 35 136 35q96 0 154 -64t58 -180z
M484 347q-12 44 -48 72.5t-92 28.5q-88 0 -153.5 -76.5t-65.5 -190.5q0 -62 33.5 -100t88.5 -38q80 0 144 83t93 221z" />
    <glyph glyph-name="Delta" unicode="&#x2206;" horiz-adv-x="669" 
d="M640 0h-605v35l265 665h77l263 -665v-35zM561 57l-206 522q-5 14 -10.5 34t-6.5 22h-3q-9 -32 -17 -55l-207 -523h450z" />
    <glyph glyph-name="product" unicode="&#x220f;" horiz-adv-x="781" 
d="M686 -230h-66v873h-458v-873h-66v930h590v-930z" />
    <glyph glyph-name="summation" unicode="&#x2211;" horiz-adv-x="683" 
d="M652 -230h-632v28l375 441l-349 427v34h579v-55h-485l331 -405l-352 -415h533v-55z" />
    <glyph glyph-name="minus" unicode="&#x2212;" 
d="M487 310h-408v55h408v-55z" />
    <glyph glyph-name="uni2215" unicode="&#x2215;" horiz-adv-x="62" 
d="M153 800l-246 -929h-48l246 929h48z" />
    <glyph glyph-name="uni2219" unicode="&#x2219;" horiz-adv-x="210" 
d="M143 299h-76v77h76v-77z" />
    <glyph glyph-name="radical" unicode="&#x221a;" horiz-adv-x="579" 
d="M572 729l-222 -741h-52l-159 352l-58 -36l-21 41l108 65l154 -338l196 657h54z" />
    <glyph glyph-name="infinity" unicode="&#x221e;" horiz-adv-x="857" 
d="M801 295q0 -71 -46 -120.5t-125 -49.5q-122 0 -202 123h-2q-85 -123 -199 -123q-80 0 -126.5 47t-46.5 118q0 74 45.5 121.5t124.5 47.5q119 0 202 -123h2q85 123 198 123q78 0 126.5 -45t48.5 -119zM742 293q0 50 -29 82.5t-87 32.5q-92 0 -171 -115q72 -116 171 -116
q58 0 87 33.5t29 82.5zM399 292q-33 54 -79.5 85t-92.5 31q-56 0 -85.5 -33.5t-29.5 -84.5q0 -50 32.5 -82t82.5 -32q94 0 172 116z" />
    <glyph glyph-name="integral" unicode="&#x222b;" horiz-adv-x="526" 
d="M440 684q-24 11 -52 11q-47 0 -71 -28.5t-24 -79.5v-654q0 -79 -41.5 -121.5t-111.5 -42.5q-47 0 -73 12q9 30 14 52q23 -10 54 -10q93 0 93 107v656q0 76 41 119t113 43q49 0 73 -13z" />
    <glyph glyph-name="approxequal" unicode="&#x2248;" 
d="M505 419q-53 -80 -126 -80q-53 0 -104 32q-52 33 -88 33q-51 0 -90 -65l-37 40q55 81 126 81q51 0 103 -32q51 -33 89 -33q50 0 90 64zM505 208q-53 -81 -126 -81q-52 0 -104 33q-54 32 -88 32q-51 0 -90 -65l-37 41q54 80 126 80q51 0 103 -32q54 -33 89 -33q51 0 90 65
z" />
    <glyph glyph-name="notequal" unicode="&#x2260;" 
d="M491 159h-246l-62 -132h-59l63 132h-113v56h140l73 157h-213v56h240l63 135h59l-64 -135h119v-56h-146l-73 -157h219v-56z" />
    <glyph glyph-name="lessequal" unicode="&#x2264;" 
d="M491 0h-417v56h417v-56zM491 132l-417 199v36l417 199v-62l-330 -154v-2l330 -154v-62z" />
    <glyph glyph-name="greaterequal" unicode="&#x2265;" 
d="M491 0h-417v56h417v-56zM491 332l-417 -200v62l329 154v2l-329 154v62l417 -199v-35z" />
    <glyph glyph-name="lozenge" unicode="&#x25ca;" horiz-adv-x="613" 
d="M553 350l-231 -350h-36l-231 349l231 351h36zM491 349l-187 284l-187 -284l187 -283z" />
    <glyph glyph-name="A.sc" unicode="&#xe000;" horiz-adv-x="548" 
d="M533 0h-67l-56 126h-272l-56 -126h-67l230 514h58zM385 181l-111 251l-111 -251h222z" />
    <glyph glyph-name="AE.sc" unicode="&#xe001;" horiz-adv-x="787" 
d="M734 0h-342v126h-223l-84 -126h-70l342 514h377v-55h-282v-164h232v-55h-232v-185h282v-55zM392 181v278l-186 -278h186z" />
    <glyph glyph-name="Aacute.sc" unicode="&#xe002;" horiz-adv-x="548" 
d="M438 690l-134 -122h-72l134 122h72zM533 0h-67l-56 126h-272l-56 -126h-67l230 514h58zM385 181l-111 251l-111 -251h222z" />
    <glyph glyph-name="Acircumflex.sc" unicode="&#xe003;" horiz-adv-x="548" 
d="M410 568h-67l-70 80l-67 -80h-67l103 122h65zM533 0h-67l-56 126h-272l-56 -126h-67l230 514h58zM385 181l-111 251l-111 -251h222z" />
    <glyph glyph-name="Adieresis.sc" unicode="&#xe004;" horiz-adv-x="548" 
d="M379 597h-75v75h75v-75zM230 597h-75v75h75v-75zM533 0h-67l-56 126h-272l-56 -126h-67l230 514h58zM385 181l-111 251l-111 -251h222z" />
    <glyph glyph-name="Agrave.sc" unicode="&#xe005;" horiz-adv-x="548" 
d="M309 568h-72l-134 122h72zM533 0h-67l-56 126h-272l-56 -126h-67l230 514h58zM385 181l-111 251l-111 -251h222z" />
    <glyph glyph-name="Aring.sc" unicode="&#xe006;" horiz-adv-x="548" 
d="M371 665q0 -41 -28.5 -69t-68.5 -28t-68.5 28t-28.5 69t28.5 69t68.5 28t68.5 -28t28.5 -69zM533 0h-67l-56 126h-272l-56 -126h-67l230 514h58zM332 665q0 24 -17 41t-41 17t-41 -17t-17 -41t17 -41t41 -17t41 17t17 41zM385 181l-111 251l-111 -251h222z" />
    <glyph glyph-name="Atilde.sc" unicode="&#xe007;" horiz-adv-x="548" 
d="M434 674q-4 -47 -19 -68.5t-45 -21.5t-97.5 17.5t-83.5 17.5q-24 0 -27 -40h-51q3 46 19.5 68t53.5 22q24 0 89 -17.5t83 -17.5q24 0 27 40h51zM533 0h-67l-56 126h-272l-56 -126h-67l230 514h58zM385 181l-111 251l-111 -251h222z" />
    <glyph glyph-name="B.sc" unicode="&#xe008;" horiz-adv-x="499" 
d="M449 150q0 -58 -40.5 -104t-130.5 -46h-198v514h165q78 0 114.5 -40t36.5 -91q0 -69 -58 -102q52 -14 81.5 -48.5t29.5 -82.5zM335 382q0 31 -21.5 54t-67.5 23h-106v-163h99q49 0 72.5 26.5t23.5 59.5zM389 152q0 43 -31 65.5t-88 22.5h-130v-185h137q50 0 81 25.5
t31 71.5z" />
    <glyph glyph-name="C.sc" unicode="&#xe009;" horiz-adv-x="597" 
d="M538 405q-97 63 -201 63q-96 0 -156 -64t-60 -147q0 -92 59.5 -151.5t150.5 -59.5q105 0 203 66v-65q-103 -56 -203 -56q-112 0 -192 74t-80 192q0 105 81.5 185.5t196.5 80.5q102 0 201 -54v-64z" />
    <glyph glyph-name="Ccedilla.sc" unicode="&#xe00a;" horiz-adv-x="597" 
d="M538 405q-97 63 -201 63q-96 0 -156 -64t-60 -147q0 -92 59.5 -151.5t150.5 -59.5q105 0 203 66v-65q-96 -52 -184 -56l-9 -40q23 -3 42.5 -23t19.5 -54q0 -37 -30 -66.5t-88 -29.5q-18 0 -28 2v47q12 -7 31 -7q31 0 47 16t16 35q0 50 -61 52l14 69q-103 9 -174 81.5
t-71 183.5q0 105 81.5 185.5t196.5 80.5q102 0 201 -54v-64z" />
    <glyph glyph-name="D.sc" unicode="&#xe00b;" horiz-adv-x="589" 
d="M530 257q0 -115 -79 -186t-189 -71h-182v514h179q106 0 188.5 -72.5t82.5 -184.5zM468 257q0 86 -61.5 144t-147.5 58h-119v-404h118q80 0 145 52.5t65 149.5z" />
    <glyph glyph-name="Eth.sc" unicode="&#xe00c;" horiz-adv-x="589" 
d="M530 257q0 -115 -79 -186t-189 -71h-182v239h-66v58h66v217h179q106 0 188.5 -72.5t82.5 -184.5zM468 257q0 86 -61.5 144t-147.5 58h-119v-162h154v-58h-154v-184h118q80 0 145 52.5t65 149.5z" />
    <glyph glyph-name="E.sc" unicode="&#xe00d;" horiz-adv-x="475" 
d="M422 0h-342v514h342v-55h-282v-164h232v-55h-232v-185h282v-55z" />
    <glyph glyph-name="Eacute.sc" unicode="&#xe00e;" horiz-adv-x="475" 
d="M401 690l-134 -122h-72l134 122h72zM422 0h-342v514h342v-55h-282v-164h232v-55h-232v-185h282v-55z" />
    <glyph glyph-name="Ecircumflex.sc" unicode="&#xe00f;" horiz-adv-x="475" 
d="M383 568h-67l-70 80l-67 -80h-67l103 122h65zM422 0h-342v514h342v-55h-282v-164h232v-55h-232v-185h282v-55z" />
    <glyph glyph-name="Edieresis.sc" unicode="&#xe010;" horiz-adv-x="475" 
d="M352 597h-75v75h75v-75zM203 597h-75v75h75v-75zM422 0h-342v514h342v-55h-282v-164h232v-55h-232v-185h282v-55z" />
    <glyph glyph-name="Egrave.sc" unicode="&#xe011;" horiz-adv-x="475" 
d="M302 568h-72l-134 122h72zM422 0h-342v514h342v-55h-282v-164h232v-55h-232v-185h282v-55z" />
    <glyph glyph-name="F.sc" unicode="&#xe012;" horiz-adv-x="434" 
d="M408 459h-268v-164h218v-55h-218v-240h-60v514h328v-55z" />
    <glyph glyph-name="G.sc" unicode="&#xe013;" horiz-adv-x="617" 
d="M538 405q-97 63 -201 63q-96 0 -156 -64t-60 -147q0 -92 59.5 -151.5t150.5 -59.5q73 0 143 32v147h-152v55h212v-233q-103 -56 -203 -56q-112 0 -192 74t-80 192q0 105 81.5 185.5t196.5 80.5q102 0 201 -54v-64z" />
    <glyph glyph-name="H.sc" unicode="&#xe014;" horiz-adv-x="595" 
d="M515 0h-60v240h-315v-240h-60v514h60v-219h315v219h60v-514z" />
    <glyph glyph-name="I.sc" unicode="&#xe015;" horiz-adv-x="220" 
d="M147 0h-60v514h60v-514z" />
    <glyph glyph-name="Iacute.sc" unicode="&#xe016;" horiz-adv-x="220" 
d="M281 690l-134 -122h-72l134 122h72zM147 0h-60v514h60v-514z" />
    <glyph glyph-name="Icircumflex.sc" unicode="&#xe017;" horiz-adv-x="220" 
d="M253 568h-67l-70 80l-67 -80h-67l103 122h65zM147 0h-60v514h60v-514z" />
    <glyph glyph-name="Idieresis.sc" unicode="&#xe018;" horiz-adv-x="220" 
d="M222 597h-75v75h75v-75zM73 597h-75v75h75v-75zM147 0h-60v514h60v-514z" />
    <glyph glyph-name="Igrave.sc" unicode="&#xe019;" horiz-adv-x="220" 
d="M152 568h-72l-134 122h72zM147 0h-60v514h60v-514z" />
    <glyph glyph-name="J.sc" unicode="&#xe01a;" horiz-adv-x="385" 
d="M305 168q0 -93 -44.5 -135t-104.5 -42q-99 0 -143 105l53 20q25 -70 90 -70q89 0 89 118v350h60v-346z" />
    <glyph glyph-name="K.sc" unicode="&#xe01b;" horiz-adv-x="475" 
d="M462 0h-78l-244 271v-271h-60v514h60v-206l199 206h81l-223 -224z" />
    <glyph glyph-name="L.sc" unicode="&#xe01c;" horiz-adv-x="422" 
d="M408 0h-328v514h60v-459h268v-55z" />
    <glyph glyph-name="Lslash.sc" unicode="&#xe01d;" horiz-adv-x="422" 
d="M408 0h-328v209l-64 -50v67l64 50v238h60v-192l132 102v-67l-132 -102v-200h268v-55z" />
    <glyph glyph-name="M.sc" unicode="&#xe01e;" horiz-adv-x="716" 
d="M636 0h-60v426l-218 -257l-218 257v-426h-60v514h60l218 -261l218 261h60v-514z" />
    <glyph glyph-name="N.sc" unicode="&#xe01f;" horiz-adv-x="619" 
d="M539 0h-60l-339 421v-421h-60v514h60l339 -421v421h60v-514z" />
    <glyph glyph-name="Ntilde.sc" unicode="&#xe020;" horiz-adv-x="619" 
d="M465 674q-4 -47 -19 -68.5t-45 -21.5t-97.5 17.5t-83.5 17.5q-24 0 -27 -40h-51q3 46 19.5 68t53.5 22q25 0 89 -17.5t83 -17.5q24 0 27 40h51zM539 0h-60l-339 421v-421h-60v514h60l339 -421v421h60v-514z" />
    <glyph glyph-name="O.sc" unicode="&#xe021;" horiz-adv-x="654" 
d="M595 257q0 -113 -81.5 -189.5t-186.5 -76.5t-186.5 76.5t-81.5 189.5t81.5 189.5t186.5 76.5t186.5 -76.5t81.5 -189.5zM533 257q0 87 -61 149t-145 62t-145 -62t-61 -149t61 -149t145 -62t145 62t61 149z" />
    <glyph glyph-name="OE.sc" unicode="&#xe022;" horiz-adv-x="928" 
d="M875 0h-342v93q-37 -48 -92 -75t-114 -27q-105 0 -186.5 76.5t-81.5 189.5t81.5 189.5t186.5 76.5q59 0 114 -27t92 -75v93h342v-55h-282v-164h232v-55h-232v-185h282v-55zM533 257q0 87 -61 149t-145 62t-145 -62t-61 -149t61 -149t145 -62t145 62t61 149z" />
    <glyph glyph-name="Oacute.sc" unicode="&#xe023;" horiz-adv-x="654" 
d="M471 690l-134 -122h-72l134 122h72zM595 257q0 -109 -79.5 -187.5t-188.5 -78.5t-188.5 78.5t-79.5 187.5t79.5 187.5t188.5 78.5t188.5 -78.5t79.5 -187.5zM533 257q0 86 -60 148.5t-146 62.5t-146 -62.5t-60 -148.5t60 -148.5t146 -62.5t146 62.5t60 148.5z" />
    <glyph glyph-name="Ocircumflex.sc" unicode="&#xe024;" horiz-adv-x="654" 
d="M463 568h-67l-70 80l-67 -80h-67l103 122h65zM595 257q0 -109 -79.5 -187.5t-188.5 -78.5t-188.5 78.5t-79.5 187.5t79.5 187.5t188.5 78.5t188.5 -78.5t79.5 -187.5zM533 257q0 86 -60 148.5t-146 62.5t-146 -62.5t-60 -148.5t60 -148.5t146 -62.5t146 62.5t60 148.5z
" />
    <glyph glyph-name="Odieresis.sc" unicode="&#xe025;" horiz-adv-x="654" 
d="M432 597h-75v75h75v-75zM283 597h-75v75h75v-75zM595 257q0 -113 -81.5 -189.5t-186.5 -76.5t-186.5 76.5t-81.5 189.5t81.5 189.5t186.5 76.5t186.5 -76.5t81.5 -189.5zM533 257q0 87 -61 149t-145 62t-145 -62t-61 -149t61 -149t145 -62t145 62t61 149z" />
    <glyph glyph-name="Ograve.sc" unicode="&#xe026;" horiz-adv-x="654" 
d="M382 568h-72l-134 122h72zM595 257q0 -109 -79.5 -187.5t-188.5 -78.5t-188.5 78.5t-79.5 187.5t79.5 187.5t188.5 78.5t188.5 -78.5t79.5 -187.5zM533 257q0 86 -60 148.5t-146 62.5t-146 -62.5t-60 -148.5t60 -148.5t146 -62.5t146 62.5t60 148.5z" />
    <glyph glyph-name="Oslash.sc" unicode="&#xe027;" horiz-adv-x="654" 
d="M595 257q0 -113 -81.5 -189.5t-186.5 -76.5q-75 0 -142 42l-63 -77l-43 33l63 77q-83 78 -83 191t81.5 189.5t186.5 76.5q82 0 149 -46l57 70l43 -33l-58 -72q77 -77 77 -185zM533 257q0 80 -52 140l-261 -320q48 -31 107 -31q84 0 145 62t61 149zM440 433
q-52 35 -113 35q-84 0 -145 -62t-61 -149q0 -85 58 -146z" />
    <glyph glyph-name="Otilde.sc" unicode="&#xe028;" horiz-adv-x="654" 
d="M487 674q-4 -47 -19 -68.5t-45 -21.5t-97.5 17.5t-83.5 17.5q-24 0 -27 -40h-51q3 46 19.5 68t53.5 22q25 0 89 -17.5t83 -17.5q24 0 27 40h51zM595 257q0 -113 -81.5 -189.5t-186.5 -76.5t-186.5 76.5t-81.5 189.5t81.5 189.5t186.5 76.5t186.5 -76.5t81.5 -189.5z
M533 257q0 87 -61 149t-145 62t-145 -62t-61 -149t61 -149t145 -62t145 62t61 149z" />
    <glyph glyph-name="P.sc" unicode="&#xe029;" horiz-adv-x="478" 
d="M444 356q0 -67 -46 -116.5t-124 -49.5h-134v-190h-60v514h196q80 0 124 -48.5t44 -109.5zM382 355q0 44 -27.5 74t-82.5 30h-132v-214h133q52 0 80.5 30t28.5 80z" />
    <glyph glyph-name="Thorn.sc" unicode="&#xe02a;" horiz-adv-x="478" 
d="M444 264q0 -67 -46 -116.5t-124 -49.5h-134v-98h-60v514h60v-92h136q80 0 124 -48.5t44 -109.5zM382 263q0 44 -27.5 74t-82.5 30h-132v-214h133q52 0 80.5 30t28.5 80z" />
    <glyph glyph-name="Q.sc" unicode="&#xe02b;" horiz-adv-x="654" 
d="M595 31l-37 -45l-71 59q-73 -54 -160 -54q-105 0 -186.5 76.5t-81.5 189.5t81.5 189.5t186.5 76.5t186.5 -76.5t81.5 -189.5q0 -97 -65 -172zM533 257q0 87 -61 149t-145 62t-145 -62t-61 -149t61 -149t145 -62q62 0 115 37l-58 49l37 45l64 -54q48 58 48 134z" />
    <glyph glyph-name="R.sc" unicode="&#xe02c;" horiz-adv-x="503" 
d="M479 0h-77l-162 215h-100v-215h-60v514h173q89 0 132 -46t43 -105q0 -53 -31 -91t-87 -51zM366 362q0 41 -26.5 69t-88.5 28h-111v-189h113q57 0 85 26t28 66z" />
    <glyph glyph-name="S.sc" unicode="&#xe02d;" horiz-adv-x="422" 
d="M371 130q0 -64 -47 -101.5t-110 -37.5q-64 0 -106.5 30t-63.5 71l46 30q17 -33 50.5 -55.5t76.5 -22.5q38 0 66 22.5t28 59.5q0 29 -24.5 50.5t-105.5 69.5q-67 40 -94 69.5t-27 72.5q0 57 43 96t110 39q92 0 151 -84l-45 -32q-44 63 -112 63q-40 0 -63.5 -22.5
t-23.5 -50.5t22 -49.5t87 -59.5q75 -44 108.5 -76.5t33.5 -81.5z" />
    <glyph glyph-name="Scaron.sc" unicode="&#xe02e;" horiz-adv-x="422" 
d="M346 690l-103 -122h-65l-103 122h67l70 -80l67 80h67zM371 130q0 -64 -47 -101.5t-110 -37.5q-64 0 -106.5 30t-63.5 71l46 30q17 -33 50.5 -55.5t76.5 -22.5q38 0 66 22.5t28 59.5q0 29 -24.5 50.5t-105.5 69.5q-67 40 -94 69.5t-27 72.5q0 57 43 96t110 39
q92 0 151 -84l-45 -32q-44 63 -112 63q-40 0 -63.5 -22.5t-23.5 -50.5t22 -49.5t87 -59.5q75 -44 108.5 -76.5t33.5 -81.5z" />
    <glyph glyph-name="T.sc" unicode="&#xe02f;" horiz-adv-x="416" 
d="M396 459h-158v-459h-60v459h-158v55h376v-55z" />
    <glyph glyph-name="U.sc" unicode="&#xe030;" horiz-adv-x="608" 
d="M538 229q0 -111 -66.5 -174.5t-160.5 -63.5t-160.5 63.5t-66.5 174.5v285h60v-295q0 -80 50 -126.5t117 -46.5t117 46.5t50 126.5v295h60v-285z" />
    <glyph glyph-name="Uacute.sc" unicode="&#xe031;" horiz-adv-x="608" 
d="M448 690l-134 -122h-72l134 122h72zM538 229q0 -111 -66.5 -174.5t-160.5 -63.5t-160.5 63.5t-66.5 174.5v285h60v-295q0 -80 50 -126.5t117 -46.5t117 46.5t50 126.5v295h60v-285z" />
    <glyph glyph-name="Ucircumflex.sc" unicode="&#xe032;" horiz-adv-x="608" 
d="M440 568h-67l-70 80l-67 -80h-67l103 122h65zM538 229q0 -111 -66.5 -174.5t-160.5 -63.5t-160.5 63.5t-66.5 174.5v285h60v-295q0 -80 50 -126.5t117 -46.5t117 46.5t50 126.5v295h60v-285z" />
    <glyph glyph-name="Udieresis.sc" unicode="&#xe033;" horiz-adv-x="608" 
d="M426 597h-75v75h75v-75zM277 597h-75v75h75v-75zM538 229q0 -111 -66.5 -174.5t-160.5 -63.5t-160.5 63.5t-66.5 174.5v285h60v-295q0 -80 50 -126.5t117 -46.5t117 46.5t50 126.5v295h60v-285z" />
    <glyph glyph-name="Ugrave.sc" unicode="&#xe034;" horiz-adv-x="608" 
d="M369 568h-72l-134 122h72zM538 229q0 -111 -66.5 -174.5t-160.5 -63.5t-160.5 63.5t-66.5 174.5v285h60v-295q0 -80 50 -126.5t117 -46.5t117 46.5t50 126.5v295h60v-285z" />
    <glyph glyph-name="V.sc" unicode="&#xe035;" horiz-adv-x="533" 
d="M518 514l-225 -514h-53l-225 514h67l185 -424l184 424h67z" />
    <glyph glyph-name="W.sc" unicode="&#xe036;" horiz-adv-x="808" 
d="M789 514l-195 -514h-59l-131 418l-131 -418h-59l-195 514h63l158 -423l138 423h52l138 -423l158 423h63z" />
    <glyph glyph-name="X.sc" unicode="&#xe037;" horiz-adv-x="544" 
d="M527 0h-76l-179 226l-179 -226h-76l217 273l-191 241h76l153 -193l153 193h76l-191 -241z" />
    <glyph glyph-name="Y.sc" unicode="&#xe038;" horiz-adv-x="480" 
d="M465 514l-195 -276v-238h-60v238l-195 276h73l152 -217l152 217h73z" />
    <glyph glyph-name="Yacute.sc" unicode="&#xe039;" horiz-adv-x="480" 
d="M404 690l-134 -122h-72l134 122h72zM465 514l-195 -276v-238h-60v238l-195 276h73l152 -217l152 217h73z" />
    <glyph glyph-name="Ydieresis.sc" unicode="&#xe03a;" horiz-adv-x="480" 
d="M351 597h-75v75h75v-75zM202 597h-75v75h75v-75zM465 514l-195 -276v-238h-60v238l-195 276h73l152 -217l152 217h73z" />
    <glyph glyph-name="Z.sc" unicode="&#xe03b;" horiz-adv-x="494" 
d="M454 514l-320 -459h314v-55h-423l320 459h-285v55h394z" />
    <glyph glyph-name="Zcaron.sc" unicode="&#xe03c;" horiz-adv-x="494" 
d="M382 690l-103 -122h-65l-103 122h67l70 -80l67 80h67zM454 514l-320 -459h314v-55h-423l320 459h-285v55h394z" />
    <glyph glyph-name="germandbls.sc" unicode="&#xe03d;" horiz-adv-x="837" 
d="M786 130q0 -64 -47 -101.5t-110 -37.5q-64 0 -106.5 30t-63.5 71l46 30q17 -33 50.5 -55.5t76.5 -22.5q38 0 66 22.5t28 59.5q0 29 -24.5 50.5t-105.5 69.5q-67 40 -94 69.5t-27 72.5q0 57 43 96t110 39q92 0 151 -84l-45 -32q-44 63 -112 63q-40 0 -63.5 -22.5
t-23.5 -50.5t22 -49.5t87 -59.5q75 -44 108.5 -76.5t33.5 -81.5zM371 130q0 -64 -47 -101.5t-110 -37.5q-64 0 -106.5 30t-63.5 71l46 30q17 -33 50.5 -55.5t76.5 -22.5q38 0 66 22.5t28 59.5q0 29 -24.5 50.5t-105.5 69.5q-67 40 -94 69.5t-27 72.5q0 57 43 96t110 39
q92 0 151 -84l-45 -32q-44 63 -112 63q-40 0 -63.5 -22.5t-23.5 -50.5t22 -49.5t87 -59.5q75 -44 108.5 -76.5t33.5 -81.5z" />
    <glyph glyph-name="f_i.sc" unicode="&#xe03e;" horiz-adv-x="654" 
d="M581 0h-60v514h60v-514zM408 459h-268v-164h218v-55h-218v-240h-60v514h328v-55z" />
    <glyph glyph-name="f_l.sc" unicode="&#xe03f;" horiz-adv-x="856" 
d="M842 0h-328v514h60v-459h268v-55zM408 459h-268v-164h218v-55h-218v-240h-60v514h328v-55z" />
    <glyph glyph-name="a.alt" unicode="&#xe040;" horiz-adv-x="554" 
d="M476 0h-54v46q-29 -29 -67 -43t-66 -14q-102 0 -169 71.5t-67 165.5q0 95 68 166t168 71q70 0 133 -47v37h54v-453zM418 97v267q-69 47 -129 47q-80 0 -128.5 -54t-48.5 -131q0 -76 47.5 -130.5t129.5 -54.5q75 0 129 56z" />
    <glyph glyph-name="aacute.alt" unicode="&#xe041;" horiz-adv-x="554" 
d="M476 0h-54v46q-29 -29 -67 -43t-66 -14q-102 0 -169 71.5t-67 165.5q0 95 68 166t168 71q70 0 133 -47v37h54v-453zM418 97v267q-69 47 -129 47q-80 0 -128.5 -54t-48.5 -131q0 -76 47.5 -130.5t129.5 -54.5q75 0 129 56zM404 630l-134 -122h-72l134 122h72z" />
    <glyph glyph-name="agrave.alt" unicode="&#xe042;" horiz-adv-x="554" 
d="M476 0h-54v46q-29 -29 -67 -43t-66 -14q-102 0 -169 71.5t-67 165.5q0 95 68 166t168 71q70 0 133 -47v37h54v-453zM418 97v267q-69 47 -129 47q-80 0 -128.5 -54t-48.5 -131q0 -76 47.5 -130.5t129.5 -54.5q75 0 129 56zM367 508h-72l-134 122h72z" />
    <glyph glyph-name="acircumflex.alt" unicode="&#xe043;" horiz-adv-x="554" 
d="M476 0h-54v46q-29 -29 -67 -43t-66 -14q-102 0 -169 71.5t-67 165.5q0 95 68 166t168 71q70 0 133 -47v37h54v-453zM418 97v267q-69 47 -129 47q-80 0 -128.5 -54t-48.5 -131q0 -76 47.5 -130.5t129.5 -54.5q75 0 129 56zM419 508h-67l-70 80l-67 -80h-67l103 122h65z
" />
    <glyph glyph-name="atilde.alt" unicode="&#xe044;" horiz-adv-x="554" 
d="M476 0h-54v46q-29 -29 -67 -43t-66 -14q-102 0 -169 71.5t-67 165.5q0 95 68 166t168 71q70 0 133 -47v37h54v-453zM418 97v267q-69 47 -129 47q-80 0 -128.5 -54t-48.5 -131q0 -76 47.5 -130.5t129.5 -54.5q75 0 129 56zM436 620q-4 -47 -19 -68.5t-45 -21.5t-97.5 17.5
t-83.5 17.5q-24 0 -27 -40h-51q3 46 19.5 68t53.5 22q24 0 89 -17.5t83 -17.5q24 0 27 40h51z" />
    <glyph glyph-name="adieresis.alt" unicode="&#xe045;" horiz-adv-x="554" 
d="M476 0h-54v46q-29 -29 -67 -43t-66 -14q-102 0 -169 71.5t-67 165.5q0 95 68 166t168 71q70 0 133 -47v37h54v-453zM418 97v267q-69 47 -129 47q-80 0 -128.5 -54t-48.5 -131q0 -76 47.5 -130.5t129.5 -54.5q75 0 129 56zM390 537h-75v75h75v-75zM241 537h-75v75h75v-75z
" />
    <glyph glyph-name="aring.alt" unicode="&#xe046;" horiz-adv-x="554" 
d="M476 0h-54v46q-29 -29 -67 -43t-66 -14q-102 0 -169 71.5t-67 165.5q0 95 68 166t168 71q70 0 133 -47v37h54v-453zM418 97v267q-69 47 -129 47q-80 0 -128.5 -54t-48.5 -131q0 -76 47.5 -130.5t129.5 -54.5q75 0 129 56zM382 605q0 -41 -28 -69t-69 -28t-69 28t-28 69
t28 69t69 28t69 -28t28 -69zM343 605q0 24 -17 41t-41 17t-41 -17t-17 -41t17 -41t41 -17t41 17t17 41z" />
    <glyph glyph-name="g.alt" unicode="&#xe047;" horiz-adv-x="554" 
d="M476 -37q0 -95 -57.5 -147t-156.5 -52q-95 0 -178 27l15 52q74 -27 162 -27q67 0 112 33.5t45 108.5v76q-63 -44 -129 -44q-100 0 -168 71t-68 166q0 94 67 165.5t169 71.5q28 0 66 -14t67 -43v46h54v-490zM418 89v267q-54 56 -129 56q-82 0 -129.5 -54.5t-47.5 -130.5
q0 -77 48.5 -131t128.5 -54q60 0 129 47z" />
    <glyph glyph-name="i.alt" unicode="&#xe048;" horiz-adv-x="337" 
d="M169 566l-52 -52l-52 52l52 52zM312 13q-44 -24 -87 -24q-27 0 -49.5 7t-43 24t-32.5 49.5t-12 79.5v304h58v-309q0 -103 86 -103q46 0 80 28v-56z" />
    <glyph glyph-name="iacute.alt" unicode="&#xe049;" horiz-adv-x="337" 
d="M312 13q-44 -24 -87 -24q-27 0 -49.5 7t-43 24t-32.5 49.5t-12 79.5v304h58v-309q0 -103 86 -103q46 0 80 28v-56zM284 630l-134 -122h-72l134 122h72z" />
    <glyph glyph-name="igrave.alt" unicode="&#xe04a;" horiz-adv-x="337" 
d="M312 13q-44 -24 -87 -24q-27 0 -49.5 7t-43 24t-32.5 49.5t-12 79.5v304h58v-309q0 -103 86 -103q46 0 80 28v-56zM187 508h-72l-134 122h72z" />
    <glyph glyph-name="icircumflex.alt" unicode="&#xe04b;" horiz-adv-x="337" 
d="M312 13q-44 -24 -87 -24q-27 0 -49.5 7t-43 24t-32.5 49.5t-12 79.5v304h58v-309q0 -103 86 -103q46 0 80 28v-56zM249 508h-67l-70 80l-67 -80h-67l103 122h65z" />
    <glyph glyph-name="idieresis.alt" unicode="&#xe04c;" horiz-adv-x="337" 
d="M312 13q-44 -24 -87 -24q-27 0 -49.5 7t-43 24t-32.5 49.5t-12 79.5v304h58v-309q0 -103 86 -103q46 0 80 28v-56zM225 537h-75v75h75v-75zM76 537h-75v75h75v-75z" />
    <glyph glyph-name="l.alt" unicode="&#xe04d;" horiz-adv-x="214" 
d="M136 0h-58v672h58v-672z" />
    <glyph glyph-name="lslash.alt" unicode="&#xe04e;" horiz-adv-x="214" 
d="M136 431v241h-58v-286l-74 -55v-70l74 56v-317h58v361l80 60v70z" />
    <glyph glyph-name="q.alt" unicode="&#xe04f;" horiz-adv-x="584" 
d="M973 -196q-86 -46 -165 -46q-100 0 -225 63.5t-274 168.5q-3 0 -8.5 -0.5t-8.5 -0.5q-103 0 -171 71.5t-68 165.5t68 165.5t171 71.5t171 -71.5t68 -165.5q0 -74 -44 -136.5t-116 -87.5q131 -92 247 -145t191 -53q84 0 164 49v-49zM472 226q0 75 -49 130t-131 55
t-131 -55t-49 -130t49 -130t131 -55t131 55t49 130z" />
    <glyph glyph-name="s.alt" unicode="&#xe050;" horiz-adv-x="384" 
d="M340 115q0 -51 -41 -88.5t-101 -37.5q-79 0 -144 69l37 40q46 -58 107 -58q41 0 63 21.5t22 48.5q0 26 -19.5 46.5t-77.5 55.5q-63 39 -88 65.5t-25 66.5q0 53 38.5 86t91.5 33q31 0 59 -11.5t69 -43.5l-33 -40q-49 44 -98 44q-29 0 -50 -19t-21 -45q0 -23 19 -42.5
t78 -54.5q62 -37 88 -65.5t26 -70.5z" />
    <glyph glyph-name="scaron.alt" unicode="&#xe051;" horiz-adv-x="384" 
d="M340 115q0 -51 -41 -88.5t-101 -37.5q-79 0 -144 69l37 40q46 -58 107 -58q41 0 63 21.5t22 48.5q0 26 -19.5 46.5t-77.5 55.5q-63 39 -88 65.5t-25 66.5q0 53 38.5 86t91.5 33q31 0 59 -11.5t69 -43.5l-33 -40q-49 44 -98 44q-29 0 -50 -19t-21 -45q0 -23 19 -42.5
t78 -54.5q62 -37 88 -65.5t26 -70.5zM331 630l-103 -122h-65l-103 122h67l70 -80l67 80h67z" />
    <glyph glyph-name="y.alt" unicode="&#xe052;" horiz-adv-x="547" 
d="M469 -37q0 -95 -57.5 -147t-156.5 -52q-95 0 -178 27l15 52q74 -27 162 -27q67 0 112 33.5t45 108.5v91q-75 -59 -150 -59q-78 0 -132 49t-54 137v277h58v-282q0 -61 40.5 -95t95.5 -34q72 0 142 62v349h58v-490z" />
    <glyph glyph-name="yacute.alt" unicode="&#xe053;" horiz-adv-x="547" 
d="M469 -37q0 -95 -57.5 -147t-156.5 -52q-95 0 -178 27l15 52q74 -27 162 -27q67 0 112 33.5t45 108.5v91q-75 -59 -150 -59q-78 0 -132 49t-54 137v277h58v-282q0 -61 40.5 -95t95.5 -34q72 0 142 62v349h58v-490zM404 630l-134 -122h-72l134 122h72z" />
    <glyph glyph-name="ydieresis.alt" unicode="&#xe054;" horiz-adv-x="547" 
d="M469 -37q0 -95 -57.5 -147t-156.5 -52q-95 0 -178 27l15 52q74 -27 162 -27q67 0 112 33.5t45 108.5v91q-75 -59 -150 -59q-78 0 -132 49t-54 137v277h58v-282q0 -61 40.5 -95t95.5 -34q72 0 142 62v349h58v-490zM381 537h-75v75h75v-75zM232 537h-75v75h75v-75z" />
    <glyph glyph-name="fi.alt" unicode="&#xe055;" horiz-adv-x="632" 
d="M464 606l-52 -52l-52 52l52 52zM607 13q-44 -24 -87 -24q-58 0 -97.5 35.5t-39.5 124.5v304h58v-309q0 -103 86 -103q46 0 80 28v-56zM329 611q-42 20 -79 20q-43 0 -67 -21.5t-24 -81.5v-75h139v-50h-139v-403h-58v403h-69v50h69v70q0 83 39.5 121.5t107.5 38.5
q41 0 81 -16v-56z" />
    <glyph glyph-name="fl.alt" unicode="&#xe056;" horiz-adv-x="539" 
d="M461 0h-58v672h58v-672zM329 611q-42 20 -79 20q-43 0 -67 -21.5t-24 -81.5v-75h139v-50h-139v-403h-58v403h-69v50h69v70q0 83 39.5 121.5t107.5 38.5q41 0 81 -16v-56z" />
    <glyph glyph-name="zero.oldstyle" unicode="&#xf730;" horiz-adv-x="668" 
d="M602 257q0 -113 -81.5 -189.5t-186.5 -76.5t-186.5 76.5t-81.5 189.5t81.5 189.5t186.5 76.5t186.5 -76.5t81.5 -189.5zM540 257q0 87 -61 149t-145 62t-145 -62t-61 -149t61 -149t145 -62t145 62t61 149z" />
    <glyph glyph-name="one.oldstyle" unicode="&#xf731;" horiz-adv-x="261" 
d="M160 0h-62v488l62 42v-530z" />
    <glyph glyph-name="two.oldstyle" unicode="&#xf732;" horiz-adv-x="504" 
d="M440 0h-378q134 120 208.5 209.5t74.5 150.5q0 48 -33.5 78t-79.5 30q-83 0 -162 -83v69q83 69 171 69q73 0 120.5 -49t47.5 -115q0 -114 -205 -302h236v-57z" />
    <glyph glyph-name="three.oldstyle" unicode="&#xf733;" horiz-adv-x="500" 
d="M447 46q0 -82 -62.5 -146t-153.5 -64q-109 0 -188 92l40 45q66 -79 148 -79q69 0 110 47.5t41 104.5q0 75 -49 118t-112 43q-19 0 -29 -1l137 251h-273v57h373l-143 -264q63 -9 112 -63.5t49 -140.5z" />
    <glyph glyph-name="four.oldstyle" unicode="&#xf734;" horiz-adv-x="582" 
d="M547 0h-107v-158h-62v158h-369l431 523v-466h107v-57zM378 57v303l-242 -303h242z" />
    <glyph glyph-name="five.oldstyle" unicode="&#xf735;" horiz-adv-x="499" 
d="M446 46q0 -82 -62 -146t-154 -64q-108 0 -188 92l40 45q66 -79 148 -79q69 0 110 47.5t41 104.5q0 77 -50 119t-114 42q-63 0 -121 -28l22 335h322l-29 -57h-237l-12 -207q37 10 80 10q80 0 142 -60t62 -154z" />
    <glyph glyph-name="six.oldstyle" unicode="&#xf736;" horiz-adv-x="547" 
d="M492 202q0 -80 -52.5 -144t-148.5 -64q-91 0 -155 71t-64 199q0 48 15.5 105t67.5 142t134 161h86q-92 -79 -151 -164.5t-82 -165.5q63 62 152 62q83 0 140.5 -61t57.5 -141zM427 202q0 53 -37 100t-111 47q-67 0 -145 -72v-19q0 -105 49.5 -157t107.5 -52q60 0 98 39
t38 114z" />
    <glyph glyph-name="seven.oldstyle" unicode="&#xf737;" horiz-adv-x="493" 
d="M473 514l-301 -672h-66l274 615h-323v57h416z" />
    <glyph glyph-name="eight.oldstyle" unicode="&#xf738;" horiz-adv-x="534" 
d="M471 190q0 -84 -57.5 -140t-144.5 -56q-85 0 -143.5 55t-58.5 141q0 123 139 180q-104 49 -104 143q0 71 46 118t121 47t121 -47.5t46 -111.5q0 -97 -105 -148q140 -56 140 -181zM374 516q0 48 -29.5 78t-75.5 30q-45 0 -75 -31t-30 -77q0 -48 26.5 -75.5t78.5 -44.5
q61 23 83 52.5t22 67.5zM405 185q0 60 -33 96.5t-102 61.5q-137 -51 -137 -158q0 -57 38 -95.5t98 -38.5q62 0 99 38t37 96z" />
    <glyph glyph-name="nine.oldstyle" unicode="&#xf739;" horiz-adv-x="547" 
d="M480 253q0 -84 -50.5 -192t-169.5 -219h-86q185 157 236 333q-63 -62 -152 -62q-83 0 -140.5 61t-57.5 141t52.5 144t148.5 64q91 0 155 -71t64 -199zM418 240v19q0 105 -49.5 157t-107.5 52q-60 0 -98 -39t-38 -114q0 -53 37 -100t111 -47q67 0 145 72z" />
    </font>
</defs>
</svg>
