<?xml version="1.0" standalone="no"?>
<!DOCTYPE svg PUBLIC "-//W3C//DTD SVG 1.1//EN" "http://www.w3.org/Graphics/SVG/1.1/DTD/svg11.dtd" >
<svg>
<metadata>
Created by FontForge 20090622 at Thu Mar 17 13:45:35 2016
 By deploy user
Copyright 1999 International Typeface Corporation. All rights reserved.
</metadata>
<defs>
<font id="JohnstonITCStd-Medium" horiz-adv-x="564" >
  <font-face 
    font-family="Johnston ITC Std Medium"
    font-weight="500"
    font-stretch="normal"
    units-per-em="1000"
    panose-1="2 0 6 4 3 0 0 2 0 3"
    ascent="800"
    descent="-200"
    x-height="453"
    cap-height="672"
    bbox="-125 -252 1094 925"
    underline-thickness="79"
    underline-position="-31"
    unicode-range="U+0020-U+FB02"
  />
<missing-glyph horiz-adv-x="500" 
d="M12 0v665h475v-665h-475zM88 618l162 -243l161 243h-323zM60 575v-484l40 61l80 120l41 61zM440 575l-162 -242l162 -243v485zM411 48l-161 242l-162 -242h323z" />
    <glyph glyph-name="f_i" unicode="fi" horiz-adv-x="614" 
d="M574 590l-75 -75l-75 75l75 75zM545 0h-93v453h93v-453zM388 581q-44 21 -94 21q-84 0 -84 -97v-52h147v-79h-147v-374h-93v374h-92v79h92v52q0 77 39.5 129t129.5 52q51 0 102 -16v-89z" />
    <glyph glyph-name="f_l" unicode="fl" horiz-adv-x="727" 
d="M698 10q-45 -18 -93 -18q-80 0 -115 42.5t-35 123.5v514h93v-517q0 -83 67 -83q43 0 83 20v-82zM388 581q-44 21 -94 21q-84 0 -84 -97v-52h147v-79h-147v-374h-93v374h-92v79h92v52q0 77 39.5 129t129.5 52q51 0 102 -16v-89z" />
    <glyph glyph-name=".notdef" horiz-adv-x="500" 
d="M12 0v665h475v-665h-475zM88 618l162 -243l161 243h-323zM60 575v-484l40 61l80 120l41 61zM440 575l-162 -242l162 -243v485zM411 48l-161 242l-162 -242h323z" />
    <glyph glyph-name=".null" horiz-adv-x="0" 
 />
    <glyph glyph-name="nonmarkingreturn" horiz-adv-x="333" 
 />
    <glyph glyph-name="space" unicode=" " horiz-adv-x="204" 
 />
    <glyph glyph-name="exclam" unicode="!" horiz-adv-x="274" 
d="M190 535l-29 -363h-48l-29 363v137h106v-137zM212 53l-75 -75l-75 75l75 75z" />
    <glyph glyph-name="quotedbl" unicode="&#x22;" horiz-adv-x="396" 
d="M336 566l-27 -148h-42l-28 148v106h97v-106zM156 566l-26 -148h-42l-28 148v106h96v-106z" />
    <glyph glyph-name="numbersign" unicode="#" horiz-adv-x="670" 
d="M648 492l-15 -75h-107l-34 -163h108l-15 -75h-109l-46 -218h-86l46 218h-177l-46 -218h-86l46 218h-105l15 75h106l34 163h-107l15 75h108l46 219h86l-46 -219h177l46 219h86l-46 -219h106zM440 417h-177l-34 -163h177z" />
    <glyph glyph-name="dollar" unicode="$" 
d="M487 200q0 -73 -48 -135t-120 -76v-84h-67v82q-70 6 -115.5 35.5t-81.5 80.5l78 61q15 -29 46 -55.5t73 -33.5v251q-39 18 -61.5 31.5t-50.5 36t-41 53t-13 69.5q0 61 43.5 111t122.5 58v88h67v-89q86 -10 147 -79l-62 -59q-35 41 -85 52v-194q37 -18 61.5 -33
t51.5 -39.5t41 -57.5t14 -74zM252 437v163q-33 -6 -53.5 -28.5t-20.5 -52.5q0 -26 19 -44.5t55 -37.5zM395 193q0 60 -76 101v-212q33 14 54.5 43.5t21.5 67.5z" />
    <glyph glyph-name="percent" unicode="%" horiz-adv-x="758" 
d="M364 527q0 -65 -45.5 -110.5t-109.5 -45.5q-65 0 -110.5 45.5t-45.5 110.5q0 64 45.5 109.5t110.5 45.5t110 -45t45 -110zM647 672l-441 -672h-97l441 672h97zM705 147q0 -65 -45.5 -110.5t-109.5 -45.5t-110 45.5t-46 110.5q0 64 45.5 109.5t110.5 45.5q64 0 109.5 -45
t45.5 -110zM288 527q0 33 -23 56t-56 23t-56.5 -23t-23.5 -56t23.5 -56.5t56.5 -23.5t56 23.5t23 56.5zM629 147q0 33 -23 56t-56 23t-56.5 -23t-23.5 -56t23.5 -56.5t56.5 -23.5t56 23.5t23 56.5z" />
    <glyph glyph-name="ampersand" unicode="&#x26;" horiz-adv-x="685" 
d="M669 0h-122l-91 87q-86 -98 -206 -98q-80 0 -142.5 54.5t-62.5 137.5q0 53 31 94.5t101 82.5q-89 77 -89 154q0 63 49 111.5t130 48.5q87 0 133.5 -49t46.5 -105q0 -54 -33 -92.5t-104 -78.5l141 -136q46 63 73 133h96q-37 -96 -110 -191zM357 513q0 33 -26 57t-66 24
q-43 0 -65.5 -24.5t-22.5 -53.5q0 -41 79 -117q54 28 77.5 54t23.5 60zM399 142l-167 160q-94 -48 -94 -119q0 -46 35.5 -78t93.5 -32q76 0 132 69z" />
    <glyph glyph-name="quotesingle" unicode="'" horiz-adv-x="221" 
d="M159 566l-27 -148h-42l-28 148v106h97v-106z" />
    <glyph glyph-name="parenleft" unicode="(" horiz-adv-x="340" 
d="M308 -148h-101q-123 232 -123 478t123 478h101q-69 -122 -100 -231t-31 -247t31 -247t100 -231z" />
    <glyph glyph-name="parenright" unicode=")" horiz-adv-x="340" 
d="M256 330q0 -246 -123 -478h-101q69 122 100 231t31 247t-31 247t-100 231h101q123 -232 123 -478z" />
    <glyph glyph-name="asterisk" unicode="*" horiz-adv-x="416" 
d="M376 445l-41 -71l-105 81l19 -138h-82l19 138l-105 -81l-41 71l122 50l-122 49l41 71l105 -81l-19 138h82l-19 -138l105 81l41 -71l-122 -50z" />
    <glyph glyph-name="plus" unicode="+" 
d="M486 296h-164v-174h-79v174h-165v79h164v174h79v-174h165v-79z" />
    <glyph glyph-name="comma" unicode="," horiz-adv-x="230" 
d="M166 40q0 -64 -47 -101t-119 -37q-7 0 -19 2q56 21 72.5 47.5t16.5 84.5v77h96v-73z" />
    <glyph glyph-name="hyphen" unicode="-" horiz-adv-x="433" 
d="M381 206h-329v89h329v-89z" />
    <glyph glyph-name="period" unicode="." horiz-adv-x="230" 
d="M168 0h-106v111h106v-111z" />
    <glyph glyph-name="slash" unicode="/" horiz-adv-x="403" 
d="M371 800l-246 -929h-93l246 929h93z" />
    <glyph glyph-name="zero" unicode="0" 
d="M504 337q0 -86 -22.5 -163t-75 -131.5t-124.5 -54.5t-124.5 54.5t-75 131.5t-22.5 163t22.5 163t75 131.5t124.5 54.5t124.5 -54.5t75 -131.5t22.5 -163zM402 337q0 117 -34 187t-86 70t-86 -70t-34 -187t34 -187t86 -70t86 70t34 187z" />
    <glyph glyph-name="one" unicode="1" 
d="M332 0h-100v628l100 68v-696z" />
    <glyph glyph-name="two" unicode="2" 
d="M463 0h-393l186 314q5 8 14.5 24.5l13.5 23l12 20t11 19.5l9 17.5t8 17.5t5.5 15t5 15.5t2.5 14.5t1 15q0 46 -27 72t-67 26q-90 0 -169 -122v131q76 83 176 83q82 0 135.5 -53t53.5 -132q0 -46 -14.5 -82.5t-57.5 -108.5l-133 -221h228v-89z" />
    <glyph glyph-name="three" unicode="3" 
d="M478 213q0 -97 -66.5 -161t-161.5 -64q-109 0 -200 105l66 80q18 -35 54 -63t83 -28q28 0 54 10.5t47.5 42t21.5 78.5q0 52 -38 86t-109 34q-31 0 -71 -5l153 255h-236v89h398l-162 -268q60 -2 113.5 -53.5t53.5 -137.5z" />
    <glyph glyph-name="four" unicode="4" 
d="M554 178h-113v-178h-100v178h-341l441 508v-428h113v-80zM341 258v199l-173 -199h173z" />
    <glyph glyph-name="five" unicode="5" 
d="M476 672l-52 -89h-202l-13 -170q42 4 58 4q84 0 145 -57t61 -147q0 -97 -68 -161t-157 -64q-112 0 -201 102l66 80q18 -34 54.5 -61t83.5 -27q46 0 83 34.5t37 96.5q0 45 -38 83.5t-108 38.5q-65 0 -110 -17l28 354h333z" />
    <glyph glyph-name="six" unicode="6" 
d="M510 197q0 -79 -60.5 -145t-164.5 -66q-93 0 -155.5 71t-62.5 190q0 103 58 213.5t166 211.5h134q-184 -167 -231 -298q53 33 118 33q85 0 141.5 -61t56.5 -149zM408 197q0 56 -33.5 88.5t-86.5 32.5q-66 0 -116 -45q-4 -26 -4 -42q0 -67 34.5 -110t87.5 -43q54 0 86 37
t32 82z" />
    <glyph glyph-name="seven" unicode="7" 
d="M514 672l-328 -672h-105l284 583h-283v89h432z" />
    <glyph glyph-name="eight" unicode="8" 
d="M497 186q0 -76 -60 -136.5t-152 -60.5t-155 55t-63 142q0 61 32.5 105t97.5 83q-89 65 -89 145q0 70 51 118.5t126 48.5q86 0 131.5 -52t45.5 -115q0 -80 -94 -144q66 -40 97.5 -83.5t31.5 -105.5zM365 513q0 41 -22.5 62t-57.5 21q-34 0 -57 -21t-23 -56q0 -32 18 -53.5
t61 -45.5q39 15 60 42t21 51zM395 192q0 40 -32 75.5t-83 59.5q-56 -31 -83.5 -63.5t-27.5 -77.5q0 -42 31.5 -74.5t84.5 -32.5q39 0 74.5 28t35.5 85z" />
    <glyph glyph-name="nine" unicode="9" 
d="M500 425q0 -103 -58 -213.5t-166 -211.5h-134q184 167 231 298q-53 -33 -118 -33q-85 0 -141.5 61t-56.5 149q0 79 60.5 145t164.5 66q93 0 155.5 -71t62.5 -190zM399 441q0 67 -34.5 110t-87.5 43q-54 0 -86 -37t-32 -82q0 -56 33.5 -88.5t86.5 -32.5q33 0 65 14t51 31
q4 26 4 42z" />
    <glyph glyph-name="colon" unicode=":" horiz-adv-x="230" 
d="M168 272h-106v111h106v-111zM168 0h-106v111h106v-111z" />
    <glyph glyph-name="semicolon" unicode=";" horiz-adv-x="230" 
d="M168 272h-101v111h101v-111zM166 40q0 -64 -47 -101t-119 -37q-7 0 -19 2q56 21 72.5 47.5t16.5 84.5v77h96v-73z" />
    <glyph glyph-name="less" unicode="&#x3c;" 
d="M486 122l-408 174v79l408 174v-79l-315 -134l315 -135v-79z" />
    <glyph glyph-name="equal" unicode="=" 
d="M486 369h-408v79h408v-79zM486 223h-408v79h408v-79z" />
    <glyph glyph-name="greater" unicode="&#x3e;" 
d="M486 296l-408 -174v79l315 134l-315 135v79l408 -174v-79z" />
    <glyph glyph-name="question" unicode="?" horiz-adv-x="421" 
d="M385 522q0 -51 -21.5 -84.5t-68.5 -77.5q-71 -67 -79 -79q-5 -8 -5 -17t5.5 -16.5t26.5 -28.5l-62 -62q-38 33 -51.5 58t-13.5 54q0 33 20 59t75 76q45 40 61 62.5t16 55.5t-24.5 53.5t-61.5 20.5q-40 0 -67.5 -17.5t-47.5 -61.5l-75 49q59 120 190 120q88 0 135.5 -48.5
t47.5 -115.5zM256 53l-75 -75l-75 75l75 75z" />
    <glyph glyph-name="at" unicode="@" horiz-adv-x="969" 
d="M909 326q0 -106 -55 -176.5t-142 -70.5q-97 0 -136 77q-71 -66 -139 -66q-64 0 -107.5 39t-43.5 96q0 79 77 123q57 32 192 32v14q0 49 -28.5 70t-66.5 21q-73 0 -148 -50l23 93q76 35 148 35q75 0 118 -45t43 -129v-150q0 -46 21.5 -69.5t50.5 -23.5q46 0 79.5 46.5
t33.5 133.5q0 143 -101 244t-244 101q-104 0 -184.5 -53.5t-120 -131t-39.5 -160.5q0 -74 23.5 -139t69 -117.5t122 -83t175.5 -30.5q54 0 115 13.5t101 31.5l29 -65q-119 -51 -245 -51q-216 0 -343 124t-127 317q0 107 54 202t152.5 154.5t217.5 59.5q173 0 299 -121.5
t126 -294.5zM558 215q-3 23 -3 46v46q-100 0 -142 -23q-33 -18 -33 -54q0 -25 18.5 -43.5t54.5 -18.5q49 0 105 47z" />
    <glyph glyph-name="A" unicode="A" horiz-adv-x="680" 
d="M664 0h-103l-68 170h-306l-68 -170h-103l279 679h90zM458 257l-118 311l-118 -311h236z" />
    <glyph glyph-name="B" unicode="B" horiz-adv-x="593" 
d="M539 199q0 -95 -67 -147t-153 -52h-242v672h191q102 0 152.5 -50.5t50.5 -118.5q0 -86 -85 -128q73 -19 113 -68t40 -108zM374 497q0 36 -29.5 63t-82.5 27h-89v-190h75q126 0 126 100zM437 199q0 112 -150 112h-114v-225h129q61 0 98 29.5t37 83.5z" />
    <glyph glyph-name="C" unicode="C" horiz-adv-x="692" 
d="M650 514q-125 82 -236 82q-107 0 -181 -75t-74 -185t74 -185t181 -75q123 0 235 80v-104q-110 -66 -235 -66q-150 0 -253.5 99t-103.5 251t103.5 251t253.5 99q119 0 236 -68v-104z" />
    <glyph glyph-name="D" unicode="D" horiz-adv-x="710" 
d="M653 336q0 -146 -103.5 -241t-254.5 -95h-218v672h213q150 0 256.5 -94.5t106.5 -241.5zM551 336q0 108 -76 178.5t-183 70.5h-119v-498h112q126 0 196 71t70 178z" />
    <glyph glyph-name="E" unicode="E" horiz-adv-x="546" 
d="M502 0h-425v672h425v-87h-329v-181h257v-87h-257v-230h329v-87z" />
    <glyph glyph-name="F" unicode="F" horiz-adv-x="518" 
d="M489 585h-316v-181h244v-87h-244v-317h-96v672h412v-87z" />
    <glyph glyph-name="G" unicode="G" horiz-adv-x="752" 
d="M679 65q-55 -33 -127 -56t-132 -23q-150 0 -256.5 99t-106.5 251q0 147 104 248.5t257 101.5q122 0 251 -70v-104q-116 84 -253 84q-107 0 -182 -75t-75 -185t76.5 -185t184.5 -75q79 0 163 38v160h-158v87h254v-296z" />
    <glyph glyph-name="H" unicode="H" horiz-adv-x="730" 
d="M653 0h-96v317h-384v-317h-96v672h96v-268h384v268h96v-672z" />
    <glyph glyph-name="I" unicode="I" horiz-adv-x="250" 
d="M173 0h-96v672h96v-672z" />
    <glyph glyph-name="J" unicode="J" horiz-adv-x="448" 
d="M384 171q0 -84 -51 -134.5t-132 -50.5q-74 0 -116.5 41t-60.5 93l94 47q3 -38 27 -64t59 -26q84 0 84 94v501h96v-501z" />
    <glyph glyph-name="K" unicode="K" horiz-adv-x="630" 
d="M618 0h-131l-314 341v-341h-96v672h96v-260l275 260h130l-324 -292z" />
    <glyph glyph-name="L" unicode="L" horiz-adv-x="516" 
d="M489 0h-412v672h96v-585h316v-87z" />
    <glyph glyph-name="M" unicode="M" horiz-adv-x="826" 
d="M749 0h-96v530l-240 -304l-240 304v-530h-96v672h96l240 -311l240 311h96v-672z" />
    <glyph glyph-name="N" unicode="N" horiz-adv-x="766" 
d="M689 0h-96l-420 529v-529h-96v672h96l420 -529v529h96v-672z" />
    <glyph glyph-name="O" unicode="O" horiz-adv-x="828" 
d="M771 336q0 -152 -103.5 -251t-253.5 -99t-253.5 99t-103.5 251t103.5 251t253.5 99t253.5 -99t103.5 -251zM669 336q0 110 -74 185t-181 75t-181 -75t-74 -185t74 -185t181 -75t181 75t74 185z" />
    <glyph glyph-name="P" unicode="P" horiz-adv-x="539" 
d="M513 472q0 -98 -67 -151t-160 -53h-113v-268h-96v672h203q118 0 175.5 -59t57.5 -141zM409 470q0 50 -31.5 82.5t-104.5 32.5h-100v-230h104q61 0 96.5 30t35.5 85z" />
    <glyph glyph-name="Q" unicode="Q" horiz-adv-x="829" 
d="M772 45l-65 -65l-75 75q-94 -69 -218 -69q-150 0 -253.5 99t-103.5 251t103.5 251t253.5 99t253.5 -99t103.5 -251q0 -125 -73 -217zM669 336q0 110 -74 185t-181 75t-181 -75t-74 -185t74 -185t181 -75q82 0 149 48l-70 70l66 66l68 -69q42 66 42 145z" />
    <glyph glyph-name="R" unicode="R" horiz-adv-x="614" 
d="M587 0h-116l-210 300h-88v-300h-96v672h192q106 0 159.5 -58t53.5 -128q0 -61 -32.5 -103.5t-86.5 -64.5zM380 489q0 45 -33 70.5t-91 25.5h-83v-198h84q63 0 93 29t30 73z" />
    <glyph glyph-name="S" unicode="S" horiz-adv-x="565" 
d="M517 193q0 -89 -63.5 -147t-149.5 -58q-99 0 -158 42.5t-98 126.5l86 54q47 -134 164 -134q47 0 81.5 30t34.5 75q0 34 -24 60t-59.5 41.5l-77.5 35.5t-77.5 40t-59.5 56.5t-24 84.5q0 82 57 134t143 52q135 0 210 -115l-75 -60q-45 84 -133 84q-52 0 -75.5 -26.5
t-23.5 -58.5t33 -57t80.5 -44.5t95 -44t80.5 -68t33 -103.5z" />
    <glyph glyph-name="T" unicode="T" horiz-adv-x="578" 
d="M550 585h-213v-585h-96v585h-213v87h522v-87z" />
    <glyph glyph-name="U" unicode="U" horiz-adv-x="744" 
d="M672 287q0 -74 -26.5 -133.5t-70 -95t-96 -54t-107.5 -18.5t-107.5 18.5t-96 54t-70 95t-26.5 133.5v385h96v-389q0 -57 20 -99.5t52 -64.5t65 -32.5t67 -10.5t67 10.5t65 32.5t52 64.5t20 99.5v389h96v-385z" />
    <glyph glyph-name="V" unicode="V" horiz-adv-x="669" 
d="M652 672l-274 -679h-87l-274 679h104l215 -552l214 552h102z" />
    <glyph glyph-name="W" unicode="W" horiz-adv-x="1003" 
d="M976 672l-220 -679h-100l-154 513l-155 -513h-100l-220 679h101l169 -548l161 548h87l161 -548l169 548h101z" />
    <glyph glyph-name="X" unicode="X" horiz-adv-x="682" 
d="M650 0h-117l-192 280l-192 -280h-117l251 353l-227 319h116l169 -248l169 248h116l-227 -319z" />
    <glyph glyph-name="Y" unicode="Y" horiz-adv-x="602" 
d="M585 672l-236 -355v-317h-96v317l-236 355h114l170 -278l170 278h114z" />
    <glyph glyph-name="Z" unicode="Z" horiz-adv-x="649" 
d="M607 672l-415 -585h413v-87h-583l416 585h-383v87h552z" />
    <glyph glyph-name="bracketleft" unicode="[" horiz-adv-x="275" 
d="M259 -148h-189v956h189v-75h-99v-806h99v-75z" />
    <glyph glyph-name="backslash" unicode="\" horiz-adv-x="383" 
d="M361 -129h-93l-246 929h93z" />
    <glyph glyph-name="bracketright" unicode="]" horiz-adv-x="275" 
d="M205 -148h-189v75h99v806h-99v75h189v-956z" />
    <glyph glyph-name="asciicircum" unicode="^" 
d="M496 360h-79l-135 252l-134 -252h-80l174 326h79z" />
    <glyph glyph-name="underscore" unicode="_" horiz-adv-x="401" 
d="M404 -164h-407v59h407v-59z" />
    <glyph glyph-name="grave" unicode="`" horiz-adv-x="500" 
d="M304 508h-108l-134 122h108z" />
    <glyph glyph-name="a" unicode="a" horiz-adv-x="472" 
d="M402 0h-85v42q-69 -52 -126 -52q-64 0 -107.5 39t-43.5 96q0 79 77 123q57 32 192 32v14q0 48 -28.5 69.5t-66.5 21.5q-73 0 -148 -50l23 93q76 35 148 35q75 0 120 -45t45 -129v-289zM309 112v95q-100 0 -142 -23q-33 -18 -33 -54q0 -25 18.5 -42.5t54.5 -17.5
q50 0 102 42z" />
    <glyph glyph-name="b" unicode="b" horiz-adv-x="578" 
d="M528 228q0 -59 -22 -106t-57 -74.5t-73.5 -42t-75.5 -14.5q-74 0 -140 51v-42h-85v672h93v-247q60 38 130 38q90 0 160 -66.5t70 -168.5zM430 228q0 63 -38 106t-102 43q-69 0 -122 -42v-209q57 -49 120 -49q55 0 98.5 39t43.5 112z" />
    <glyph glyph-name="c" unicode="c" horiz-adv-x="489" 
d="M443 27q-62 -37 -151 -37q-99 0 -170.5 63.5t-71.5 174.5q0 97 69 167.5t173 70.5q83 0 151 -39v-102q-80 54 -148 54q-66 0 -106.5 -43.5t-40.5 -107.5q0 -75 45.5 -113t103.5 -38q87 0 146 52v-102z" />
    <glyph glyph-name="d" unicode="d" horiz-adv-x="578" 
d="M503 0h-85v42q-66 -51 -140 -51q-37 0 -75.5 14.5t-73.5 42t-57 74.5t-22 106q0 102 70 168.5t160 66.5q70 0 130 -38v247h93v-672zM410 126v209q-53 42 -122 42q-64 0 -102 -43t-38 -106q0 -73 43.5 -112t98.5 -39q63 0 120 49z" />
    <glyph glyph-name="e" unicode="e" horiz-adv-x="537" 
d="M486 200h-338q4 -62 44.5 -95t101.5 -33q102 0 184 67v-92q-86 -59 -196 -59q-106 0 -169 65.5t-63 175.5q0 95 57.5 164.5t163.5 69.5q91 0 153 -64t62 -193v-6zM383 278q-3 45 -35 75t-82 30q-53 0 -82 -30t-36 -75h235z" />
    <glyph glyph-name="f" unicode="f" horiz-adv-x="403" 
d="M388 581q-44 21 -94 21q-84 0 -84 -97v-52h147v-79h-147v-374h-93v374h-92v79h92v52q0 77 39.5 129t129.5 52q51 0 102 -16v-89z" />
    <glyph glyph-name="g" unicode="g" horiz-adv-x="526" 
d="M504 375h-88q33 -35 33 -85q0 -70 -52.5 -118.5t-133.5 -48.5q-35 0 -74 10q-25 -18 -25 -33q0 -5 1.5 -9t5.5 -7.5t9.5 -6t15.5 -5.5t20 -5.5l27 -6.5t33.5 -7.5l41.5 -9t49 -11.5q129 -30 129 -133q0 -75 -68 -113t-176 -38q-125 0 -183.5 40t-58.5 97q0 46 30 77.5
t86 59.5q-57 21 -57 62q0 45 60 78q-72 47 -72 128q0 83 58 130.5t137 47.5q46 0 85 -15h167v-78zM357 296q0 34 -28 61t-82 27q-43 0 -71 -25.5t-28 -66.5q0 -40 30 -64t77 -24q43 0 72.5 23.5t29.5 68.5zM407 -106q0 17 -10 29t-32 21t-42 15t-56.5 14.5t-59.5 15.5
q-55 -21 -81.5 -46.5t-26.5 -48.5q0 -11 7 -21.5t22.5 -21.5t48.5 -17.5t78 -6.5q81 0 116.5 20t35.5 47z" />
    <glyph glyph-name="h" unicode="h" horiz-adv-x="576" 
d="M506 0h-93v244q0 62 -31 96t-86 34q-63 0 -128 -48v-326h-93v672h93v-256q69 45 140 45q30 0 59.5 -8.5t63 -30.5t54.5 -69t21 -114v-239z" />
    <glyph glyph-name="i" unicode="i" horiz-adv-x="230" 
d="M190 590l-75 -75l-75 75l75 75zM161 0h-93v453h93v-453z" />
    <glyph glyph-name="j" unicode="j" horiz-adv-x="232" 
d="M192 590l-75 -75l-75 75l75 75zM163 -88q0 -61 -35 -100.5t-105 -39.5q-30 0 -55 5v85q15 -6 34 -6q36 0 52 16t16 56v525h93v-541z" />
    <glyph glyph-name="k" unicode="k" horiz-adv-x="518" 
d="M506 0h-126l-209 206h-3v-206h-93v672h93v-390l182 171h126l-236 -204z" />
    <glyph glyph-name="l" unicode="l" horiz-adv-x="339" 
d="M310 9q-42 -17 -85 -17h-5q-80 0 -115 42.5t-35 123.5v514h93v-517q0 -83 67 -83q42 0 80 19v-82z" />
    <glyph glyph-name="m" unicode="m" horiz-adv-x="882" 
d="M812 0h-93v246q0 65 -28.5 96.5t-78.5 31.5q-59 0 -127 -52q5 -27 5 -52v-270h-93v246q0 65 -28.5 96.5t-78.5 31.5q-59 0 -122 -48v-326h-93v453h85v-43q82 51 159 51q87 0 135 -66q97 66 182 66q74 0 125 -49.5t51 -141.5v-270z" />
    <glyph glyph-name="n" unicode="n" horiz-adv-x="576" 
d="M506 0h-93v244q0 62 -31 96t-86 34q-63 0 -128 -48v-326h-93v453h85v-42q73 50 148 50q30 0 59.5 -8.5t63 -30.5t54.5 -69t21 -114v-239z" />
    <glyph glyph-name="o" unicode="o" horiz-adv-x="584" 
d="M534 226q0 -100 -69 -168.5t-173 -68.5t-173 68.5t-69 168.5t69 168.5t173 68.5t173 -68.5t69 -168.5zM437 226q0 67 -41.5 109t-103.5 42t-103.5 -42t-41.5 -109t41.5 -109t103.5 -42t103.5 42t41.5 109z" />
    <glyph glyph-name="p" unicode="p" horiz-adv-x="578" 
d="M528 225q0 -102 -70 -168.5t-160 -66.5q-70 0 -130 38v-247h-93v672h85v-42q66 51 140 51q37 0 75.5 -14.5t73.5 -42t57 -74.5t22 -106zM430 225q0 73 -43.5 112t-98.5 39q-63 0 -120 -49v-209q53 -42 122 -42q64 0 102 43t38 106z" />
    <glyph glyph-name="q" unicode="q" horiz-adv-x="578" 
d="M503 -219h-93v247q-60 -38 -130 -38q-90 0 -160 66.5t-70 168.5q0 59 22 106t57 74.5t73.5 42t75.5 14.5q74 0 140 -51v42h85v-672zM410 118v209q-57 49 -120 49q-55 0 -98.5 -39t-43.5 -112q0 -63 38 -106t102 -43q69 0 122 42z" />
    <glyph glyph-name="r" unicode="r" horiz-adv-x="385" 
d="M365 347q-50 29 -94 29q-57 0 -103 -50v-326h-93v453h85v-46q58 54 120 54q36 0 85 -18v-96z" />
    <glyph glyph-name="s" unicode="s" horiz-adv-x="459" 
d="M413 136q0 -63 -48.5 -105.5t-137.5 -42.5q-97 0 -176 37v95q89 -48 180 -48q39 0 63 13.5t24 35.5q0 31 -53 47q-98 30 -134 45t-55 33q-32 30 -32 79q0 58 45.5 98t132.5 40q66 0 149 -30v-92q-78 40 -150 40q-84 0 -84 -46q0 -17 15 -27t55 -23q82 -25 114 -37.5
t51 -27.5q41 -30 41 -84z" />
    <glyph glyph-name="t" unicode="t" horiz-adv-x="406" 
d="M379 13q-45 -21 -101 -21q-29 0 -54 6t-49.5 21t-39 46.5t-14.5 75.5v233h-92v79h92v138h93v-138h137v-79h-137v-226q0 -42 20 -59t58 -17q41 0 87 23v-82z" />
    <glyph glyph-name="u" unicode="u" horiz-adv-x="576" 
d="M501 0h-85v42q-74 -51 -148 -51q-30 0 -59.5 8.5t-63 30.5t-54.5 69t-21 114v240h93v-245q0 -62 31 -96t86 -34q61 0 128 49v326h93v-453z" />
    <glyph glyph-name="v" unicode="v" horiz-adv-x="518" 
d="M513 453l-204 -453h-86l-204 453h98l149 -352l149 352h98z" />
    <glyph glyph-name="w" unicode="w" horiz-adv-x="775" 
d="M761 453l-183 -453h-82l-108 303l-109 -303h-82l-183 453h96l125 -330l118 330h69l118 -330l125 330h96z" />
    <glyph glyph-name="x" unicode="x" horiz-adv-x="490" 
d="M470 0h-108l-117 182l-117 -182h-108l167 243l-158 210h115l101 -150l101 150h115l-158 -210z" />
    <glyph glyph-name="y" unicode="y" horiz-adv-x="502" 
d="M486 453l-283 -560q-34 -67 -72 -94.5t-92 -27.5q-29 0 -51 5v83q17 -6 38 -6q33 0 55 14.5t40 50.5l70 138l-203 397h98l153 -308l149 308h98z" />
    <glyph glyph-name="z" unicode="z" horiz-adv-x="477" 
d="M436 0h-407l249 370h-220v83h374l-249 -370h253v-83z" />
    <glyph glyph-name="braceleft" unicode="{" horiz-adv-x="342" 
d="M315 -148h-8q-52 0 -88 9t-54.5 21t-28 35.5t-11 40.5t-1.5 48v189q0 81 -96 111v48q96 30 96 111v189q0 31 1.5 48t11 40.5t28 35.5t54.5 21t88 9h8v-75q-66 0 -83.5 -17.5t-17.5 -72.5v-176q0 -66 -25 -95t-67 -42q42 -13 67 -42t25 -95v-176q0 -55 17.5 -72.5
t83.5 -17.5v-75z" />
    <glyph glyph-name="bar" unicode="|" horiz-adv-x="219" 
d="M149 -238h-79v924h79v-924z" />
    <glyph glyph-name="braceright" unicode="}" horiz-adv-x="342" 
d="M314 306q-96 -30 -96 -111v-189q0 -31 -1.5 -48t-11 -40.5t-28 -35.5t-54.5 -21t-88 -9h-8v75q66 0 83.5 17.5t17.5 72.5v176q0 66 25 95t67 42q-42 13 -67 42t-25 95v176q0 55 -17.5 72.5t-83.5 17.5v75h8q52 0 88 -9t54.5 -21t28 -35.5t11 -40.5t1.5 -48v-189
q0 -81 96 -111v-48z" />
    <glyph glyph-name="asciitilde" unicode="~" 
d="M505 297q-74 -48 -123 -48q-40 0 -105 34.5t-92 34.5q-12 0 -26 -4t-29 -12l-25.5 -14t-27.5 -17.5t-22 -14.5v103q72 47 130 47q39 0 105.5 -34.5t89.5 -34.5q14 0 32.5 7.5t31.5 15.5l34 21.5l27 17.5v-102z" />
    <glyph glyph-name="uni00A0" unicode="&#xa0;" 
 />
    <glyph glyph-name="exclamdown" unicode="&#xa1;" horiz-adv-x="274" 
d="M212 397l-75 -75l-75 75l75 75zM190 -222h-106v137l29 363h48l29 -363v-137z" />
    <glyph glyph-name="cent" unicode="&#xa2;" 
d="M473 27q-48 -29 -119 -35v-87h-65v87q-88 10 -148.5 72.5t-60.5 163.5q0 88 58.5 156t150.5 80v87h65v-87q69 -8 119 -37v-102q-62 43 -119 52v-298q73 8 119 50v-102zM289 82v293q-52 -12 -81.5 -52.5t-29.5 -94.5q0 -62 32 -98.5t79 -47.5z" />
    <glyph glyph-name="sterling" unicode="&#xa3;" 
d="M501 89l-39 -89h-429q77 72 99 277h-81l34 89h54v2q0 84 20 173q16 68 64 106.5t107 38.5q84 0 153 -67l-52 -86q-49 61 -96 61q-31 0 -55.5 -20.5t-30.5 -62.5q-13 -89 -13 -143v-2h175l-34 -89h-148q-11 -120 -39 -188h311z" />
    <glyph glyph-name="currency" unicode="&#xa4;" horiz-adv-x="639" 
d="M545 174l-48 -49l-67 67q-52 -37 -117 -37q-66 0 -116 37l-68 -67l-48 49l69 65q-38 57 -38 115q0 63 38 115l-69 66l48 49l68 -67q55 37 116 37q66 0 116 -37q46 44 68 67l48 -49l-68 -66q37 -52 37 -115q0 -60 -37 -115zM446 355q0 56 -40 93.5t-92 37.5
q-56 0 -94.5 -39t-38.5 -92q0 -54 39 -93t93 -39q55 0 94 39t39 93z" />
    <glyph glyph-name="yen" unicode="&#xa5;" 
d="M566 672l-204 -307h112v-75h-144v-60h144v-75h-144v-155h-96v155h-144v75h144v60h-144v75h112l-204 307h114l170 -268l170 268h114z" />
    <glyph glyph-name="brokenbar" unicode="&#xa6;" horiz-adv-x="219" 
d="M149 426h-79v382h79v-382zM149 -148h-79v382h79v-382z" />
    <glyph glyph-name="section" unicode="&#xa7;" horiz-adv-x="522" 
d="M482 222q0 -110 -121 -146q98 -61 98 -136q0 -80 -59.5 -130t-145.5 -50q-60 0 -117.5 31t-89.5 83l75 60q18 -35 55.5 -60t76.5 -25q42 0 70.5 23.5t28.5 54.5q0 28 -32 54t-78.5 48t-92.5 47t-78 62t-32 82q0 115 131 149q-93 63 -93 152q0 65 55 115t142 50
q121 0 190 -111l-80 -57q-18 36 -48.5 57.5t-68.5 21.5q-42 0 -63.5 -20.5t-21.5 -52.5q0 -30 31 -57t74.5 -49.5l87.5 -47.5t75 -63.5t31 -84.5zM383 215q0 16 -8.5 30t-30.5 28.5t-35.5 22t-48.5 24.5q-51 -5 -86 -30t-35 -59q0 -20 19 -39t41 -31.5t63 -32.5
q54 5 87.5 28t33.5 59z" />
    <glyph glyph-name="dieresis" unicode="&#xa8;" horiz-adv-x="500" 
d="M381 522h-96v96h96v-96zM214 522h-96v96h96v-96z" />
    <glyph glyph-name="copyright" unicode="&#xa9;" horiz-adv-x="726" 
d="M686 305q0 -132 -94.5 -225.5t-228.5 -93.5t-228.5 93.5t-94.5 225.5t94.5 225.5t228.5 93.5t228.5 -93.5t94.5 -225.5zM618 305q0 104 -74.5 178t-180.5 74t-181 -74t-75 -178t75 -178t181 -74t180.5 74t74.5 178zM500 157q-64 -44 -136 -44q-87 0 -136 58.5t-49 134.5
q0 81 53 137t137 56q61 0 131 -37v-76q-75 46 -131 46q-58 0 -87.5 -40t-29.5 -86q0 -52 28.5 -88.5t83.5 -36.5q33 0 62 10.5t74 43.5v-78z" />
    <glyph glyph-name="ordfeminine" unicode="&#xaa;" horiz-adv-x="325" 
d="M275 385h-62v21q-37 -27 -74 -27q-42 0 -70.5 25.5t-28.5 63.5q0 53 50 82q36 21 118 21v4q0 52 -55 52q-45 0 -100 -37l18 73q49 23 97 23q49 0 78 -29.5t29 -84.5v-187zM208 463v52q-60 -2 -81 -14q-19 -11 -19 -29q0 -14 10 -23.5t31 -9.5q29 0 59 24z" />
    <glyph glyph-name="guillemotleft" unicode="&#xab;" horiz-adv-x="490" 
d="M478 35h-105l-148 191l148 191h105l-148 -191zM280 35h-105l-148 191l148 191h105l-148 -191z" />
    <glyph glyph-name="logicalnot" unicode="&#xac;" 
d="M486 223h-87v146h-321v79h408v-225z" />
    <glyph glyph-name="uni00AD" unicode="&#xad;" horiz-adv-x="433" 
d="M381 206h-329v89h329v-89z" />
    <glyph glyph-name="registered" unicode="&#xae;" horiz-adv-x="377" 
d="M335 551q0 -60 -43.5 -102t-103.5 -42t-103 42t-43 102t43 102t103 42t103.5 -42t43.5 -102zM295 551q0 43 -32 73.5t-75 30.5q-44 0 -75 -30.5t-31 -73.5t31 -73.5t75 -30.5q43 0 75 30.5t32 73.5zM262 481h-43l-37 60h-5v-60h-37v150h48q22 0 39 -11.5t17 -32.5
q0 -27 -24 -40zM207 587q0 9 -18 9h-12v-21h15q15 0 15 12z" />
    <glyph glyph-name="macron" unicode="&#xaf;" horiz-adv-x="500" 
d="M386 538h-275v68h275v-68z" />
    <glyph glyph-name="degree" unicode="&#xb0;" horiz-adv-x="314" 
d="M277 566q0 -50 -35.5 -85t-84.5 -35t-84.5 35t-35.5 85t35.5 85t84.5 35t84.5 -35t35.5 -85zM218 566q0 26 -18 43.5t-43 17.5t-43 -17.5t-18 -43.5t18 -43.5t43 -17.5t43 17.5t18 43.5z" />
    <glyph glyph-name="plusminus" unicode="&#xb1;" 
d="M486 296h-164v-174h-79v174h-165v79h164v174h79v-174h165v-79zM486 0h-408v79h408v-79z" />
    <glyph glyph-name="twosuperior" unicode="&#xb2;" horiz-adv-x="372" 
d="M306 270h-266l123 193l11 16.5l14 21.5t11.5 20.5t10 23.5t3.5 20q0 23 -14.5 35.5t-36.5 12.5q-52 0 -112 -85v102q52 52 117 52q53 0 88.5 -33t35.5 -81q0 -29 -9.5 -51t-36.5 -64l-76 -117h137v-66z" />
    <glyph glyph-name="threesuperior" unicode="&#xb3;" horiz-adv-x="372" 
d="M318 673l-102 -156q38 -6 68.5 -37t30.5 -80q0 -60 -43.5 -98.5t-106.5 -38.5q-73 0 -135 68l53 59q33 -59 84 -59q27 0 48.5 16.5t21.5 52.5q0 27 -21.5 45t-63.5 18q-17 0 -59 -5l97 149h-141v66h269z" />
    <glyph glyph-name="acute" unicode="&#xb4;" horiz-adv-x="500" 
d="M441 630l-134 -122h-108l134 122h108z" />
    <glyph glyph-name="mu" unicode="&#xb5;" horiz-adv-x="562" 
d="M521 523l-76 -357q-11 -53 -11 -65q0 -18 8 -25.5t27 -7.5q10 0 16 1l-15 -70q-24 -5 -53 -5q-31 0 -47.5 14.5t-25.5 48.5q-43 -64 -132 -64q-77 0 -125 57l-54 -259h-88l155 732h88l-63 -293q-7 -31 -7 -65q0 -49 25.5 -75t72.5 -26q66 0 103 46.5t59 150.5l56 262h87z
" />
    <glyph glyph-name="paragraph" unicode="&#xb6;" horiz-adv-x="624" 
d="M557 -150h-82v747h-102v-747h-82v364q-104 0 -146 29q-48 34 -72 78.5t-24 114.5q0 129 106 203q48 33 155 33h247v-822z" />
    <glyph glyph-name="periodcentered" unicode="&#xb7;" horiz-adv-x="230" 
d="M168 280h-106v111h106v-111z" />
    <glyph glyph-name="cedilla" unicode="&#xb8;" horiz-adv-x="500" 
d="M327 -104q0 -41 -30 -66t-80 -25q-18 0 -28 2v50q12 -7 28 -7q18 0 32.5 10t14.5 33q0 17 -14.5 28.5t-39.5 12.5l14 68h53l-6 -37q22 -5 39 -23t17 -46z" />
    <glyph glyph-name="onesuperior" unicode="&#xb9;" horiz-adv-x="372" 
d="M224 270h-76v375l76 45v-420z" />
    <glyph glyph-name="ordmasculine" unicode="&#xba;" horiz-adv-x="395" 
d="M355 532q0 -65 -45 -109.5t-113 -44.5t-112.5 44.5t-44.5 109.5t44.5 109.5t112.5 44.5t113 -44.5t45 -109.5zM284 532q0 40 -25 65t-62 25t-61.5 -25t-24.5 -65t24.5 -65t61.5 -25t62 25t25 65z" />
    <glyph glyph-name="guillemotright" unicode="&#xbb;" horiz-adv-x="490" 
d="M463 226l-148 -191h-105l148 191l-148 191h105zM265 226l-148 -191h-105l148 191l-148 191h105z" />
    <glyph glyph-name="onequarter" unicode="&#xbc;" horiz-adv-x="793" 
d="M761 107h-75v-107h-76v107h-236l312 319v-263h75v-56zM454 699l-188 -711h-68l188 711h68zM176 270h-76v375l76 45v-420zM610 163v104l-102 -104h102z" />
    <glyph glyph-name="onehalf" unicode="&#xbd;" horiz-adv-x="828" 
d="M728 0h-266l123 193l11 16.5l14 21.5t11.5 20.5t10 23.5t3.5 20q0 23 -14.5 35.5t-36.5 12.5q-52 0 -112 -85v102q52 52 117 52q53 0 88.5 -33t35.5 -81q0 -29 -9.5 -51t-36.5 -64l-76 -117h137v-66zM454 699l-188 -711h-68l188 711h68zM176 270h-76v375l76 45v-420z" />
    <glyph glyph-name="threequarters" unicode="&#xbe;" horiz-adv-x="923" 
d="M891 107h-76v-107h-76v107h-235l311 319v-263h76v-56zM585 699l-188 -711h-68l188 711h68zM338 673l-102 -156q38 -6 68.5 -37.5t30.5 -79.5q0 -60 -43.5 -98.5t-106.5 -38.5q-73 0 -135 68l53 59q31 -59 84 -59q26 0 48 16.5t22 52.5q0 27 -21.5 45t-63.5 18
q-17 0 -59 -5l97 149h-141v66h269zM739 163v104l-101 -104h101z" />
    <glyph glyph-name="questiondown" unicode="&#xbf;" horiz-adv-x="421" 
d="M294 401l-75 -75l-75 75l75 75zM388 -112q-59 -120 -190 -120q-88 0 -135.5 48.5t-47.5 115.5q0 51 21.5 84.5t68.5 77.5q71 67 79 79q5 8 5 17t-5.5 16.5t-26.5 28.5l62 62q38 -33 51.5 -58t13.5 -54q0 -33 -20 -59t-75 -76q-45 -40 -61 -62.5t-16 -55.5t24.5 -53.5
t61.5 -20.5q40 0 67.5 17.5t47.5 61.5z" />
    <glyph glyph-name="Agrave" unicode="&#xc0;" horiz-adv-x="680" 
d="M424 731h-108l-134 122h108zM664 0h-103l-68 170h-306l-68 -170h-103l279 679h90zM458 257l-118 311l-118 -311h236z" />
    <glyph glyph-name="Aacute" unicode="&#xc1;" horiz-adv-x="680" 
d="M501 853l-134 -122h-108l134 122h108zM664 0h-103l-68 170h-306l-68 -170h-103l279 679h90zM458 257l-118 311l-118 -311h236z" />
    <glyph glyph-name="Acircumflex" unicode="&#xc2;" horiz-adv-x="680" 
d="M496 731h-94l-62 73l-63 -73h-94l111 122h91zM664 0h-103l-68 170h-306l-68 -170h-103l279 679h90zM458 257l-118 311l-118 -311h236z" />
    <glyph glyph-name="Atilde" unicode="&#xc3;" horiz-adv-x="680" 
d="M501 841q-12 -105 -88 -105q-24 0 -76.5 20.5t-66.5 20.5q-24 0 -25 -39h-67q3 47 24.5 78t58.5 31q25 0 77 -20.5t69 -20.5q24 0 27 35h67zM664 0h-103l-68 170h-306l-68 -170h-103l279 679h90zM458 257l-118 311l-118 -311h236z" />
    <glyph glyph-name="Adieresis" unicode="&#xc4;" horiz-adv-x="680" 
d="M471 745h-96v96h96v-96zM304 745h-96v96h96v-96zM664 0h-103l-68 170h-306l-68 -170h-103l279 679h90zM458 257l-118 311l-118 -311h236z" />
    <glyph glyph-name="Aring" unicode="&#xc5;" horiz-adv-x="680" 
d="M437 828q0 -40 -28.5 -68.5t-68.5 -28.5t-68.5 28.5t-28.5 68.5t28.5 68.5t68.5 28.5t68.5 -28.5t28.5 -68.5zM664 0h-103l-68 170h-306l-68 -170h-103l279 679h90zM389 828q0 20 -14.5 34.5t-34.5 14.5t-34.5 -14.5t-14.5 -34.5t14.5 -34.5t34.5 -14.5t34.5 14.5
t14.5 34.5zM458 257l-118 295l-118 -295h236z" />
    <glyph glyph-name="AE" unicode="&#xc6;" horiz-adv-x="973" 
d="M929 0h-425v165h-274l-107 -165h-107l437 672h476v-87h-329v-181h247v-87h-247v-230h329v-87zM504 252v336l-218 -336h218z" />
    <glyph glyph-name="Ccedilla" unicode="&#xc7;" horiz-adv-x="692" 
d="M650 514q-125 82 -236 82q-107 0 -181 -75t-74 -185t74 -185t181 -75q123 0 235 80v-104q-107 -64 -227 -66l-8 -36q22 -4 39 -23t17 -46q0 -46 -30.5 -74.5t-87.5 -28.5q-18 0 -39 6v55q13 -5 35 -5q21 0 35.5 11t14.5 33q0 41 -54 44l17 68q-131 18 -217.5 113.5
t-86.5 232.5q0 152 103.5 251t253.5 99q119 0 236 -68v-104z" />
    <glyph glyph-name="Egrave" unicode="&#xc8;" horiz-adv-x="546" 
d="M371 731h-108l-134 122h108zM502 0h-425v672h425v-87h-329v-181h257v-87h-257v-230h329v-87z" />
    <glyph glyph-name="Eacute" unicode="&#xc9;" horiz-adv-x="546" 
d="M448 853l-134 -122h-108l134 122h108zM502 0h-425v672h425v-87h-329v-181h257v-87h-257v-230h329v-87z" />
    <glyph glyph-name="Ecircumflex" unicode="&#xca;" horiz-adv-x="546" 
d="M443 731h-94l-62 73l-63 -73h-94l111 122h91zM502 0h-425v672h425v-87h-329v-181h257v-87h-257v-230h329v-87z" />
    <glyph glyph-name="Edieresis" unicode="&#xcb;" horiz-adv-x="546" 
d="M418 745h-96v96h96v-96zM251 745h-96v96h96v-96zM502 0h-425v672h425v-87h-329v-181h257v-87h-257v-230h329v-87z" />
    <glyph glyph-name="Igrave" unicode="&#xcc;" horiz-adv-x="250" 
d="M179 731h-108l-134 122h108zM173 0h-96v672h96v-672z" />
    <glyph glyph-name="Iacute" unicode="&#xcd;" horiz-adv-x="250" 
d="M316 853l-134 -122h-108l134 122h108zM173 0h-96v672h96v-672z" />
    <glyph glyph-name="Icircumflex" unicode="&#xce;" horiz-adv-x="250" 
d="M281 731h-94l-62 73l-63 -73h-94l111 122h91zM173 0h-96v672h96v-672z" />
    <glyph glyph-name="Idieresis" unicode="&#xcf;" horiz-adv-x="250" 
d="M256 745h-96v96h96v-96zM89 745h-96v96h96v-96zM173 0h-96v672h96v-672z" />
    <glyph glyph-name="Eth" unicode="&#xd0;" horiz-adv-x="710" 
d="M653 336q0 -146 -103.5 -241t-254.5 -95h-218v317h-83v87h83v268h213q150 0 256.5 -94.5t106.5 -241.5zM551 336q0 108 -76 178.5t-183 70.5h-119v-181h164v-87h-164v-230h112q126 0 196 71t70 178z" />
    <glyph glyph-name="Ntilde" unicode="&#xd1;" horiz-adv-x="766" 
d="M544 841q-12 -105 -88 -105q-24 0 -76.5 20.5t-66.5 20.5q-24 0 -25 -39h-67q3 47 24.5 78t58.5 31q25 0 77 -20.5t69 -20.5q24 0 27 35h67zM689 0h-96l-420 529v-529h-96v672h96l420 -529v529h96v-672z" />
    <glyph glyph-name="Ograve" unicode="&#xd2;" horiz-adv-x="828" 
d="M498 731h-108l-134 122h108zM771 336q0 -150 -103 -250t-254 -100t-254 100t-103 250t103 250t254 100t254 -100t103 -250zM669 336q0 109 -73 184.5t-182 75.5t-182 -75.5t-73 -184.5t73 -184.5t182 -75.5t182 75.5t73 184.5z" />
    <glyph glyph-name="Oacute" unicode="&#xd3;" horiz-adv-x="828" 
d="M575 853l-134 -122h-108l134 122h108zM771 336q0 -150 -103 -250t-254 -100t-254 100t-103 250t103 250t254 100t254 -100t103 -250zM669 336q0 109 -73 184.5t-182 75.5t-182 -75.5t-73 -184.5t73 -184.5t182 -75.5t182 75.5t73 184.5z" />
    <glyph glyph-name="Ocircumflex" unicode="&#xd4;" horiz-adv-x="828" 
d="M570 731h-94l-62 73l-63 -73h-94l111 122h91zM771 336q0 -150 -103 -250t-254 -100t-254 100t-103 250t103 250t254 100t254 -100t103 -250zM669 336q0 109 -73 184.5t-182 75.5t-182 -75.5t-73 -184.5t73 -184.5t182 -75.5t182 75.5t73 184.5z" />
    <glyph glyph-name="Otilde" unicode="&#xd5;" horiz-adv-x="828" 
d="M575 841q-12 -105 -88 -105q-24 0 -76.5 20.5t-66.5 20.5q-24 0 -25 -39h-67q3 47 24.5 78t58.5 31q25 0 77 -20.5t69 -20.5q24 0 27 35h67zM771 336q0 -152 -103.5 -251t-253.5 -99t-253.5 99t-103.5 251t103.5 251t253.5 99t253.5 -99t103.5 -251zM669 336
q0 110 -74 185t-181 75t-181 -75t-74 -185t74 -185t181 -75t181 75t74 185z" />
    <glyph glyph-name="Odieresis" unicode="&#xd6;" horiz-adv-x="828" 
d="M545 745h-96v96h96v-96zM378 745h-96v96h96v-96zM771 336q0 -152 -103.5 -251t-253.5 -99t-253.5 99t-103.5 251t103.5 251t253.5 99t253.5 -99t103.5 -251zM669 336q0 110 -74 185t-181 75t-181 -75t-74 -185t74 -185t181 -75t181 75t74 185z" />
    <glyph glyph-name="multiply" unicode="&#xd7;" 
d="M461 213l-56 -56l-123 123l-124 -123l-55 55l123 124l-123 123l56 56l123 -123l123 122l55 -55l-122 -123z" />
    <glyph glyph-name="Oslash" unicode="&#xd8;" horiz-adv-x="828" 
d="M771 336q0 -152 -103.5 -251t-253.5 -99q-128 0 -226 76l-68 -68l-48 48l66 67q-81 94 -81 227q0 152 103.5 251t253.5 99q128 0 226 -76l68 68l48 -48l-66 -67q81 -94 81 -227zM572 542q-68 54 -158 54q-107 0 -181 -75t-74 -185q0 -88 50 -157zM669 336q0 88 -50 157
l-363 -363q68 -54 158 -54q107 0 181 75t74 185z" />
    <glyph glyph-name="Ugrave" unicode="&#xd9;" horiz-adv-x="744" 
d="M456 731h-108l-134 122h108zM672 287q0 -74 -26.5 -133.5t-70 -95t-96 -54t-107.5 -18.5t-107.5 18.5t-96 54t-70 95t-26.5 133.5v385h96v-389q0 -57 20 -99.5t52 -64.5t65 -32.5t67 -10.5t67 10.5t65 32.5t52 64.5t20 99.5v389h96v-385z" />
    <glyph glyph-name="Uacute" unicode="&#xda;" horiz-adv-x="744" 
d="M533 853l-134 -122h-108l134 122h108zM672 287q0 -74 -26.5 -133.5t-70 -95t-96 -54t-107.5 -18.5t-107.5 18.5t-96 54t-70 95t-26.5 133.5v385h96v-389q0 -57 20 -99.5t52 -64.5t65 -32.5t67 -10.5t67 10.5t65 32.5t52 64.5t20 99.5v389h96v-385z" />
    <glyph glyph-name="Ucircumflex" unicode="&#xdb;" horiz-adv-x="744" 
d="M528 731h-94l-62 73l-63 -73h-94l111 122h91zM672 287q0 -74 -26.5 -133.5t-70 -95t-96 -54t-107.5 -18.5t-107.5 18.5t-96 54t-70 95t-26.5 133.5v385h96v-389q0 -57 20 -99.5t52 -64.5t65 -32.5t67 -10.5t67 10.5t65 32.5t52 64.5t20 99.5v389h96v-385z" />
    <glyph glyph-name="Udieresis" unicode="&#xdc;" horiz-adv-x="744" 
d="M503 745h-96v96h96v-96zM336 745h-96v96h96v-96zM672 287q0 -74 -26.5 -133.5t-70 -95t-96 -54t-107.5 -18.5t-107.5 18.5t-96 54t-70 95t-26.5 133.5v385h96v-389q0 -57 20 -99.5t52 -64.5t65 -32.5t67 -10.5t67 10.5t65 32.5t52 64.5t20 99.5v389h96v-385z" />
    <glyph glyph-name="Yacute" unicode="&#xdd;" horiz-adv-x="602" 
d="M462 853l-134 -122h-108l134 122h108zM585 672l-236 -355v-317h-96v317l-236 355h114l170 -278l170 278h114z" />
    <glyph glyph-name="Thorn" unicode="&#xde;" horiz-adv-x="539" 
d="M513 338q0 -98 -67 -151t-160 -53h-113v-134h-96v672h96v-134h107q118 0 175.5 -59t57.5 -141zM409 336q0 50 -31.5 82.5t-104.5 32.5h-100v-230h104q61 0 96.5 30t35.5 85z" />
    <glyph glyph-name="germandbls" unicode="&#xdf;" horiz-adv-x="540" 
d="M495 198q0 -95 -61 -151t-136 -56q-40 0 -81 9v96q36 -19 69 -19q44 0 77.5 30.5t33.5 90.5q0 66 -45 106t-112 40h-21v80q74 0 107.5 21.5t33.5 70.5q0 36 -26.5 60.5t-71.5 24.5q-106 0 -106 -145v-456h-93v469q0 58 18.5 102t49.5 68t64 35.5t67 11.5q89 0 141.5 -52
t52.5 -115q0 -99 -95 -132q60 -24 97 -71.5t37 -117.5z" />
    <glyph glyph-name="agrave" unicode="&#xe0;" horiz-adv-x="472" 
d="M320 508h-108l-134 122h108zM402 0h-85v42q-70 -52 -126 -52q-61 0 -106 37.5t-45 97.5q0 78 77 123q55 32 192 32v14q0 43 -25.5 67t-69.5 24q-72 0 -148 -50l23 93q76 35 148 35q79 0 122 -47t43 -127v-289zM309 112v95q-31 0 -51.5 -1.5t-54 -8t-51.5 -23.5t-18 -44
q0 -30 21 -45t52 -15q49 0 102 42z" />
    <glyph glyph-name="aacute" unicode="&#xe1;" horiz-adv-x="472" 
d="M397 630l-134 -122h-108l134 122h108zM402 0h-85v42q-70 -52 -126 -52q-61 0 -106 37.5t-45 97.5q0 78 77 123q55 32 192 32v14q0 43 -25.5 67t-69.5 24q-72 0 -148 -50l23 93q76 35 148 35q79 0 122 -47t43 -127v-289zM309 112v95q-31 0 -51.5 -1.5t-54 -8t-51.5 -23.5
t-18 -44q0 -30 21 -45t52 -15q49 0 102 42z" />
    <glyph glyph-name="acircumflex" unicode="&#xe2;" horiz-adv-x="472" 
d="M392 508h-94l-62 73l-63 -73h-94l111 122h91zM402 0h-85v42q-70 -52 -126 -52q-61 0 -106 37.5t-45 97.5q0 78 77 123q55 32 192 32v14q0 43 -25.5 67t-69.5 24q-72 0 -148 -50l23 93q76 35 148 35q79 0 122 -47t43 -127v-289zM309 112v95q-31 0 -51.5 -1.5t-54 -8
t-51.5 -23.5t-18 -44q0 -30 21 -45t52 -15q49 0 102 42z" />
    <glyph glyph-name="atilde" unicode="&#xe3;" horiz-adv-x="472" 
d="M397 618q-12 -105 -88 -105q-24 0 -76.5 20.5t-66.5 20.5q-24 0 -25 -39h-67q3 47 24.5 78t58.5 31q25 0 77 -20.5t69 -20.5q24 0 27 35h67zM402 0h-85v42q-69 -52 -126 -52q-64 0 -107.5 39t-43.5 96q0 79 77 123q57 32 192 32v14q0 48 -28.5 69.5t-66.5 21.5
q-73 0 -148 -50l23 93q76 35 148 35q75 0 120 -45t45 -129v-289zM309 112v95q-100 0 -142 -23q-33 -18 -33 -54q0 -25 18.5 -42.5t54.5 -17.5q50 0 102 42z" />
    <glyph glyph-name="adieresis" unicode="&#xe4;" horiz-adv-x="472" 
d="M367 522h-96v96h96v-96zM200 522h-96v96h96v-96zM402 0h-85v42q-69 -52 -126 -52q-64 0 -107.5 39t-43.5 96q0 79 77 123q57 32 192 32v14q0 48 -28.5 69.5t-66.5 21.5q-73 0 -148 -50l23 93q76 35 148 35q75 0 120 -45t45 -129v-289zM309 112v95q-100 0 -142 -23
q-33 -18 -33 -54q0 -25 18.5 -42.5t54.5 -17.5q50 0 102 42z" />
    <glyph glyph-name="aring" unicode="&#xe5;" horiz-adv-x="472" 
d="M327 605q0 -41 -28.5 -69t-68.5 -28t-68.5 28t-28.5 69t28.5 69t68.5 28t68.5 -28t28.5 -69zM402 0h-85v42q-69 -52 -126 -52q-64 0 -107.5 39t-43.5 96q0 79 77 123q57 32 192 32v14q0 48 -28.5 69.5t-66.5 21.5q-73 0 -148 -50l23 93q76 35 148 35q75 0 120 -45
t45 -129v-289zM279 605q0 20 -14.5 34.5t-34.5 14.5t-34.5 -14.5t-14.5 -34.5t14.5 -34.5t34.5 -14.5t34.5 14.5t14.5 34.5zM309 112v95q-100 0 -142 -23q-33 -18 -33 -54q0 -25 18.5 -42.5t54.5 -17.5q50 0 102 42z" />
    <glyph glyph-name="ae" unicode="&#xe6;" horiz-adv-x="796" 
d="M745 200h-338q4 -62 44.5 -95t101.5 -33q102 0 184 67v-92q-86 -59 -196 -59q-111 0 -174 71q-84 -71 -173 -71q-64 0 -109 40t-45 97q0 30 19 65t58 57q58 33 192 33v14q0 48 -28.5 69.5t-66.5 21.5q-73 0 -148 -50l23 93q76 35 148 35q91 0 135 -63q60 63 158 63
q91 0 153 -64t62 -193v-6zM642 278q-3 45 -35 75t-82 30q-53 0 -82 -30t-36 -75h235zM328 122q-15 36 -18 81q-107 0 -143 -20q-33 -18 -33 -53q0 -25 18.5 -43t54.5 -18q54 0 121 53z" />
    <glyph glyph-name="ccedilla" unicode="&#xe7;" horiz-adv-x="489" 
d="M443 27q-55 -34 -139 -37l-5 -25q22 -5 39 -23t17 -46q0 -41 -30 -66t-80 -25q-18 0 -28 2v50q12 -7 28 -7q18 0 32.5 10t14.5 33q0 17 -14.5 28.5t-39.5 12.5l13 59q-86 13 -143.5 74.5t-57.5 160.5q0 97 69 167.5t173 70.5q83 0 151 -39v-102q-80 54 -148 54
q-66 0 -106.5 -43.5t-40.5 -107.5q0 -75 45.5 -113t103.5 -38q87 0 146 52v-102z" />
    <glyph glyph-name="egrave" unicode="&#xe8;" horiz-adv-x="537" 
d="M353 508h-108l-134 122h108zM486 200h-338q4 -61 44 -94.5t102 -33.5q103 0 184 67v-92q-86 -59 -196 -59q-107 0 -169.5 66.5t-62.5 174.5q0 101 60 167.5t161 66.5q106 0 160.5 -73.5t54.5 -183.5v-6zM383 278q-3 47 -36.5 76t-80.5 29q-50 0 -80 -27.5t-38 -77.5h235z
" />
    <glyph glyph-name="eacute" unicode="&#xe9;" horiz-adv-x="537" 
d="M430 630l-134 -122h-108l134 122h108zM486 200h-338q4 -61 44 -94.5t102 -33.5q103 0 184 67v-92q-86 -59 -196 -59q-107 0 -169.5 66.5t-62.5 174.5q0 101 60 167.5t161 66.5q106 0 160.5 -73.5t54.5 -183.5v-6zM383 278q-3 47 -36.5 76t-80.5 29q-50 0 -80 -27.5
t-38 -77.5h235z" />
    <glyph glyph-name="ecircumflex" unicode="&#xea;" horiz-adv-x="537" 
d="M425 508h-94l-62 73l-63 -73h-94l111 122h91zM486 200h-338q4 -61 44 -94.5t102 -33.5q103 0 184 67v-92q-86 -59 -196 -59q-107 0 -169.5 66.5t-62.5 174.5q0 101 60 167.5t161 66.5q106 0 160.5 -73.5t54.5 -183.5v-6zM383 278q-3 47 -36.5 76t-80.5 29
q-50 0 -80 -27.5t-38 -77.5h235z" />
    <glyph glyph-name="edieresis" unicode="&#xeb;" horiz-adv-x="537" 
d="M400 522h-96v96h96v-96zM233 522h-96v96h96v-96zM486 200h-338q4 -62 44.5 -95t101.5 -33q102 0 184 67v-92q-86 -59 -196 -59q-106 0 -169 65.5t-63 175.5q0 95 57.5 164.5t163.5 69.5q91 0 153 -64t62 -193v-6zM383 278q-3 45 -35 75t-82 30q-53 0 -82 -30t-36 -75h235
z" />
    <glyph glyph-name="igrave" unicode="&#xec;" horiz-adv-x="230" 
d="M169 508h-108l-134 122h108zM161 0h-93v453h93v-453z" />
    <glyph glyph-name="iacute" unicode="&#xed;" horiz-adv-x="230" 
d="M306 630l-134 -122h-108l134 122h108zM161 0h-93v453h93v-453z" />
    <glyph glyph-name="icircumflex" unicode="&#xee;" horiz-adv-x="230" 
d="M271 508h-94l-62 73l-63 -73h-94l111 122h91zM161 0h-93v453h93v-453z" />
    <glyph glyph-name="idieresis" unicode="&#xef;" horiz-adv-x="230" 
d="M246 522h-96v96h96v-96zM79 522h-96v96h96v-96zM161 0h-93v453h93v-453z" />
    <glyph glyph-name="eth" unicode="&#xf0;" horiz-adv-x="551" 
d="M501 235q0 -103 -65 -174.5t-167 -71.5q-86 0 -152.5 65t-66.5 172q0 89 57 158t148 69q68 0 104 -29q-17 43 -55 110l-93 -42l-25 57l86 39q-40 65 -54 84h105l31 -47l93 42l25 -57l-85 -38q114 -192 114 -337zM403 226q0 67 -15 98q-48 50 -112 50q-55 0 -92 -45
t-37 -103t36.5 -100.5t90.5 -42.5q55 0 92 41.5t37 101.5z" />
    <glyph glyph-name="ntilde" unicode="&#xf1;" horiz-adv-x="576" 
d="M449 618q-12 -105 -88 -105q-24 0 -76.5 20.5t-66.5 20.5q-24 0 -25 -39h-67q3 47 24.5 78t58.5 31q25 0 77 -20.5t69 -20.5q24 0 27 35h67zM506 0h-93v244q0 62 -31 96t-86 34q-63 0 -128 -48v-326h-93v453h85v-42q73 50 148 50q30 0 59.5 -8.5t63 -30.5t54.5 -69
t21 -114v-239z" />
    <glyph glyph-name="ograve" unicode="&#xf2;" horiz-adv-x="584" 
d="M376 508h-108l-134 122h108zM534 226q0 -102 -70 -169.5t-172 -67.5t-172 67.5t-70 169.5t70 169.5t172 67.5t172 -67.5t70 -169.5zM437 226q0 65 -40.5 108t-104.5 43t-104.5 -43t-40.5 -108t40.5 -108t104.5 -43t104.5 43t40.5 108z" />
    <glyph glyph-name="oacute" unicode="&#xf3;" horiz-adv-x="584" 
d="M453 630l-134 -122h-108l134 122h108zM534 226q0 -102 -70 -169.5t-172 -67.5t-172 67.5t-70 169.5t70 169.5t172 67.5t172 -67.5t70 -169.5zM437 226q0 65 -40.5 108t-104.5 43t-104.5 -43t-40.5 -108t40.5 -108t104.5 -43t104.5 43t40.5 108z" />
    <glyph glyph-name="ocircumflex" unicode="&#xf4;" horiz-adv-x="584" 
d="M448 508h-94l-62 73l-63 -73h-94l111 122h91zM534 226q0 -102 -70 -169.5t-172 -67.5t-172 67.5t-70 169.5t70 169.5t172 67.5t172 -67.5t70 -169.5zM437 226q0 65 -40.5 108t-104.5 43t-104.5 -43t-40.5 -108t40.5 -108t104.5 -43t104.5 43t40.5 108z" />
    <glyph glyph-name="otilde" unicode="&#xf5;" horiz-adv-x="584" 
d="M453 618q-12 -105 -88 -105q-24 0 -76.5 20.5t-66.5 20.5q-24 0 -25 -39h-67q3 47 24.5 78t58.5 31q25 0 77 -20.5t69 -20.5q24 0 27 35h67zM534 226q0 -100 -69 -168.5t-173 -68.5t-173 68.5t-69 168.5t69 168.5t173 68.5t173 -68.5t69 -168.5zM437 226q0 67 -41.5 109
t-103.5 42t-103.5 -42t-41.5 -109t41.5 -109t103.5 -42t103.5 42t41.5 109z" />
    <glyph glyph-name="odieresis" unicode="&#xf6;" horiz-adv-x="584" 
d="M423 522h-96v96h96v-96zM256 522h-96v96h96v-96zM534 226q0 -100 -69 -168.5t-173 -68.5t-173 68.5t-69 168.5t69 168.5t173 68.5t173 -68.5t69 -168.5zM437 226q0 67 -41.5 109t-103.5 42t-103.5 -42t-41.5 -109t41.5 -109t103.5 -42t103.5 42t41.5 109z" />
    <glyph glyph-name="divide" unicode="&#xf7;" 
d="M331 445h-97v96h97v-96zM485 296h-406v79h406v-79zM331 130h-97v96h97v-96z" />
    <glyph glyph-name="oslash" unicode="&#xf8;" horiz-adv-x="584" 
d="M538 428l-54 -54q50 -62 50 -148q0 -100 -69 -168.5t-173 -68.5q-84 0 -147 46l-55 -55l-44 44l54 54q-50 62 -50 148q0 100 69 168.5t173 68.5q84 0 147 -46l55 55zM374 352q-36 25 -82 25q-62 0 -103.5 -42t-41.5 -109q0 -46 20 -81zM437 226q0 46 -20 81l-207 -207
q36 -25 82 -25q62 0 103.5 42t41.5 109z" />
    <glyph glyph-name="ugrave" unicode="&#xf9;" horiz-adv-x="576" 
d="M372 508h-108l-134 122h108zM501 0h-85v42q-74 -51 -148 -51q-30 0 -59.5 8.5t-63 30.5t-54.5 69t-21 114v240h93v-245q0 -62 31 -96t86 -34q61 0 128 49v326h93v-453z" />
    <glyph glyph-name="uacute" unicode="&#xfa;" horiz-adv-x="576" 
d="M449 630l-134 -122h-108l134 122h108zM501 0h-85v42q-74 -51 -148 -51q-30 0 -59.5 8.5t-63 30.5t-54.5 69t-21 114v240h93v-245q0 -62 31 -96t86 -34q61 0 128 49v326h93v-453z" />
    <glyph glyph-name="ucircumflex" unicode="&#xfb;" horiz-adv-x="576" 
d="M444 508h-94l-62 73l-63 -73h-94l111 122h91zM501 0h-85v42q-74 -51 -148 -51q-30 0 -59.5 8.5t-63 30.5t-54.5 69t-21 114v240h93v-245q0 -62 31 -96t86 -34q61 0 128 49v326h93v-453z" />
    <glyph glyph-name="udieresis" unicode="&#xfc;" horiz-adv-x="576" 
d="M419 522h-96v96h96v-96zM252 522h-96v96h96v-96zM501 0h-85v42q-74 -51 -148 -51q-30 0 -59.5 8.5t-63 30.5t-54.5 69t-21 114v240h93v-245q0 -62 31 -96t86 -34q61 0 128 49v326h93v-453z" />
    <glyph glyph-name="yacute" unicode="&#xfd;" horiz-adv-x="502" 
d="M412 630l-134 -122h-108l134 122h108zM486 453l-283 -560q-34 -67 -72 -94.5t-92 -27.5q-29 0 -51 5v83q17 -6 38 -6q33 0 55 14.5t40 50.5l70 138l-203 397h98l153 -308l149 308h98z" />
    <glyph glyph-name="thorn" unicode="&#xfe;" horiz-adv-x="578" 
d="M528 225q0 -102 -70 -168.5t-160 -66.5q-70 0 -130 38v-247h-93v891h93v-255q61 45 132 45q37 0 75.5 -14.5t73.5 -42t57 -74.5t22 -106zM430 225q0 73 -43.5 112t-98.5 39q-63 0 -120 -49v-209q53 -42 122 -42q64 0 102 43t38 106z" />
    <glyph glyph-name="ydieresis" unicode="&#xff;" horiz-adv-x="502" 
d="M382 522h-96v96h96v-96zM215 522h-96v96h96v-96zM486 453l-283 -560q-34 -67 -72 -94.5t-92 -27.5q-29 0 -51 5v83q17 -6 38 -6q33 0 55 14.5t40 50.5l70 138l-203 397h98l153 -308l149 308h98z" />
    <glyph glyph-name="dotlessi" unicode="&#x131;" horiz-adv-x="230" 
d="M161 0h-93v453h93v-453z" />
    <glyph glyph-name="Lslash" unicode="&#x141;" horiz-adv-x="516" 
d="M489 0h-412v313l-79 -61v88l79 61v271h96v-198l124 95v-88l-124 -95v-299h316v-87z" />
    <glyph glyph-name="lslash" unicode="&#x142;" horiz-adv-x="339" 
d="M310 13q-52 -21 -99 -21q-80 0 -115 42.5t-35 123.5v147l-73 -56v82l73 56v285h93v-215l106 81v-82l-106 -81v-220q0 -83 67 -83q43 0 89 23v-82z" />
    <glyph glyph-name="OE" unicode="&#x152;" horiz-adv-x="1138" 
d="M1094 0h-425v93q-99 -107 -255 -107q-150 0 -253.5 99t-103.5 251t103.5 251t253.5 99q156 0 255 -107v93h425v-87h-331v-181h249v-87h-249v-230h331v-87zM669 336q0 110 -74 185t-181 75t-181 -75t-74 -185t74 -185t181 -75t181 75t74 185z" />
    <glyph glyph-name="oe" unicode="&#x153;" horiz-adv-x="924" 
d="M873 200h-338q4 -62 44.5 -95t101.5 -33q102 0 184 67v-92q-86 -59 -196 -59q-124 0 -187 88q-71 -87 -190 -87q-104 0 -173 68.5t-69 168.5t69 168.5t173 68.5q119 0 189 -86q61 86 177 86q91 0 153 -64t62 -193v-6zM770 278q-3 45 -35 75t-82 30q-53 0 -82 -30t-36 -75
h235zM437 226q0 67 -41.5 109t-103.5 42t-103.5 -42t-41.5 -109t41.5 -109t103.5 -42t103.5 42t41.5 109z" />
    <glyph glyph-name="Scaron" unicode="&#x160;" horiz-adv-x="565" 
d="M451 853l-111 -122h-91l-111 122h94l63 -73l62 73h94zM517 193q0 -89 -63.5 -147t-149.5 -58q-99 0 -158 42.5t-98 126.5l86 54q47 -134 164 -134q47 0 81.5 30t34.5 75q0 34 -24 60t-59.5 41.5l-77.5 35.5t-77.5 40t-59.5 56.5t-24 84.5q0 82 57 134t143 52
q135 0 210 -115l-75 -60q-45 84 -133 84q-52 0 -75.5 -26.5t-23.5 -58.5t33 -57t80.5 -44.5t95 -44t80.5 -68t33 -103.5z" />
    <glyph glyph-name="scaron" unicode="&#x161;" horiz-adv-x="459" 
d="M386 630l-111 -122h-91l-111 122h94l63 -73l62 73h94zM413 136q0 -63 -48.5 -105.5t-137.5 -42.5q-97 0 -176 37v95q89 -48 180 -48q39 0 63 13.5t24 35.5q0 31 -53 47q-98 30 -134 45t-55 33q-32 30 -32 79q0 58 45.5 98t132.5 40q66 0 149 -30v-92q-78 40 -150 40
q-84 0 -84 -46q0 -17 15 -27t55 -23q82 -25 114 -37.5t51 -27.5q41 -30 41 -84z" />
    <glyph glyph-name="Ydieresis" unicode="&#x178;" horiz-adv-x="602" 
d="M432 745h-96v96h96v-96zM265 745h-96v96h96v-96zM585 672l-236 -355v-317h-96v317l-236 355h114l170 -278l170 278h114z" />
    <glyph glyph-name="Zcaron" unicode="&#x17d;" horiz-adv-x="649" 
d="M481 853l-111 -122h-91l-111 122h94l63 -73l62 73h94zM607 672l-415 -585h413v-87h-583l416 585h-383v87h552z" />
    <glyph glyph-name="zcaron" unicode="&#x17e;" horiz-adv-x="477" 
d="M395 630l-111 -122h-91l-111 122h94l63 -73l62 73h94zM436 0h-407l249 370h-220v83h374l-249 -370h253v-83z" />
    <glyph glyph-name="florin" unicode="&#x192;" 
d="M512 666l-14 -83q-55 22 -88 22q-50 0 -72 -35t-36 -117h173l-16 -85h-173l-71 -388q-21 -116 -67.5 -157t-126.5 -41q-21 0 -48 3l15 83q28 -4 42 -4q34 0 54 24t33 93l71 387h-69l16 85h69q9 54 21.5 92.5t34.5 72.5t57.5 51t85.5 17q49 0 109 -20z" />
    <glyph glyph-name="circumflex" unicode="&#x2c6;" horiz-adv-x="500" 
d="M406 508h-94l-62 73l-63 -73h-94l111 122h91z" />
    <glyph glyph-name="caron" unicode="&#x2c7;" horiz-adv-x="500" 
d="M406 630l-111 -122h-91l-111 122h94l63 -73l62 73h94z" />
    <glyph glyph-name="uni02C9" unicode="&#x2c9;" horiz-adv-x="500" 
d="M386 538h-275v68h275v-68z" />
    <glyph glyph-name="breve" unicode="&#x2d8;" horiz-adv-x="500" 
d="M400 658q0 -62 -44 -106t-106 -44t-106 44t-44 106h73q0 -32 22.5 -54.5t54.5 -22.5t54.5 22.5t22.5 54.5h73z" />
    <glyph glyph-name="dotaccent" unicode="&#x2d9;" horiz-adv-x="500" 
d="M298 524h-96v96h96v-96z" />
    <glyph glyph-name="ring" unicode="&#x2da;" horiz-adv-x="500" 
d="M347 605q0 -41 -28.5 -69t-68.5 -28t-68.5 28t-28.5 69t28.5 69t68.5 28t68.5 -28t28.5 -69zM299 605q0 20 -14.5 34.5t-34.5 14.5t-34.5 -14.5t-14.5 -34.5t14.5 -34.5t34.5 -14.5t34.5 14.5t14.5 34.5z" />
    <glyph glyph-name="ogonek" unicode="&#x2db;" horiz-adv-x="500" 
d="M346 -213q-19 -6 -43 -6q-53 0 -84.5 31t-31.5 80q0 42 47 111h62q-42 -60 -42 -99q0 -30 18.5 -42t37.5 -12q20 0 36 8v-71z" />
    <glyph glyph-name="tilde" unicode="&#x2dc;" horiz-adv-x="500" 
d="M411 618q-12 -105 -88 -105q-24 0 -76.5 20.5t-66.5 20.5q-24 0 -25 -39h-67q3 47 24.5 78t58.5 31q25 0 77 -20.5t69 -20.5q24 0 27 35h67z" />
    <glyph glyph-name="hungarumlaut" unicode="&#x2dd;" horiz-adv-x="500" 
d="M493 630l-127 -122h-91l110 122h108zM317 630l-127 -122h-91l110 122h108z" />
    <glyph glyph-name="uni03A9" unicode="&#x3a9;" horiz-adv-x="758" 
d="M704 0h-256v84q39 34 67 65.5t54.5 93.5t26.5 133q0 108 -57.5 177t-160.5 69q-98 0 -161 -68.5t-63 -179.5q0 -167 149 -290v-84h-257v84h164q-165 119 -165 310q0 139 93 228.5t240 89.5q155 0 241 -88.5t86 -227.5q0 -104 -48 -183t-119 -129h166v-84z" />
    <glyph glyph-name="uni03BC" unicode="&#x3bc;" horiz-adv-x="562" 
d="M521 523l-76 -357q-11 -53 -11 -65q0 -18 8 -25.5t27 -7.5q10 0 16 1l-15 -70q-24 -5 -53 -5q-31 0 -47.5 14.5t-25.5 48.5q-43 -64 -132 -64q-77 0 -125 57l-54 -259h-88l155 732h88l-63 -293q-7 -31 -7 -65q0 -49 25.5 -75t72.5 -26q66 0 103 46.5t59 150.5l56 262h87z
" />
    <glyph glyph-name="pi" unicode="&#x3c0;" horiz-adv-x="730" 
d="M654 77l19 -68q-34 -17 -83 -17q-68 0 -101 39.5t-33 105.5v286h-176v-282q0 -88 -17 -141h-105q19 58 19 148v275q-54 0 -106 -24l-28 68q60 33 157 33h469v-77h-110v-273q0 -81 60 -81q15 0 35 8z" />
    <glyph glyph-name="endash" unicode="&#x2013;" horiz-adv-x="586" 
d="M524 216h-462v79h462v-79z" />
    <glyph glyph-name="emdash" unicode="&#x2014;" horiz-adv-x="748" 
d="M686 216h-624v79h624v-79z" />
    <glyph glyph-name="quoteleft" unicode="&#x2018;" horiz-adv-x="221" 
d="M214 684q-56 -21 -72.5 -47.5t-16.5 -84.5v-77h-96v73q0 64 47 101t119 37q7 0 19 -2z" />
    <glyph glyph-name="quoteright" unicode="&#x2019;" horiz-adv-x="221" 
d="M192 599q0 -64 -47 -101t-119 -37q-7 0 -19 2q56 21 72.5 47.5t16.5 84.5v77h96v-73z" />
    <glyph glyph-name="quotesinglbase" unicode="&#x201a;" horiz-adv-x="221" 
d="M164 23q0 -64 -47 -101t-119 -37q-7 0 -19 2q56 21 72.5 47.5t16.5 84.5v77h96v-73z" />
    <glyph glyph-name="quotedblleft" unicode="&#x201c;" horiz-adv-x="396" 
d="M389 684q-56 -21 -72.5 -47.5t-16.5 -84.5v-77h-96v73q0 64 47 101t119 37q7 0 19 -2zM214 671q-56 -21 -72.5 -47.5t-16.5 -84.5v-64h-96v60q0 64 47 101t119 37q7 0 19 -2z" />
    <glyph glyph-name="quotedblright" unicode="&#x201d;" horiz-adv-x="396" 
d="M367 612q0 -64 -47 -101t-119 -37q-7 0 -19 2q56 21 72.5 47.5t16.5 84.5v64h96v-60zM192 599q0 -64 -47 -101t-119 -37q-7 0 -19 2q56 21 72.5 47.5t16.5 84.5v77h96v-73z" />
    <glyph glyph-name="quotedblbase" unicode="&#x201e;" horiz-adv-x="396" 
d="M335 36q0 -64 -47 -101t-119 -37q-7 0 -19 2q56 21 72.5 47.5t16.5 84.5v64h96v-60zM160 23q0 -64 -47 -101t-119 -37q-7 0 -19 2q56 21 72.5 47.5t16.5 84.5v77h96v-73z" />
    <glyph glyph-name="dagger" unicode="&#x2020;" horiz-adv-x="471" 
d="M419 371h-137v-525h-93v525h-137v82h137v219h93v-219h137v-82z" />
    <glyph glyph-name="daggerdbl" unicode="&#x2021;" horiz-adv-x="471" 
d="M419 182h-137v-336h-93v336h-137v82h137v107h-137v82h137v219h93v-219h137v-82h-137v-107h137v-82z" />
    <glyph glyph-name="bullet" unicode="&#x2022;" horiz-adv-x="500" 
d="M370 302q0 -50 -35 -85t-85 -35t-85 35t-35 85t35 85t85 35t85 -35t35 -85z" />
    <glyph glyph-name="ellipsis" unicode="&#x2026;" horiz-adv-x="1000" 
d="M887 0h-106v111h106v-111zM553 0h-106v111h106v-111zM220 0h-106v111h106v-111z" />
    <glyph glyph-name="perthousand" unicode="&#x2030;" horiz-adv-x="1109" 
d="M1056 147q0 -65 -46 -110.5t-110 -45.5t-109.5 45.5t-45.5 110.5t45.5 110t109.5 45q65 0 110.5 -45.5t45.5 -109.5zM364 527q0 -65 -45.5 -110.5t-109.5 -45.5q-65 0 -110.5 45.5t-45.5 110.5q0 64 45.5 109.5t110.5 45.5t110 -45t45 -110zM647 672l-441 -672h-97
l441 672h97zM705 147q0 -65 -45.5 -110.5t-109.5 -45.5t-110 45.5t-46 110.5q0 64 45.5 109.5t110.5 45.5q64 0 109.5 -45t45.5 -110zM980 147q0 33 -23.5 56t-56.5 23t-56 -23t-23 -56t23 -56.5t56 -23.5t56.5 23.5t23.5 56.5zM288 527q0 33 -23 56t-56 23t-56.5 -23
t-23.5 -56t23.5 -56.5t56.5 -23.5t56 23.5t23 56.5zM629 147q0 33 -23 56t-56 23t-56.5 -23t-23.5 -56t23.5 -56.5t56.5 -23.5t56 23.5t23 56.5z" />
    <glyph glyph-name="guilsinglleft" unicode="&#x2039;" horiz-adv-x="292" 
d="M280 35h-105l-148 191l148 191h105l-148 -191z" />
    <glyph glyph-name="guilsinglright" unicode="&#x203a;" horiz-adv-x="292" 
d="M265 226l-148 -191h-105l148 191l-148 191h105z" />
    <glyph glyph-name="fraction" unicode="&#x2044;" horiz-adv-x="101" 
d="M204 800l-246 -929h-83l246 929h83z" />
    <glyph glyph-name="Euro" unicode="&#x20ac;" 
d="M548 618l-28 -89q-77 65 -161 65q-68 0 -113.5 -43.5t-58.5 -106.5h275l-18 -75h-268q-1 -11 -1 -33q0 -18 1 -27h260l-18 -75h-232q12 -65 58 -109.5t125 -44.5q103 0 178 78v-109q-80 -61 -186 -61q-108 0 -179.5 69.5t-96.5 176.5h-97l18 75h68q-1 9 -1 27q0 22 1 33
h-86l18 75h79q25 105 96.5 173.5t177.5 68.5q103 0 189 -68z" />
    <glyph glyph-name="litre" unicode="&#x2113;" horiz-adv-x="528" 
d="M440 53q-69 -67 -147 -67q-61 0 -95 36q-39 40 -39 124v90l-60 -60l-34 48l94 96v215q0 92 37 142.5t103 50.5q55 0 81.5 -35t26.5 -79q0 -118 -118 -258q-3 -4 -17 -20.5l-19 -22.5v-159q0 -94 65 -94q43 0 89 48zM342 601q0 53 -37 53q-52 0 -52 -105v-148q14 15 22 29
q67 93 67 171z" />
    <glyph glyph-name="trademark" unicode="&#x2122;" horiz-adv-x="408" 
d="M383 489h-45v106l-48 -57l-50 57v-106h-44v183h37l56 -66l57 66h37v-183zM175 630h-53v-141h-44v141h-53v42h150v-42z" />
    <glyph glyph-name="Omega" unicode="&#x2126;" horiz-adv-x="758" 
d="M704 0h-256v84q39 34 67 65.5t54.5 93.5t26.5 133q0 108 -57.5 177t-160.5 69q-98 0 -161 -68.5t-63 -179.5q0 -167 149 -290v-84h-257v84h164q-165 119 -165 310q0 139 93 228.5t240 89.5q155 0 241 -88.5t86 -227.5q0 -104 -48 -183t-119 -129h166v-84z" />
    <glyph glyph-name="estimated" unicode="&#x212e;" horiz-adv-x="689" 
d="M642 307h-472v-212q70 -68 167 -68q79 0 132.5 36t95.5 103q3 -2 16 -10t21 -12q-51 -77 -112 -116.5t-153 -39.5q-133 0 -216 92t-83 227q0 137 82 228.5t219 91.5t218.5 -91.5t84.5 -228.5zM508 345v174q-72 70 -169 70q-103 0 -169 -69v-175h338z" />
    <glyph glyph-name="partialdiff" unicode="&#x2202;" horiz-adv-x="623" 
d="M573 471q0 -94 -26 -189q-35 -126 -110.5 -209.5t-183.5 -83.5q-89 0 -144.5 55t-55.5 144q0 141 83 224t187 83q52 0 90 -21t54 -52h2q4 36 4 61q0 79 -38 123.5t-106 44.5q-57 0 -105 -29l-24 69q56 38 145 38q106 0 167 -68.5t61 -189.5zM456 338q-11 37 -40.5 60.5
t-75.5 23.5q-74 0 -129 -68.5t-55 -169.5q0 -52 27 -84t73 -32q69 0 123 75.5t77 194.5z" />
    <glyph glyph-name="Delta" unicode="&#x2206;" horiz-adv-x="667" 
d="M657 0h-627v47l248 653h133l246 -653v-47zM533 85l-174 468q-7 18 -16 59h-4q-8 -31 -16 -57l-175 -470h385z" />
    <glyph glyph-name="product" unicode="&#x220f;" horiz-adv-x="779" 
d="M693 -230h-104v841h-398v-841h-104v930h606v-930z" />
    <glyph glyph-name="summation" unicode="&#x2211;" horiz-adv-x="681" 
d="M640 -230h-619v52l341 417l-320 403v58h574v-84h-436l295 -375l-313 -387h478v-84z" />
    <glyph glyph-name="minus" unicode="&#x2212;" 
d="M486 296h-408v79h408v-79z" />
    <glyph glyph-name="uni2215" unicode="&#x2215;" horiz-adv-x="101" 
d="M204 800l-246 -929h-83l246 929h83z" />
    <glyph glyph-name="uni2219" unicode="&#x2219;" horiz-adv-x="230" 
d="M168 280h-106v111h106v-111z" />
    <glyph glyph-name="radical" unicode="&#x221a;" horiz-adv-x="577" 
d="M573 729l-214 -741h-78l-146 329l-58 -36l-30 53l132 83l140 -318l181 630h73z" />
    <glyph glyph-name="infinity" unicode="&#x221e;" horiz-adv-x="854" 
d="M801 294q0 -76 -49 -126.5t-129 -50.5q-60 0 -111.5 31.5t-85.5 83.5h-2q-82 -115 -196 -115q-80 0 -130 48t-50 125q0 79 50 128t128 49q118 0 198 -116h2q32 47 81.5 81.5t111.5 34.5q80 0 131 -48t51 -125zM719 293q0 44 -26 73t-78 29q-82 0 -151 -103
q63 -104 152 -104q51 0 77 30.5t26 74.5zM384 292q-30 47 -70.5 75t-81.5 28q-49 0 -76 -30t-27 -75q0 -44 29.5 -73t74.5 -29q85 0 151 104z" />
    <glyph glyph-name="integral" unicode="&#x222b;" horiz-adv-x="525" 
d="M440 660q-25 10 -49 10q-40 0 -61.5 -25t-21.5 -72v-622q0 -88 -44.5 -136.5t-126.5 -48.5q-53 0 -85 14q12 42 20 75q23 -9 51 -9q82 0 82 96v622q0 87 44.5 136t127.5 49q55 0 85 -16q-16 -56 -22 -73z" />
    <glyph glyph-name="approxequal" unicode="&#x2248;" 
d="M519 421q-57 -86 -138 -86q-57 0 -107 32q-53 32 -90 32q-48 0 -87 -66l-53 60q29 41 60.5 63.5t77.5 22.5q53 0 106 -31q54 -33 91 -33q47 0 87 65zM519 199q-58 -87 -138 -87q-54 0 -107 32t-90 32q-48 0 -87 -65l-53 60q29 41 60.5 63t77.5 22q55 0 106 -31
q54 -33 91 -33q46 0 87 66z" />
    <glyph glyph-name="notequal" unicode="&#x2260;" 
d="M496 145h-244l-56 -120h-86l56 120h-99v80h136l67 143h-203v80h241l59 129h87l-60 -129h102v-80h-140l-67 -143h207v-80z" />
    <glyph glyph-name="lessequal" unicode="&#x2264;" 
d="M496 0h-429v80h429v-80zM496 138l-429 189v66l429 190v-86l-319 -136v-2l319 -137v-84z" />
    <glyph glyph-name="greaterequal" unicode="&#x2265;" 
d="M496 0h-429v80h429v-80zM496 328l-429 -190v85l319 137v2l-319 136v85l429 -190v-65z" />
    <glyph glyph-name="lozenge" unicode="&#x25ca;" horiz-adv-x="611" 
d="M548 350l-225 -350h-50l-225 349l225 351h50zM466 350l-168 261l-168 -261l168 -262z" />
    <glyph glyph-name="A.sc" unicode="&#xe000;" horiz-adv-x="570" 
d="M553 0h-102l-48 111h-236l-48 -111h-102l229 514h78zM368 192l-83 191l-83 -191h166z" />
    <glyph glyph-name="AE.sc" unicode="&#xe001;" horiz-adv-x="837" 
d="M788 0h-357v111h-220l-78 -111h-116l370 514h401v-86h-264v-116h213v-86h-213v-140h264v-86zM431 192v234l-164 -234h164z" />
    <glyph glyph-name="Aacute.sc" unicode="&#xe002;" horiz-adv-x="570" 
d="M465 690l-134 -122h-108l134 122h108zM553 0h-102l-48 111h-236l-48 -111h-102l229 514h78zM368 192l-83 191l-83 -191h166z" />
    <glyph glyph-name="Acircumflex.sc" unicode="&#xe003;" horiz-adv-x="570" 
d="M441 569h-94l-62 74l-63 -74h-94l111 122h91zM553 0h-102l-48 111h-236l-48 -111h-102l229 514h78zM368 192l-83 191l-83 -191h166z" />
    <glyph glyph-name="Adieresis.sc" unicode="&#xe004;" horiz-adv-x="570" 
d="M415 582h-96v96h96v-96zM248 582h-96v96h96v-96zM553 0h-102l-48 111h-236l-48 -111h-102l229 514h78zM368 192l-83 191l-83 -191h166z" />
    <glyph glyph-name="Agrave.sc" unicode="&#xe005;" horiz-adv-x="570" 
d="M348 568h-108l-134 122h108zM553 0h-102l-48 111h-236l-48 -111h-102l229 514h78zM368 192l-83 191l-83 -191h166z" />
    <glyph glyph-name="Aring.sc" unicode="&#xe006;" horiz-adv-x="570" 
d="M382 666q0 -40 -28 -68.5t-69 -28.5t-69 28.5t-28 68.5t28 68.5t69 28.5t69 -28.5t28 -68.5zM553 0h-102l-48 111h-236l-48 -111h-102l229 514h78zM334 666q0 20 -14.5 34.5t-34.5 14.5t-34.5 -14.5t-14.5 -34.5t14.5 -34.5t34.5 -14.5t34.5 14.5t14.5 34.5zM368 192
l-83 191l-83 -191h166z" />
    <glyph glyph-name="Atilde.sc" unicode="&#xe007;" horiz-adv-x="570" 
d="M445 682q-12 -105 -88 -105q-24 0 -76.5 20.5t-66.5 20.5q-24 0 -25 -39h-67q3 47 24.5 78t58.5 31q25 0 77 -20.5t69 -20.5q24 0 27 35h67zM553 0h-102l-48 111h-236l-48 -111h-102l229 514h78zM368 192l-83 191l-83 -191h166z" />
    <glyph glyph-name="B.sc" unicode="&#xe008;" horiz-adv-x="509" 
d="M465 150q0 -57 -47.5 -103.5t-136.5 -46.5h-206v514h184q87 0 124.5 -41.5t37.5 -88.5q0 -63 -60 -99q50 -15 77 -51.5t27 -83.5zM323 376q0 24 -17.5 39.5t-54.5 15.5h-83v-116h74q81 0 81 61zM367 162q0 32 -24 54t-75 22h-100v-155h99q53 0 76.5 24t23.5 55z" />
    <glyph glyph-name="C.sc" unicode="&#xe009;" horiz-adv-x="575" 
d="M524 43q-96 -52 -193 -52q-114 0 -196 78t-82 188q0 111 83.5 188.5t194.5 77.5q90 0 193 -47v-93q-93 54 -186 54q-81 0 -135 -52t-54 -128q0 -77 55.5 -128.5t133.5 -51.5q46 0 98 16.5t88 42.5v-93z" />
    <glyph glyph-name="Ccedilla.sc" unicode="&#xe00a;" horiz-adv-x="575" 
d="M524 43q-87 -46 -167 -51l-5 -27q22 -5 39 -23t17 -46q0 -41 -30 -66t-80 -25q-18 0 -28 2v50q12 -7 28 -7q18 0 32.5 10t14.5 33q0 17 -14.5 28.5t-39.5 12.5l13 58q-105 10 -178 86t-73 179q0 111 83.5 188.5t194.5 77.5q90 0 193 -47v-93q-93 54 -186 54
q-81 0 -135 -52t-54 -128q0 -77 55.5 -128.5t133.5 -51.5q46 0 98 16.5t88 42.5v-93z" />
    <glyph glyph-name="D.sc" unicode="&#xe00b;" horiz-adv-x="612" 
d="M559 257q0 -111 -79.5 -184t-198.5 -73h-206v514h206q117 0 197.5 -73t80.5 -184zM463 257q0 78 -52.5 124.5t-129.5 46.5h-113v-342h113q82 0 132 48t50 123z" />
    <glyph glyph-name="Eth.sc" unicode="&#xe00c;" horiz-adv-x="612" 
d="M559 257q0 -111 -79.5 -184t-198.5 -73h-206v229h-70v84h70v201h206q117 0 197.5 -73t80.5 -184zM463 257q0 78 -52.5 124.5t-129.5 46.5h-113v-115h138v-84h-138v-143h113q82 0 132 48t50 123z" />
    <glyph glyph-name="E.sc" unicode="&#xe00d;" horiz-adv-x="481" 
d="M432 0h-357v514h357v-84h-264v-119h206v-84h-206v-143h264v-84z" />
    <glyph glyph-name="Eacute.sc" unicode="&#xe00e;" horiz-adv-x="481" 
d="M420 690l-134 -122h-108l134 122h108zM432 0h-357v514h357v-84h-264v-119h206v-84h-206v-143h264v-84z" />
    <glyph glyph-name="Ecircumflex.sc" unicode="&#xe00f;" horiz-adv-x="481" 
d="M406 569h-94l-62 74l-63 -74h-94l111 122h91zM432 0h-357v514h357v-84h-264v-119h206v-84h-206v-143h264v-84z" />
    <glyph glyph-name="Edieresis.sc" unicode="&#xe010;" horiz-adv-x="481" 
d="M380 582h-96v96h96v-96zM213 582h-96v96h96v-96zM432 0h-357v514h357v-84h-264v-119h206v-84h-206v-143h264v-84z" />
    <glyph glyph-name="Egrave.sc" unicode="&#xe011;" horiz-adv-x="481" 
d="M333 568h-108l-134 122h108zM432 0h-357v514h357v-84h-264v-119h206v-84h-206v-143h264v-84z" />
    <glyph glyph-name="F.sc" unicode="&#xe012;" horiz-adv-x="442" 
d="M419 430h-251v-119h192v-84h-192v-227h-93v514h344v-84z" />
    <glyph glyph-name="G.sc" unicode="&#xe013;" horiz-adv-x="614" 
d="M548 55q-111 -64 -217 -64q-111 0 -194.5 77.5t-83.5 188.5t83.5 188.5t194.5 77.5q105 0 209 -48v-93q-105 55 -202 55q-81 0 -135 -52t-54 -128q0 -77 55.5 -128.5t133.5 -51.5q69 0 117 28v92h-120v86h213v-228z" />
    <glyph glyph-name="H.sc" unicode="&#xe014;" horiz-adv-x="616" 
d="M541 0h-93v226h-280v-226h-93v514h93v-202h280v202h93v-514z" />
    <glyph glyph-name="I.sc" unicode="&#xe015;" horiz-adv-x="243" 
d="M168 0h-93v514h93v-514z" />
    <glyph glyph-name="Iacute.sc" unicode="&#xe016;" horiz-adv-x="243" 
d="M312 690l-134 -122h-108l134 122h108zM168 0h-93v514h93v-514z" />
    <glyph glyph-name="Icircumflex.sc" unicode="&#xe017;" horiz-adv-x="243" 
d="M278 569h-94l-62 74l-63 -74h-94l111 122h91zM168 0h-93v514h93v-514z" />
    <glyph glyph-name="Idieresis.sc" unicode="&#xe018;" horiz-adv-x="243" 
d="M252 582h-96v96h96v-96zM85 582h-96v96h96v-96zM168 0h-93v514h93v-514z" />
    <glyph glyph-name="Igrave.sc" unicode="&#xe019;" horiz-adv-x="243" 
d="M175 568h-108l-134 122h108zM168 0h-93v514h93v-514z" />
    <glyph glyph-name="J.sc" unicode="&#xe01a;" horiz-adv-x="406" 
d="M331 171q0 -88 -46.5 -134t-112.5 -46q-106 0 -155 102l75 43q10 -30 30 -46.5t44 -16.5q34 0 53 22.5t19 60.5v358h93v-343z" />
    <glyph glyph-name="K.sc" unicode="&#xe01b;" horiz-adv-x="524" 
d="M513 0h-125l-220 245v-245h-93v514h93v-190l194 190h131l-242 -226z" />
    <glyph glyph-name="L.sc" unicode="&#xe01c;" horiz-adv-x="445" 
d="M419 0h-344v514h93v-428h251v-86z" />
    <glyph glyph-name="Lslash.sc" unicode="&#xe01d;" horiz-adv-x="445" 
d="M419 0h-344v180l-64 -49v88l64 49v246h93v-174l117 90v-88l-117 -90v-166h251v-86z" />
    <glyph glyph-name="M.sc" unicode="&#xe01e;" horiz-adv-x="724" 
d="M649 0h-93v378l-194 -223l-194 223v-378h-93v514h93l194 -228l194 228h93v-514z" />
    <glyph glyph-name="N.sc" unicode="&#xe01f;" horiz-adv-x="642" 
d="M567 0h-93l-306 373v-373h-93v514h93l306 -368v368h93v-514z" />
    <glyph glyph-name="Ntilde.sc" unicode="&#xe020;" horiz-adv-x="642" 
d="M481 682q-12 -105 -88 -105q-24 0 -76.5 20.5t-66.5 20.5q-24 0 -25 -39h-67q3 47 24.5 78t58.5 31q25 0 77 -20.5t69 -20.5q24 0 27 35h67zM567 0h-93l-306 373v-373h-93v514h93l306 -368v368h93v-514z" />
    <glyph glyph-name="O.sc" unicode="&#xe021;" horiz-adv-x="662" 
d="M609 257q0 -111 -83.5 -188.5t-194.5 -77.5t-194.5 77.5t-83.5 188.5t83.5 188.5t194.5 77.5t194.5 -77.5t83.5 -188.5zM513 257q0 79 -53.5 129.5t-128.5 50.5t-128.5 -50.5t-53.5 -129.5t53.5 -129.5t128.5 -50.5t128.5 50.5t53.5 129.5z" />
    <glyph glyph-name="OE.sc" unicode="&#xe022;" horiz-adv-x="919" 
d="M870 0h-357v61q-76 -70 -182 -70q-111 0 -194.5 77.5t-83.5 188.5t83.5 188.5t194.5 77.5q106 0 182 -70v61h357v-86h-264v-116h213v-86h-213v-140h264v-86zM513 257q0 79 -53.5 129.5t-128.5 50.5t-128.5 -50.5t-53.5 -129.5t53.5 -129.5t128.5 -50.5t128.5 50.5
t53.5 129.5z" />
    <glyph glyph-name="Oacute.sc" unicode="&#xe023;" horiz-adv-x="662" 
d="M481 690l-134 -122h-108l134 122h108zM609 257q0 -111 -83.5 -188.5t-194.5 -77.5t-194.5 77.5t-83.5 188.5t83.5 188.5t194.5 77.5t194.5 -77.5t83.5 -188.5zM513 257q0 77 -52.5 128.5t-129.5 51.5t-129.5 -51.5t-52.5 -128.5t52.5 -128.5t129.5 -51.5t129.5 51.5
t52.5 128.5z" />
    <glyph glyph-name="Ocircumflex.sc" unicode="&#xe024;" horiz-adv-x="662" 
d="M487 569h-94l-62 74l-63 -74h-94l111 122h91zM609 257q0 -111 -83.5 -188.5t-194.5 -77.5t-194.5 77.5t-83.5 188.5t83.5 188.5t194.5 77.5t194.5 -77.5t83.5 -188.5zM513 257q0 77 -52.5 128.5t-129.5 51.5t-129.5 -51.5t-52.5 -128.5t52.5 -128.5t129.5 -51.5
t129.5 51.5t52.5 128.5z" />
    <glyph glyph-name="Odieresis.sc" unicode="&#xe025;" horiz-adv-x="662" 
d="M461 582h-96v96h96v-96zM294 582h-96v96h96v-96zM609 257q0 -111 -83.5 -188.5t-194.5 -77.5t-194.5 77.5t-83.5 188.5t83.5 188.5t194.5 77.5t194.5 -77.5t83.5 -188.5zM513 257q0 79 -53.5 129.5t-128.5 50.5t-128.5 -50.5t-53.5 -129.5t53.5 -129.5t128.5 -50.5
t128.5 50.5t53.5 129.5z" />
    <glyph glyph-name="Ograve.sc" unicode="&#xe026;" horiz-adv-x="662" 
d="M424 568h-108l-134 122h108zM609 257q0 -111 -83.5 -188.5t-194.5 -77.5t-194.5 77.5t-83.5 188.5t83.5 188.5t194.5 77.5t194.5 -77.5t83.5 -188.5zM513 257q0 77 -52.5 128.5t-129.5 51.5t-129.5 -51.5t-52.5 -128.5t52.5 -128.5t129.5 -51.5t129.5 51.5t52.5 128.5z
" />
    <glyph glyph-name="Oslash.sc" unicode="&#xe027;" horiz-adv-x="662" 
d="M611 494l-67 -67q65 -75 65 -170q0 -111 -83.5 -188.5t-194.5 -77.5q-91 0 -168 56l-66 -66l-48 48l64 64q-60 73 -60 164q0 111 83.5 188.5t194.5 77.5q87 0 162 -51l70 70zM513 257q0 60 -33 106l-255 -254q48 -32 106 -32q75 0 128.5 50.5t53.5 129.5zM430 410
q-44 27 -99 27q-75 0 -128.5 -50.5t-53.5 -129.5q0 -55 29 -100z" />
    <glyph glyph-name="Otilde.sc" unicode="&#xe028;" horiz-adv-x="662" 
d="M491 682q-12 -105 -88 -105q-24 0 -76.5 20.5t-66.5 20.5q-24 0 -25 -39h-67q3 47 24.5 78t58.5 31q25 0 77 -20.5t69 -20.5q24 0 27 35h67zM609 257q0 -111 -83.5 -188.5t-194.5 -77.5t-194.5 77.5t-83.5 188.5t83.5 188.5t194.5 77.5t194.5 -77.5t83.5 -188.5zM513 257
q0 79 -53.5 129.5t-128.5 50.5t-128.5 -50.5t-53.5 -129.5t53.5 -129.5t128.5 -50.5t128.5 50.5t53.5 129.5z" />
    <glyph glyph-name="P.sc" unicode="&#xe029;" horiz-adv-x="496" 
d="M463 349q0 -75 -52.5 -122t-140.5 -47h-102v-180h-93v514h195q93 0 143 -47t50 -118zM367 349q0 79 -100 79h-99v-162h102q97 0 97 83z" />
    <glyph glyph-name="Thorn.sc" unicode="&#xe02a;" horiz-adv-x="496" 
d="M463 259q0 -75 -52.5 -122t-140.5 -47h-102v-90h-93v514h93v-90h102q93 0 143 -47t50 -118zM367 259q0 79 -100 79h-99v-162h102q97 0 97 83z" />
    <glyph glyph-name="Q.sc" unicode="&#xe02b;" horiz-adv-x="667" 
d="M614 47l-54 -62l-66 58q-74 -52 -163 -52q-111 0 -194.5 77.5t-83.5 188.5t83.5 188.5t194.5 77.5t194.5 -77.5t83.5 -188.5q0 -87 -55 -158zM513 257q0 79 -53.5 129.5t-128.5 50.5t-128.5 -50.5t-53.5 -129.5t53.5 -129.5t128.5 -50.5q51 0 95 25l-76 65l54 62l81 -71
q28 44 28 99z" />
    <glyph glyph-name="R.sc" unicode="&#xe02c;" horiz-adv-x="528" 
d="M509 0h-114l-151 201h-76v-201h-93v514h201q80 0 124.5 -46.5t44.5 -109.5q0 -50 -27.5 -86.5t-74.5 -54.5zM349 358q0 33 -23 51.5t-64 18.5h-94v-141h84q97 0 97 71z" />
    <glyph glyph-name="S.sc" unicode="&#xe02d;" horiz-adv-x="472" 
d="M430 151q0 -70 -53 -115t-128 -45q-79 0 -128 32t-83 86l78 46q42 -85 138 -85q32 0 59 19.5t27 49.5q0 24 -28.5 42t-69 32.5t-81 32.5t-69 51.5t-28.5 79.5q0 54 46 100t132 46q106 0 177 -81l-67 -53q-43 55 -114 55q-40 0 -60.5 -18t-20.5 -40q0 -25 28 -44t68.5 -33
t80.5 -32t68 -50t28 -76z" />
    <glyph glyph-name="Scaron.sc" unicode="&#xe02e;" horiz-adv-x="472" 
d="M399 691l-111 -122h-91l-111 122h94l63 -73l62 73h94zM430 151q0 -70 -53 -115t-128 -45q-79 0 -128 32t-83 86l78 46q42 -85 138 -85q32 0 59 19.5t27 49.5q0 24 -28.5 42t-69 32.5t-81 32.5t-69 51.5t-28.5 79.5q0 54 46 100t132 46q106 0 177 -81l-67 -53
q-43 55 -114 55q-40 0 -60.5 -18t-20.5 -40q0 -25 28 -44t68.5 -33t80.5 -32t68 -50t28 -76z" />
    <glyph glyph-name="T.sc" unicode="&#xe02f;" horiz-adv-x="491" 
d="M470 428h-178v-428h-93v428h-178v86h449v-86z" />
    <glyph glyph-name="U.sc" unicode="&#xe030;" horiz-adv-x="628" 
d="M559 226q0 -109 -72.5 -172t-172.5 -63t-172.5 63t-72.5 172v288h93v-284q0 -77 47.5 -115t104.5 -38t104.5 38t47.5 115v284h93v-288z" />
    <glyph glyph-name="Uacute.sc" unicode="&#xe031;" horiz-adv-x="628" 
d="M474 690l-134 -122h-108l134 122h108zM559 226q0 -109 -72.5 -172t-172.5 -63t-172.5 63t-72.5 172v288h93v-284q0 -77 47.5 -115t104.5 -38t104.5 38t47.5 115v284h93v-288z" />
    <glyph glyph-name="Ucircumflex.sc" unicode="&#xe032;" horiz-adv-x="628" 
d="M470 569h-94l-62 74l-63 -74h-94l111 122h91zM559 226q0 -109 -72.5 -172t-172.5 -63t-172.5 63t-72.5 172v288h93v-284q0 -77 47.5 -115t104.5 -38t104.5 38t47.5 115v284h93v-288z" />
    <glyph glyph-name="Udieresis.sc" unicode="&#xe033;" horiz-adv-x="628" 
d="M444 582h-96v96h96v-96zM277 582h-96v96h96v-96zM559 226q0 -109 -72.5 -172t-172.5 -63t-172.5 63t-72.5 172v288h93v-284q0 -77 47.5 -115t104.5 -38t104.5 38t47.5 115v284h93v-288z" />
    <glyph glyph-name="Ugrave.sc" unicode="&#xe034;" horiz-adv-x="628" 
d="M397 568h-108l-134 122h108zM559 226q0 -109 -72.5 -172t-172.5 -63t-172.5 63t-72.5 172v288h93v-284q0 -77 47.5 -115t104.5 -38t104.5 38t47.5 115v284h93v-288z" />
    <glyph glyph-name="V.sc" unicode="&#xe035;" horiz-adv-x="548" 
d="M529 514l-215 -514h-80l-215 514h102l153 -379l153 379h102z" />
    <glyph glyph-name="W.sc" unicode="&#xe036;" horiz-adv-x="838" 
d="M817 514l-192 -514h-82l-124 367l-124 -367h-82l-192 514h96l137 -368l124 368h82l124 -368l137 368h96z" />
    <glyph glyph-name="X.sc" unicode="&#xe037;" horiz-adv-x="578" 
d="M561 0h-118l-154 204l-154 -204h-118l215 273l-189 241h118l128 -175l128 175h118l-188 -240z" />
    <glyph glyph-name="Y.sc" unicode="&#xe038;" horiz-adv-x="525" 
d="M509 514l-200 -285v-229h-93v229l-200 285h117l130 -203l129 203h117z" />
    <glyph glyph-name="Yacute.sc" unicode="&#xe039;" horiz-adv-x="525" 
d="M430 690l-134 -122h-108l134 122h108zM509 514l-200 -285v-229h-93v229l-200 285h117l130 -203l129 203h117z" />
    <glyph glyph-name="Ydieresis.sc" unicode="&#xe03a;" horiz-adv-x="525" 
d="M400 582h-96v96h96v-96zM233 582h-96v96h96v-96zM509 514l-200 -285v-229h-93v229l-200 285h117l130 -203l129 203h117z" />
    <glyph glyph-name="Z.sc" unicode="&#xe03b;" horiz-adv-x="538" 
d="M492 514l-299 -430h297v-84h-461l299 430h-265v84h429z" />
    <glyph glyph-name="Zcaron.sc" unicode="&#xe03c;" horiz-adv-x="538" 
d="M425 691l-111 -122h-91l-111 122h94l63 -73l62 73h94zM492 514l-299 -430h297v-84h-461l299 430h-265v84h429z" />
    <glyph glyph-name="germandbls.sc" unicode="&#xe03d;" horiz-adv-x="944" 
d="M902 151q0 -70 -53 -115t-128 -45q-79 0 -128 32t-83 86l78 46q42 -85 138 -85q32 0 59 19.5t27 49.5q0 24 -28.5 42t-69 32.5t-81 32.5t-69 51.5t-28.5 79.5q0 54 46 100t132 46q106 0 177 -81l-67 -53q-43 55 -114 55q-40 0 -60.5 -18t-20.5 -40q0 -25 28 -44t68.5 -33
t80.5 -32t68 -50t28 -76zM430 151q0 -70 -53 -115t-128 -45q-79 0 -128 32t-83 86l78 46q42 -85 138 -85q32 0 59 19.5t27 49.5q0 24 -28.5 42t-69 32.5t-81 32.5t-69 51.5t-28.5 79.5q0 54 46 100t132 46q106 0 177 -81l-67 -53q-43 55 -114 55q-40 0 -60.5 -18t-20.5 -40
q0 -25 28 -44t68.5 -33t80.5 -32t68 -50t28 -76z" />
    <glyph glyph-name="f_i.sc" unicode="&#xe03e;" horiz-adv-x="685" 
d="M610 0h-93v514h93v-514zM419 430h-251v-119h192v-84h-192v-227h-93v514h344v-84z" />
    <glyph glyph-name="f_l.sc" unicode="&#xe03f;" horiz-adv-x="887" 
d="M861 0h-344v514h93v-428h251v-86zM419 430h-251v-119h192v-84h-192v-227h-93v514h344v-84z" />
    <glyph glyph-name="a.alt" unicode="&#xe040;" horiz-adv-x="573" 
d="M503 0h-85v42q-66 -51 -140 -51q-85 0 -156.5 63.5t-71.5 173.5q0 109 70 171.5t158 62.5q74 0 140 -51v42h85v-453zM410 118v217q-53 42 -122 42q-64 0 -102 -43t-38 -106q0 -68 38 -110t102 -42q69 0 122 42z" />
    <glyph glyph-name="aacute.alt" unicode="&#xe041;" horiz-adv-x="573" 
d="M437 630l-134 -122h-108l134 122h108zM503 0h-85v42q-66 -51 -140 -51q-85 0 -156.5 63.5t-71.5 173.5q0 109 70 171.5t158 62.5q74 0 140 -51v42h85v-453zM410 118v217q-53 42 -122 42q-64 0 -102 -43t-38 -106q0 -68 38 -110t102 -42q69 0 122 42z" />
    <glyph glyph-name="agrave.alt" unicode="&#xe042;" horiz-adv-x="573" 
d="M370 508h-108l-134 122h108zM503 0h-85v42q-66 -51 -140 -51q-85 0 -156.5 63.5t-71.5 173.5q0 109 70 171.5t158 62.5q74 0 140 -51v42h85v-453zM410 118v217q-53 42 -122 42q-64 0 -102 -43t-38 -106q0 -68 38 -110t102 -42q69 0 122 42z" />
    <glyph glyph-name="acircumflex.alt" unicode="&#xe043;" horiz-adv-x="573" 
d="M442 508h-94l-62 73l-63 -73h-94l111 122h91zM503 0h-85v42q-66 -51 -140 -51q-85 0 -156.5 63.5t-71.5 173.5q0 109 70 171.5t158 62.5q74 0 140 -51v42h85v-453zM410 118v217q-53 42 -122 42q-64 0 -102 -43t-38 -106q0 -68 38 -110t102 -42q69 0 122 42z" />
    <glyph glyph-name="adieresis.alt" unicode="&#xe044;" horiz-adv-x="573" 
d="M417 522h-96v96h96v-96zM250 522h-96v96h96v-96zM503 0h-85v42q-66 -51 -140 -51q-85 0 -156.5 63.5t-71.5 173.5q0 109 70 171.5t158 62.5q74 0 140 -51v42h85v-453zM410 118v217q-53 42 -122 42q-64 0 -102 -43t-38 -106q0 -68 38 -110t102 -42q69 0 122 42z" />
    <glyph glyph-name="atilde.alt" unicode="&#xe045;" horiz-adv-x="573" 
d="M447 618q-12 -105 -88 -105q-24 0 -76.5 20.5t-66.5 20.5q-24 0 -25 -39h-67q3 47 24.5 78t58.5 31q25 0 77 -20.5t69 -20.5q24 0 27 35h67zM503 0h-85v42q-66 -51 -140 -51q-85 0 -156.5 63.5t-71.5 173.5q0 109 70 171.5t158 62.5q74 0 140 -51v42h85v-453zM410 118
v217q-53 42 -122 42q-64 0 -102 -43t-38 -106q0 -68 38 -110t102 -42q69 0 122 42z" />
    <glyph glyph-name="aring.alt" unicode="&#xe046;" horiz-adv-x="573" 
d="M375 605q0 -41 -28.5 -69t-68.5 -28t-68.5 28t-28.5 69t28.5 69t68.5 28t68.5 -28t28.5 -69zM503 0h-85v42q-66 -51 -140 -51q-85 0 -156.5 63.5t-71.5 173.5q0 109 70 171.5t158 62.5q74 0 140 -51v42h85v-453zM327 605q0 20 -14.5 34.5t-34.5 14.5t-34.5 -14.5
t-14.5 -34.5t14.5 -34.5t34.5 -14.5t34.5 14.5t14.5 34.5zM410 118v217q-53 42 -122 42q-64 0 -102 -43t-38 -106q0 -68 38 -110t102 -42q69 0 122 42z" />
    <glyph glyph-name="g.alt" unicode="&#xe047;" horiz-adv-x="573" 
d="M503 -30q0 -104 -63 -151t-157 -47q-98 0 -198 34l23 82q80 -34 166 -34q136 0 136 111v63q-60 -38 -130 -38q-90 0 -160 66.5t-70 168.5q0 59 22 106t57 74.5t73.5 42t75.5 14.5q74 0 140 -51v42h85v-483zM410 118v209q-57 49 -120 49q-55 0 -98.5 -39t-43.5 -112
q0 -63 38 -106t102 -43q69 0 122 42z" />
    <glyph glyph-name="i.alt" unicode="&#xe048;" horiz-adv-x="346" 
d="M190 590l-75 -75l-75 75l75 75zM317 13q-53 -21 -99 -21q-80 0 -115 42.5t-35 123.5v295h93v-298q0 -83 67 -83q43 0 89 23v-82z" />
    <glyph glyph-name="iacute.alt" unicode="&#xe049;" horiz-adv-x="346" 
d="M306 630l-134 -122h-108l134 122h108zM317 13q-53 -21 -99 -21q-80 0 -115 42.5t-35 123.5v295h93v-298q0 -83 67 -83q43 0 89 23v-82z" />
    <glyph glyph-name="igrave.alt" unicode="&#xe04a;" horiz-adv-x="346" 
d="M169 508h-108l-134 122h108zM317 13q-53 -21 -99 -21q-80 0 -115 42.5t-35 123.5v295h93v-298q0 -83 67 -83q43 0 89 23v-82z" />
    <glyph glyph-name="icircumflex.alt" unicode="&#xe04b;" horiz-adv-x="346" 
d="M271 508h-94l-62 73l-63 -73h-94l111 122h91zM317 13q-53 -21 -99 -21q-80 0 -115 42.5t-35 123.5v295h93v-298q0 -83 67 -83q43 0 89 23v-82z" />
    <glyph glyph-name="idieresis.alt" unicode="&#xe04c;" horiz-adv-x="346" 
d="M246 522h-96v96h96v-96zM79 522h-96v96h96v-96zM317 13q-53 -21 -99 -21q-80 0 -115 42.5t-35 123.5v295h93v-298q0 -83 67 -83q43 0 89 23v-82z" />
    <glyph glyph-name="l.alt" unicode="&#xe04d;" horiz-adv-x="243" 
d="M168 0h-93v672h93v-672z" />
    <glyph glyph-name="lslash.alt" unicode="&#xe04e;" horiz-adv-x="243" 
d="M241 431l-73 -56v-375h-93v305l-73 -56v82l73 56v285h93v-215l73 56v-82z" />
    <glyph glyph-name="q.alt" unicode="&#xe04f;" horiz-adv-x="582" 
d="M979 -187q-77 -49 -171 -49q-99 0 -232 64.5t-263 161.5q-7 -1 -21 -1q-104 0 -173 68.5t-69 168.5t69 168.5t173 68.5t173 -68.5t69 -168.5q0 -65 -30.5 -119t-84.5 -85q95 -67 208.5 -120.5t192.5 -53.5q37 0 85 17t74 37v-89zM437 226q0 67 -41.5 109t-103.5 42
t-103.5 -42t-41.5 -109t41.5 -109t103.5 -42t103.5 42t41.5 109z" />
    <glyph glyph-name="s.alt" unicode="&#xe050;" horiz-adv-x="415" 
d="M369 128q0 -52 -43.5 -96t-124.5 -44q-60 0 -99.5 19.5t-78.5 64.5l62 54q14 -27 48 -46.5t72 -19.5q34 0 56 16.5t22 37.5q0 23 -16.5 34t-96.5 45q-68 28 -96 59t-28 74q0 56 43 96.5t111 40.5q78 0 156 -65l-54 -56q-48 47 -102 47q-34 0 -51 -16.5t-17 -35.5
q0 -20 22 -36t93 -44q64 -26 93 -53.5t29 -75.5z" />
    <glyph glyph-name="scaron.alt" unicode="&#xe051;" horiz-adv-x="415" 
d="M356 630l-111 -122h-91l-111 122h94l63 -73l62 73h94zM369 128q0 -52 -43.5 -96t-124.5 -44q-60 0 -99.5 19.5t-78.5 64.5l62 54q14 -27 48 -46.5t72 -19.5q34 0 56 16.5t22 37.5q0 23 -16.5 34t-96.5 45q-68 28 -96 59t-28 74q0 56 43 96.5t111 40.5q78 0 156 -65
l-54 -56q-48 47 -102 47q-34 0 -51 -16.5t-17 -35.5q0 -20 22 -36t93 -44q64 -26 93 -53.5t29 -75.5z" />
    <glyph glyph-name="y.alt" unicode="&#xe052;" horiz-adv-x="561" 
d="M491 -30q0 -104 -63 -151t-157 -47q-97 0 -207 36l23 82q86 -36 175 -36q136 0 136 111v72q-70 -46 -140 -46q-30 0 -59.5 8.5t-63 30.5t-54.5 69t-21 114v240h93v-245q0 -62 31 -96t86 -34q61 0 128 49v326h93v-483z" />
    <glyph glyph-name="yacute.alt" unicode="&#xe053;" horiz-adv-x="561" 
d="M432 630l-134 -122h-108l134 122h108zM491 -30q0 -104 -63 -151t-157 -47q-97 0 -207 36l23 82q86 -36 175 -36q136 0 136 111v72q-70 -46 -140 -46q-30 0 -59.5 8.5t-63 30.5t-54.5 69t-21 114v240h93v-245q0 -62 31 -96t86 -34q61 0 128 49v326h93v-483z" />
    <glyph glyph-name="ydieresis.alt" unicode="&#xe054;" horiz-adv-x="561" 
d="M408 522h-96v96h96v-96zM241 522h-96v96h96v-96zM491 -30q0 -104 -63 -151t-157 -47q-97 0 -207 36l23 82q86 -36 175 -36q136 0 136 111v72q-70 -46 -140 -46q-30 0 -59.5 8.5t-63 30.5t-54.5 69t-21 114v240h93v-245q0 -62 31 -96t86 -34q61 0 128 49v326h93v-483z" />
    <glyph glyph-name="fi.alt" unicode="&#xe055;" horiz-adv-x="730" 
d="M574 590l-75 -75l-75 75l75 75zM701 13q-53 -21 -99 -21q-80 0 -115 42.5t-35 123.5v295h93v-298q0 -83 67 -83q43 0 89 23v-82zM388 581q-44 21 -94 21q-84 0 -84 -97v-52h147v-79h-147v-374h-93v374h-92v79h92v52q0 77 39.5 129t129.5 52q51 0 102 -16v-89z" />
    <glyph glyph-name="fl.alt" unicode="&#xe056;" horiz-adv-x="623" 
d="M548 0h-93v672h93v-672zM388 581q-44 21 -94 21q-84 0 -84 -97v-52h147v-79h-147v-374h-93v374h-92v79h92v52q0 77 39.5 129t129.5 52q51 0 102 -16v-89z" />
    <glyph glyph-name="zero.oldstyle" unicode="&#xf730;" horiz-adv-x="652" 
d="M602 257q0 -111 -82.5 -188.5t-193.5 -77.5t-193.5 77.5t-82.5 188.5t82.5 188.5t193.5 77.5t193.5 -77.5t82.5 -188.5zM506 257q0 79 -52.5 129.5t-127.5 50.5t-127.5 -50.5t-52.5 -129.5t52.5 -129.5t127.5 -50.5t127.5 50.5t52.5 129.5z" />
    <glyph glyph-name="one.oldstyle" unicode="&#xf731;" horiz-adv-x="276" 
d="M188 0h-100v462l100 70v-532z" />
    <glyph glyph-name="two.oldstyle" unicode="&#xf732;" horiz-adv-x="502" 
d="M445 0h-413q104 100 193 198q52 57 71.5 89.5t19.5 65.5q0 36 -27 57t-66 21q-42 0 -89.5 -30t-85.5 -71v113q99 80 185 80q90 0 138.5 -53t48.5 -115t-44.5 -123.5t-132.5 -146.5h202v-85z" />
    <glyph glyph-name="three.oldstyle" unicode="&#xf733;" horiz-adv-x="526" 
d="M478 55q0 -97 -66.5 -161t-161.5 -64q-109 0 -200 105l66 80q18 -35 54 -63t83 -28q28 0 54 10.5t47.5 42t21.5 78.5q0 52 -38 86t-109 34q-31 0 -71 -5l153 255h-236v89h398l-162 -268q60 -2 113.5 -53.5t53.5 -137.5z" />
    <glyph glyph-name="four.oldstyle" unicode="&#xf734;" horiz-adv-x="597" 
d="M572 0h-113v-158h-100v158h-359l459 528v-448h113v-80zM359 80v204l-176 -204h176z" />
    <glyph glyph-name="five.oldstyle" unicode="&#xf735;" horiz-adv-x="497" 
d="M450 514l-52 -89h-192l-13 -170q22 4 48 4q84 0 145 -57t61 -147q0 -97 -68 -161t-157 -64q-112 0 -201 102l66 80q18 -34 54.5 -61t83.5 -27q46 0 83 34.5t37 96.5q0 45 -38 83.5t-108 38.5q-65 0 -110 -17l28 354h333z" />
    <glyph glyph-name="six.oldstyle" unicode="&#xf736;" horiz-adv-x="547" 
d="M497 197q0 -79 -60.5 -145t-164.5 -66q-93 0 -155.5 71t-62.5 190q0 103 58 213.5t166 211.5h134q-184 -167 -231 -298q53 33 118 33q85 0 141.5 -61t56.5 -149zM395 197q0 56 -33.5 88.5t-86.5 32.5q-33 0 -65 -14t-51 -31q-4 -26 -4 -42q0 -67 34.5 -110t87.5 -43
q54 0 86 37t32 82z" />
    <glyph glyph-name="seven.oldstyle" unicode="&#xf737;" horiz-adv-x="491" 
d="M480 514l-328 -672h-105l284 583h-283v89h432z" />
    <glyph glyph-name="eight.oldstyle" unicode="&#xf738;" horiz-adv-x="532" 
d="M481 186q0 -76 -60 -136.5t-152 -60.5t-155 55t-63 142q0 60 32.5 104t97.5 84q-89 66 -89 145q0 70 51 118.5t126 48.5q86 0 131.5 -52t45.5 -115q0 -82 -94 -144q66 -40 97.5 -83.5t31.5 -105.5zM349 513q0 41 -22.5 62t-57.5 21q-34 0 -57 -21t-23 -56q0 -32 18 -53.5
t61 -45.5q39 15 60 42t21 51zM379 192q0 40 -32 75.5t-83 59.5q-56 -31 -83.5 -63.5t-27.5 -77.5q0 -42 31.5 -74.5t84.5 -32.5q39 0 74.5 28t35.5 85z" />
    <glyph glyph-name="nine.oldstyle" unicode="&#xf739;" horiz-adv-x="545" 
d="M490 262q0 -102 -56.5 -211t-162.5 -209h-134q178 162 226 293q-53 -33 -118 -33q-85 0 -141.5 61t-56.5 149q0 79 60.5 145t164.5 66q93 0 155.5 -71t62.5 -190zM389 278q0 67 -34.5 110t-87.5 43q-54 0 -86 -37t-32 -82q0 -56 33.5 -88.5t86.5 -32.5q33 0 65 14t51 31
q4 26 4 42z" />
    </font>
</defs>
</svg>
